<mxfile host="app.diagrams.net" modified="2021-11-07T11:33:55.398Z" agent="5.0 (X11)" etag="p5u_c1EDyI-1sH5A-k3g" version="15.7.0" type="github">
  <diagram id="CyPvhByOn69fHsdpHqbr" name="Page-1">
    <mxGraphModel dx="2631" dy="896" grid="1" gridSize="10" guides="1" tooltips="1" connect="1" arrows="1" fold="1" page="1" pageScale="1" pageWidth="850" pageHeight="1100" math="1" shadow="0">
      <root>
        <mxCell id="0" />
        <mxCell id="1" parent="0" />
        <mxCell id="h90uzLbG_IrZYUISlAX0-3" style="edgeStyle=orthogonalEdgeStyle;rounded=0;orthogonalLoop=1;jettySize=auto;html=1;" parent="1" source="h90uzLbG_IrZYUISlAX0-1" target="h90uzLbG_IrZYUISlAX0-2" edge="1">
          <mxGeometry relative="1" as="geometry" />
        </mxCell>
        <mxCell id="h90uzLbG_IrZYUISlAX0-1" value="&lt;div&gt;Employee cost&lt;/div&gt;&lt;font style=&quot;font-size: 8px&quot;&gt;(Labour cost)&lt;/font&gt;" style="rounded=0;whiteSpace=wrap;html=1;" parent="1" vertex="1">
          <mxGeometry x="360" width="120" height="40" as="geometry" />
        </mxCell>
        <mxCell id="h90uzLbG_IrZYUISlAX0-8" style="edgeStyle=orthogonalEdgeStyle;rounded=0;orthogonalLoop=1;jettySize=auto;html=1;" parent="1" source="h90uzLbG_IrZYUISlAX0-2" target="h90uzLbG_IrZYUISlAX0-5" edge="1">
          <mxGeometry relative="1" as="geometry" />
        </mxCell>
        <mxCell id="h90uzLbG_IrZYUISlAX0-2" value="calculation of wages i.e basic wages bonus, overtime etc." style="text;html=1;strokeColor=none;fillColor=none;align=center;verticalAlign=middle;whiteSpace=wrap;rounded=0;" parent="1" vertex="1">
          <mxGeometry x="240" y="80" width="360" height="20" as="geometry" />
        </mxCell>
        <mxCell id="h90uzLbG_IrZYUISlAX0-11" style="edgeStyle=orthogonalEdgeStyle;rounded=0;orthogonalLoop=1;jettySize=auto;html=1;" parent="1" source="h90uzLbG_IrZYUISlAX0-5" target="h90uzLbG_IrZYUISlAX0-9" edge="1">
          <mxGeometry relative="1" as="geometry" />
        </mxCell>
        <mxCell id="h90uzLbG_IrZYUISlAX0-12" style="edgeStyle=orthogonalEdgeStyle;rounded=0;orthogonalLoop=1;jettySize=auto;html=1;" parent="1" source="h90uzLbG_IrZYUISlAX0-5" target="h90uzLbG_IrZYUISlAX0-10" edge="1">
          <mxGeometry relative="1" as="geometry" />
        </mxCell>
        <mxCell id="h90uzLbG_IrZYUISlAX0-5" value="&lt;u&gt;&lt;b&gt;Types of labour&lt;/b&gt;&lt;/u&gt;" style="text;html=1;strokeColor=none;fillColor=none;align=center;verticalAlign=middle;whiteSpace=wrap;rounded=0;" parent="1" vertex="1">
          <mxGeometry x="370" y="120" width="100" height="20" as="geometry" />
        </mxCell>
        <mxCell id="h90uzLbG_IrZYUISlAX0-15" style="edgeStyle=orthogonalEdgeStyle;rounded=0;orthogonalLoop=1;jettySize=auto;html=1;" parent="1" source="h90uzLbG_IrZYUISlAX0-9" target="h90uzLbG_IrZYUISlAX0-13" edge="1">
          <mxGeometry relative="1" as="geometry">
            <mxPoint x="300" y="220" as="targetPoint" />
          </mxGeometry>
        </mxCell>
        <mxCell id="h90uzLbG_IrZYUISlAX0-9" value="Direct Labour" style="rounded=1;whiteSpace=wrap;html=1;" parent="1" vertex="1">
          <mxGeometry x="240" y="160" width="120" height="40" as="geometry" />
        </mxCell>
        <mxCell id="h90uzLbG_IrZYUISlAX0-16" style="edgeStyle=orthogonalEdgeStyle;rounded=0;orthogonalLoop=1;jettySize=auto;html=1;" parent="1" source="h90uzLbG_IrZYUISlAX0-10" target="h90uzLbG_IrZYUISlAX0-14" edge="1">
          <mxGeometry relative="1" as="geometry" />
        </mxCell>
        <mxCell id="h90uzLbG_IrZYUISlAX0-10" value="Indirect Labour" style="rounded=1;whiteSpace=wrap;html=1;" parent="1" vertex="1">
          <mxGeometry x="480" y="160" width="120" height="40" as="geometry" />
        </mxCell>
        <mxCell id="h90uzLbG_IrZYUISlAX0-65" style="edgeStyle=orthogonalEdgeStyle;rounded=0;orthogonalLoop=1;jettySize=auto;html=1;" parent="1" source="h90uzLbG_IrZYUISlAX0-13" target="h90uzLbG_IrZYUISlAX0-17" edge="1">
          <mxGeometry relative="1" as="geometry" />
        </mxCell>
        <mxCell id="h90uzLbG_IrZYUISlAX0-13" value="&lt;div&gt;Labour who is directly involved in the production of the units&lt;/div&gt;e.g. machine operator etc." style="text;html=1;strokeColor=none;fillColor=none;align=center;verticalAlign=middle;whiteSpace=wrap;rounded=0;" parent="1" vertex="1">
          <mxGeometry x="200" y="220" width="200" height="50" as="geometry" />
        </mxCell>
        <mxCell id="h90uzLbG_IrZYUISlAX0-64" style="edgeStyle=orthogonalEdgeStyle;rounded=0;orthogonalLoop=1;jettySize=auto;html=1;" parent="1" source="h90uzLbG_IrZYUISlAX0-14" target="h90uzLbG_IrZYUISlAX0-17" edge="1">
          <mxGeometry relative="1" as="geometry" />
        </mxCell>
        <mxCell id="h90uzLbG_IrZYUISlAX0-14" value="Labour who is Indirectly involved in the production of the units&lt;br&gt;e.g. supervisor, manager." style="text;html=1;strokeColor=none;fillColor=none;align=center;verticalAlign=middle;whiteSpace=wrap;rounded=0;" parent="1" vertex="1">
          <mxGeometry x="440" y="220" width="200" height="50" as="geometry" />
        </mxCell>
        <mxCell id="h90uzLbG_IrZYUISlAX0-22" style="edgeStyle=orthogonalEdgeStyle;rounded=0;orthogonalLoop=1;jettySize=auto;html=1;" parent="1" source="h90uzLbG_IrZYUISlAX0-17" target="h90uzLbG_IrZYUISlAX0-21" edge="1">
          <mxGeometry relative="1" as="geometry" />
        </mxCell>
        <mxCell id="h90uzLbG_IrZYUISlAX0-17" value="&lt;u&gt;&lt;b&gt;Idle time&lt;br&gt;&lt;/b&gt;&lt;/u&gt;" style="rounded=0;whiteSpace=wrap;html=1;fontFamily=Helvetica;fontSize=12;fontColor=#000000;align=center;gradientColor=none;" parent="1" vertex="1">
          <mxGeometry x="360" y="310" width="120" height="40" as="geometry" />
        </mxCell>
        <mxCell id="h90uzLbG_IrZYUISlAX0-24" style="edgeStyle=orthogonalEdgeStyle;rounded=0;orthogonalLoop=1;jettySize=auto;html=1;" parent="1" source="h90uzLbG_IrZYUISlAX0-21" target="h90uzLbG_IrZYUISlAX0-23" edge="1">
          <mxGeometry relative="1" as="geometry" />
        </mxCell>
        <mxCell id="h90uzLbG_IrZYUISlAX0-21" value="there should be break other wise the labours wont work" style="rounded=1;whiteSpace=wrap;html=1;" parent="1" vertex="1">
          <mxGeometry x="320" y="370" width="200" height="40" as="geometry" />
        </mxCell>
        <mxCell id="h90uzLbG_IrZYUISlAX0-27" style="edgeStyle=orthogonalEdgeStyle;rounded=0;orthogonalLoop=1;jettySize=auto;html=1;" parent="1" source="h90uzLbG_IrZYUISlAX0-23" target="h90uzLbG_IrZYUISlAX0-25" edge="1">
          <mxGeometry relative="1" as="geometry" />
        </mxCell>
        <mxCell id="h90uzLbG_IrZYUISlAX0-28" style="edgeStyle=orthogonalEdgeStyle;rounded=0;orthogonalLoop=1;jettySize=auto;html=1;" parent="1" source="h90uzLbG_IrZYUISlAX0-23" target="h90uzLbG_IrZYUISlAX0-26" edge="1">
          <mxGeometry relative="1" as="geometry" />
        </mxCell>
        <mxCell id="h90uzLbG_IrZYUISlAX0-23" value="&lt;u&gt;&lt;b&gt;Types of idle time&lt;br&gt;&lt;/b&gt;&lt;/u&gt;" style="text;html=1;strokeColor=none;fillColor=none;align=center;verticalAlign=middle;whiteSpace=wrap;rounded=0;" parent="1" vertex="1">
          <mxGeometry x="360" y="430" width="120" height="20" as="geometry" />
        </mxCell>
        <mxCell id="h90uzLbG_IrZYUISlAX0-30" style="edgeStyle=orthogonalEdgeStyle;rounded=0;orthogonalLoop=1;jettySize=auto;html=1;" parent="1" source="h90uzLbG_IrZYUISlAX0-25" target="h90uzLbG_IrZYUISlAX0-29" edge="1">
          <mxGeometry relative="1" as="geometry" />
        </mxCell>
        <mxCell id="h90uzLbG_IrZYUISlAX0-25" value="Normal idle time" style="rounded=1;whiteSpace=wrap;html=1;" parent="1" vertex="1">
          <mxGeometry x="240" y="490" width="120" height="40" as="geometry" />
        </mxCell>
        <mxCell id="h90uzLbG_IrZYUISlAX0-32" style="edgeStyle=orthogonalEdgeStyle;rounded=0;orthogonalLoop=1;jettySize=auto;html=1;" parent="1" source="h90uzLbG_IrZYUISlAX0-26" target="h90uzLbG_IrZYUISlAX0-31" edge="1">
          <mxGeometry relative="1" as="geometry" />
        </mxCell>
        <mxCell id="h90uzLbG_IrZYUISlAX0-26" value="Abnormal idle time" style="rounded=1;whiteSpace=wrap;html=1;" parent="1" vertex="1">
          <mxGeometry x="480" y="490" width="120" height="40" as="geometry" />
        </mxCell>
        <mxCell id="h90uzLbG_IrZYUISlAX0-35" style="edgeStyle=orthogonalEdgeStyle;rounded=0;orthogonalLoop=1;jettySize=auto;html=1;" parent="1" source="h90uzLbG_IrZYUISlAX0-29" target="h90uzLbG_IrZYUISlAX0-33" edge="1">
          <mxGeometry relative="1" as="geometry" />
        </mxCell>
        <mxCell id="h90uzLbG_IrZYUISlAX0-29" value="&lt;div&gt;usually breaks must be given. it is bound to be wasted.&lt;/div&gt;&lt;div&gt;e.g. lunch break, tea break etc.&lt;br&gt;&lt;/div&gt;" style="text;html=1;strokeColor=none;fillColor=none;align=center;verticalAlign=middle;whiteSpace=wrap;rounded=0;" parent="1" vertex="1">
          <mxGeometry x="200" y="550" width="200" height="50" as="geometry" />
        </mxCell>
        <mxCell id="h90uzLbG_IrZYUISlAX0-34" style="edgeStyle=orthogonalEdgeStyle;rounded=0;orthogonalLoop=1;jettySize=auto;html=1;" parent="1" source="h90uzLbG_IrZYUISlAX0-31" target="h90uzLbG_IrZYUISlAX0-33" edge="1">
          <mxGeometry relative="1" as="geometry" />
        </mxCell>
        <mxCell id="h90uzLbG_IrZYUISlAX0-31" value="&lt;div&gt;it is something unexpected that causes production to idle.&lt;/div&gt;&lt;div&gt;e.g. power cut, strike, lock down.&lt;br&gt;&lt;/div&gt;" style="text;html=1;strokeColor=none;fillColor=none;align=center;verticalAlign=middle;whiteSpace=wrap;rounded=0;" parent="1" vertex="1">
          <mxGeometry x="440" y="550" width="200" height="50" as="geometry" />
        </mxCell>
        <mxCell id="h90uzLbG_IrZYUISlAX0-40" style="edgeStyle=orthogonalEdgeStyle;rounded=0;orthogonalLoop=1;jettySize=auto;html=1;" parent="1" source="h90uzLbG_IrZYUISlAX0-33" target="h90uzLbG_IrZYUISlAX0-37" edge="1">
          <mxGeometry relative="1" as="geometry" />
        </mxCell>
        <mxCell id="h90uzLbG_IrZYUISlAX0-33" value="Time allowed" style="rounded=1;whiteSpace=wrap;html=1;" parent="1" vertex="1">
          <mxGeometry x="360" y="640" width="120" height="40" as="geometry" />
        </mxCell>
        <mxCell id="h90uzLbG_IrZYUISlAX0-44" style="edgeStyle=orthogonalEdgeStyle;rounded=0;orthogonalLoop=1;jettySize=auto;html=1;" parent="1" source="h90uzLbG_IrZYUISlAX0-37" target="h90uzLbG_IrZYUISlAX0-42" edge="1">
          <mxGeometry relative="1" as="geometry" />
        </mxCell>
        <mxCell id="h90uzLbG_IrZYUISlAX0-45" style="edgeStyle=orthogonalEdgeStyle;rounded=0;orthogonalLoop=1;jettySize=auto;html=1;" parent="1" source="h90uzLbG_IrZYUISlAX0-37" target="h90uzLbG_IrZYUISlAX0-43" edge="1">
          <mxGeometry relative="1" as="geometry" />
        </mxCell>
        <mxCell id="h90uzLbG_IrZYUISlAX0-37" value="its is the maximum duration of time allowed to product 1 unit" style="text;html=1;strokeColor=none;fillColor=none;align=center;verticalAlign=middle;whiteSpace=wrap;rounded=0;" parent="1" vertex="1">
          <mxGeometry x="300" y="700" width="240" height="40" as="geometry" />
        </mxCell>
        <mxCell id="h90uzLbG_IrZYUISlAX0-47" style="edgeStyle=orthogonalEdgeStyle;rounded=0;orthogonalLoop=1;jettySize=auto;html=1;" parent="1" source="h90uzLbG_IrZYUISlAX0-42" target="h90uzLbG_IrZYUISlAX0-46" edge="1">
          <mxGeometry relative="1" as="geometry" />
        </mxCell>
        <mxCell id="h90uzLbG_IrZYUISlAX0-42" value="Standard time" style="rounded=1;whiteSpace=wrap;html=1;" parent="1" vertex="1">
          <mxGeometry x="240" y="780" width="120" height="40" as="geometry" />
        </mxCell>
        <mxCell id="h90uzLbG_IrZYUISlAX0-49" style="edgeStyle=orthogonalEdgeStyle;rounded=0;orthogonalLoop=1;jettySize=auto;html=1;" parent="1" source="h90uzLbG_IrZYUISlAX0-43" target="h90uzLbG_IrZYUISlAX0-48" edge="1">
          <mxGeometry relative="1" as="geometry" />
        </mxCell>
        <mxCell id="h90uzLbG_IrZYUISlAX0-43" value="&lt;div&gt;standard output&lt;/div&gt;&lt;font style=&quot;font-size: 8px&quot;&gt;(standard production)&lt;/font&gt;" style="rounded=1;whiteSpace=wrap;html=1;" parent="1" vertex="1">
          <mxGeometry x="480" y="780" width="120" height="40" as="geometry" />
        </mxCell>
        <mxCell id="h90uzLbG_IrZYUISlAX0-52" style="edgeStyle=orthogonalEdgeStyle;rounded=0;orthogonalLoop=1;jettySize=auto;html=1;" parent="1" source="h90uzLbG_IrZYUISlAX0-46" target="h90uzLbG_IrZYUISlAX0-50" edge="1">
          <mxGeometry relative="1" as="geometry" />
        </mxCell>
        <mxCell id="h90uzLbG_IrZYUISlAX0-46" value="the mutually agreed fixed time to produce x number of units" style="text;html=1;strokeColor=none;fillColor=none;align=center;verticalAlign=middle;whiteSpace=wrap;rounded=0;" parent="1" vertex="1">
          <mxGeometry x="200" y="840" width="200" height="50" as="geometry" />
        </mxCell>
        <mxCell id="h90uzLbG_IrZYUISlAX0-51" style="edgeStyle=orthogonalEdgeStyle;rounded=0;orthogonalLoop=1;jettySize=auto;html=1;" parent="1" source="h90uzLbG_IrZYUISlAX0-48" target="h90uzLbG_IrZYUISlAX0-50" edge="1">
          <mxGeometry relative="1" as="geometry" />
        </mxCell>
        <mxCell id="h90uzLbG_IrZYUISlAX0-48" value="the mutually agreed fixed number of unit to be produced in x number of minutes/hours" style="text;html=1;strokeColor=none;fillColor=none;align=center;verticalAlign=middle;whiteSpace=wrap;rounded=0;" parent="1" vertex="1">
          <mxGeometry x="440" y="840" width="200" height="50" as="geometry" />
        </mxCell>
        <mxCell id="h90uzLbG_IrZYUISlAX0-56" style="edgeStyle=orthogonalEdgeStyle;rounded=0;orthogonalLoop=1;jettySize=auto;html=1;" parent="1" source="h90uzLbG_IrZYUISlAX0-50" target="h90uzLbG_IrZYUISlAX0-53" edge="1">
          <mxGeometry relative="1" as="geometry" />
        </mxCell>
        <mxCell id="h90uzLbG_IrZYUISlAX0-57" style="edgeStyle=orthogonalEdgeStyle;rounded=0;orthogonalLoop=1;jettySize=auto;html=1;" parent="1" source="h90uzLbG_IrZYUISlAX0-50" target="h90uzLbG_IrZYUISlAX0-54" edge="1">
          <mxGeometry relative="1" as="geometry" />
        </mxCell>
        <mxCell id="h90uzLbG_IrZYUISlAX0-50" value="Time taken" style="rounded=1;whiteSpace=wrap;html=1;" parent="1" vertex="1">
          <mxGeometry x="360" y="930" width="120" height="40" as="geometry" />
        </mxCell>
        <mxCell id="h90uzLbG_IrZYUISlAX0-61" style="edgeStyle=orthogonalEdgeStyle;rounded=0;orthogonalLoop=1;jettySize=auto;html=1;" parent="1" source="h90uzLbG_IrZYUISlAX0-53" target="h90uzLbG_IrZYUISlAX0-60" edge="1">
          <mxGeometry relative="1" as="geometry" />
        </mxCell>
        <mxCell id="h90uzLbG_IrZYUISlAX0-53" value="Actual time" style="rounded=1;whiteSpace=wrap;html=1;" parent="1" vertex="1">
          <mxGeometry x="240" y="1010" width="120" height="40" as="geometry" />
        </mxCell>
        <mxCell id="h90uzLbG_IrZYUISlAX0-63" style="edgeStyle=orthogonalEdgeStyle;rounded=0;orthogonalLoop=1;jettySize=auto;html=1;" parent="1" source="h90uzLbG_IrZYUISlAX0-54" target="h90uzLbG_IrZYUISlAX0-62" edge="1">
          <mxGeometry relative="1" as="geometry" />
        </mxCell>
        <mxCell id="h90uzLbG_IrZYUISlAX0-54" value="&lt;div&gt;Actual output&lt;/div&gt;&lt;font style=&quot;font-size: 8px&quot;&gt;(Actual production)&lt;/font&gt;" style="rounded=1;whiteSpace=wrap;html=1;" parent="1" vertex="1">
          <mxGeometry x="480" y="1010" width="120" height="40" as="geometry" />
        </mxCell>
        <mxCell id="h90uzLbG_IrZYUISlAX0-68" style="edgeStyle=orthogonalEdgeStyle;rounded=0;orthogonalLoop=1;jettySize=auto;html=1;" parent="1" source="h90uzLbG_IrZYUISlAX0-60" target="h90uzLbG_IrZYUISlAX0-66" edge="1">
          <mxGeometry relative="1" as="geometry" />
        </mxCell>
        <mxCell id="h90uzLbG_IrZYUISlAX0-60" value="the actual time take to produce x units" style="text;html=1;strokeColor=none;fillColor=none;align=center;verticalAlign=middle;whiteSpace=wrap;rounded=0;" parent="1" vertex="1">
          <mxGeometry x="200" y="1070" width="200" height="30" as="geometry" />
        </mxCell>
        <mxCell id="h90uzLbG_IrZYUISlAX0-67" style="edgeStyle=orthogonalEdgeStyle;rounded=0;orthogonalLoop=1;jettySize=auto;html=1;" parent="1" source="h90uzLbG_IrZYUISlAX0-62" target="h90uzLbG_IrZYUISlAX0-66" edge="1">
          <mxGeometry relative="1" as="geometry" />
        </mxCell>
        <mxCell id="h90uzLbG_IrZYUISlAX0-62" value="the actual output in y minutes/hours" style="text;html=1;strokeColor=none;fillColor=none;align=center;verticalAlign=middle;whiteSpace=wrap;rounded=0;" parent="1" vertex="1">
          <mxGeometry x="440" y="1070" width="200" height="30" as="geometry" />
        </mxCell>
        <mxCell id="h90uzLbG_IrZYUISlAX0-71" style="edgeStyle=orthogonalEdgeStyle;rounded=0;orthogonalLoop=1;jettySize=auto;html=1;" parent="1" source="h90uzLbG_IrZYUISlAX0-66" target="h90uzLbG_IrZYUISlAX0-69" edge="1">
          <mxGeometry relative="1" as="geometry" />
        </mxCell>
        <mxCell id="h90uzLbG_IrZYUISlAX0-72" style="edgeStyle=orthogonalEdgeStyle;rounded=0;orthogonalLoop=1;jettySize=auto;html=1;" parent="1" source="h90uzLbG_IrZYUISlAX0-66" target="h90uzLbG_IrZYUISlAX0-70" edge="1">
          <mxGeometry relative="1" as="geometry" />
        </mxCell>
        <mxCell id="h90uzLbG_IrZYUISlAX0-66" value="Savings" style="rounded=1;whiteSpace=wrap;html=1;" parent="1" vertex="1">
          <mxGeometry x="360" y="1140" width="120" height="40" as="geometry" />
        </mxCell>
        <mxCell id="h90uzLbG_IrZYUISlAX0-74" style="edgeStyle=orthogonalEdgeStyle;rounded=0;orthogonalLoop=1;jettySize=auto;html=1;" parent="1" source="h90uzLbG_IrZYUISlAX0-69" target="h90uzLbG_IrZYUISlAX0-73" edge="1">
          <mxGeometry relative="1" as="geometry" />
        </mxCell>
        <mxCell id="h90uzLbG_IrZYUISlAX0-69" value="Time saved" style="rounded=1;whiteSpace=wrap;html=1;" parent="1" vertex="1">
          <mxGeometry x="160" y="1220" width="120" height="40" as="geometry" />
        </mxCell>
        <mxCell id="h90uzLbG_IrZYUISlAX0-76" style="edgeStyle=orthogonalEdgeStyle;rounded=0;orthogonalLoop=1;jettySize=auto;html=1;" parent="1" source="h90uzLbG_IrZYUISlAX0-70" target="h90uzLbG_IrZYUISlAX0-75" edge="1">
          <mxGeometry relative="1" as="geometry" />
        </mxCell>
        <mxCell id="h90uzLbG_IrZYUISlAX0-70" value="Excess production" style="rounded=1;whiteSpace=wrap;html=1;" parent="1" vertex="1">
          <mxGeometry x="559" y="1217" width="120" height="40" as="geometry" />
        </mxCell>
        <mxCell id="h90uzLbG_IrZYUISlAX0-82" style="edgeStyle=orthogonalEdgeStyle;rounded=0;orthogonalLoop=1;jettySize=auto;html=1;entryX=0.5;entryY=0;entryDx=0;entryDy=0;" parent="1" source="h90uzLbG_IrZYUISlAX0-73" target="h90uzLbG_IrZYUISlAX0-80" edge="1">
          <mxGeometry relative="1" as="geometry" />
        </mxCell>
        <mxCell id="h90uzLbG_IrZYUISlAX0-73" value="the actual time take to produce x units" style="text;html=1;strokeColor=none;fillColor=none;align=center;verticalAlign=middle;whiteSpace=wrap;rounded=0;" parent="1" vertex="1">
          <mxGeometry x="120" y="1280" width="200" height="40" as="geometry" />
        </mxCell>
        <mxCell id="h90uzLbG_IrZYUISlAX0-84" style="edgeStyle=orthogonalEdgeStyle;rounded=0;orthogonalLoop=1;jettySize=auto;html=1;" parent="1" source="h90uzLbG_IrZYUISlAX0-75" target="h90uzLbG_IrZYUISlAX0-83" edge="1">
          <mxGeometry relative="1" as="geometry" />
        </mxCell>
        <mxCell id="h90uzLbG_IrZYUISlAX0-75" value="the actual time take to produce x units" style="text;html=1;strokeColor=none;fillColor=none;align=center;verticalAlign=middle;whiteSpace=wrap;rounded=0;" parent="1" vertex="1">
          <mxGeometry x="519" y="1277" width="200" height="40" as="geometry" />
        </mxCell>
        <mxCell id="h90uzLbG_IrZYUISlAX0-87" style="edgeStyle=orthogonalEdgeStyle;rounded=0;orthogonalLoop=1;jettySize=auto;html=1;" parent="1" source="h90uzLbG_IrZYUISlAX0-80" target="h90uzLbG_IrZYUISlAX0-85" edge="1">
          <mxGeometry relative="1" as="geometry">
            <Array as="points">
              <mxPoint x="220" y="1380" />
              <mxPoint x="420" y="1380" />
            </Array>
          </mxGeometry>
        </mxCell>
        <mxCell id="h90uzLbG_IrZYUISlAX0-80" value="Time saved = Time allowed - Time taken" style="rounded=0;whiteSpace=wrap;html=1;" parent="1" vertex="1">
          <mxGeometry x="110" y="1340" width="220" height="20" as="geometry" />
        </mxCell>
        <mxCell id="h90uzLbG_IrZYUISlAX0-86" style="edgeStyle=orthogonalEdgeStyle;rounded=0;orthogonalLoop=1;jettySize=auto;html=1;" parent="1" source="h90uzLbG_IrZYUISlAX0-83" target="h90uzLbG_IrZYUISlAX0-85" edge="1">
          <mxGeometry relative="1" as="geometry">
            <Array as="points">
              <mxPoint x="619" y="1380" />
              <mxPoint x="420" y="1380" />
            </Array>
          </mxGeometry>
        </mxCell>
        <mxCell id="h90uzLbG_IrZYUISlAX0-83" value="Excess production = standard production - actual production" style="rounded=0;whiteSpace=wrap;html=1;" parent="1" vertex="1">
          <mxGeometry x="454" y="1337" width="330" height="20" as="geometry" />
        </mxCell>
        <mxCell id="h90uzLbG_IrZYUISlAX0-90" style="edgeStyle=orthogonalEdgeStyle;rounded=0;orthogonalLoop=1;jettySize=auto;html=1;" parent="1" source="h90uzLbG_IrZYUISlAX0-85" target="h90uzLbG_IrZYUISlAX0-88" edge="1">
          <mxGeometry relative="1" as="geometry" />
        </mxCell>
        <mxCell id="h90uzLbG_IrZYUISlAX0-85" value="Efficiency" style="rounded=1;whiteSpace=wrap;html=1;" parent="1" vertex="1">
          <mxGeometry x="360" y="1400" width="120" height="40" as="geometry" />
        </mxCell>
        <mxCell id="h90uzLbG_IrZYUISlAX0-91" style="edgeStyle=orthogonalEdgeStyle;rounded=0;orthogonalLoop=1;jettySize=auto;html=1;" parent="1" source="h90uzLbG_IrZYUISlAX0-88" target="h90uzLbG_IrZYUISlAX0-89" edge="1">
          <mxGeometry relative="1" as="geometry" />
        </mxCell>
        <mxCell id="h90uzLbG_IrZYUISlAX0-88" value="&lt;div&gt;&lt;u&gt;Based on production&lt;/u&gt;&lt;/div&gt;&lt;div&gt;&lt;u&gt;&lt;br&gt;&lt;/u&gt;&lt;/div&gt;&lt;div&gt;`\text{actual production}/\text{standard production}*100`&lt;br&gt;&lt;/div&gt;" style="rounded=1;whiteSpace=wrap;html=1;" parent="1" vertex="1">
          <mxGeometry x="280" y="1460" width="280" height="80" as="geometry" />
        </mxCell>
        <mxCell id="h90uzLbG_IrZYUISlAX0-97" style="edgeStyle=orthogonalEdgeStyle;rounded=0;orthogonalLoop=1;jettySize=auto;html=1;" parent="1" source="h90uzLbG_IrZYUISlAX0-89" target="h90uzLbG_IrZYUISlAX0-92" edge="1">
          <mxGeometry relative="1" as="geometry" />
        </mxCell>
        <mxCell id="h90uzLbG_IrZYUISlAX0-89" value="&lt;div&gt;&lt;u&gt;Based on time&lt;br&gt;&lt;/u&gt;&lt;/div&gt;&lt;div&gt;&lt;u&gt;&lt;br&gt;&lt;/u&gt;&lt;/div&gt;&lt;div&gt;`\text{standard time}/\text{actual time}*100`&lt;br&gt;&lt;/div&gt;" style="rounded=1;whiteSpace=wrap;html=1;" parent="1" vertex="1">
          <mxGeometry x="280" y="1560" width="280" height="80" as="geometry" />
        </mxCell>
        <mxCell id="h90uzLbG_IrZYUISlAX0-94" style="edgeStyle=orthogonalEdgeStyle;rounded=0;orthogonalLoop=1;jettySize=auto;html=1;" parent="1" source="h90uzLbG_IrZYUISlAX0-92" target="h90uzLbG_IrZYUISlAX0-93" edge="1">
          <mxGeometry relative="1" as="geometry" />
        </mxCell>
        <mxCell id="z-59XEyfP9iaRcQ-5U2--3" style="edgeStyle=orthogonalEdgeStyle;rounded=0;orthogonalLoop=1;jettySize=auto;html=1;" parent="1" source="h90uzLbG_IrZYUISlAX0-92" target="z-59XEyfP9iaRcQ-5U2--1" edge="1">
          <mxGeometry relative="1" as="geometry" />
        </mxCell>
        <mxCell id="h90uzLbG_IrZYUISlAX0-92" value="&lt;div&gt;&lt;u&gt;total wages&lt;br&gt;&lt;/u&gt;&lt;/div&gt;&lt;div&gt;&lt;u&gt;&lt;br&gt;&lt;/u&gt;&lt;/div&gt;&lt;div&gt;`\text{basic wages}+\text{bonus}`&lt;br&gt;&lt;/div&gt;" style="rounded=1;whiteSpace=wrap;html=1;" parent="1" vertex="1">
          <mxGeometry x="280" y="1660" width="280" height="80" as="geometry" />
        </mxCell>
        <mxCell id="h90uzLbG_IrZYUISlAX0-96" style="edgeStyle=orthogonalEdgeStyle;rounded=0;orthogonalLoop=1;jettySize=auto;html=1;" parent="1" source="h90uzLbG_IrZYUISlAX0-93" target="h90uzLbG_IrZYUISlAX0-95" edge="1">
          <mxGeometry relative="1" as="geometry" />
        </mxCell>
        <mxCell id="h90uzLbG_IrZYUISlAX0-93" value="&lt;div&gt;&lt;u&gt;effective rate per hour&lt;br&gt;&lt;/u&gt;&lt;/div&gt;&lt;div&gt;&lt;u&gt;&lt;br&gt;&lt;/u&gt;&lt;/div&gt;&lt;div&gt;`\text{total wages}/\text{time taken(Excluding normal idle time)}`&lt;br&gt;&lt;/div&gt;" style="rounded=1;whiteSpace=wrap;html=1;" parent="1" vertex="1">
          <mxGeometry x="80" y="1780" width="330" height="80" as="geometry" />
        </mxCell>
        <mxCell id="h90uzLbG_IrZYUISlAX0-100" style="edgeStyle=orthogonalEdgeStyle;rounded=0;orthogonalLoop=1;jettySize=auto;html=1;" parent="1" source="h90uzLbG_IrZYUISlAX0-95" target="h90uzLbG_IrZYUISlAX0-98" edge="1">
          <mxGeometry relative="1" as="geometry" />
        </mxCell>
        <mxCell id="h90uzLbG_IrZYUISlAX0-101" style="edgeStyle=orthogonalEdgeStyle;rounded=0;orthogonalLoop=1;jettySize=auto;html=1;" parent="1" source="h90uzLbG_IrZYUISlAX0-95" target="h90uzLbG_IrZYUISlAX0-99" edge="1">
          <mxGeometry relative="1" as="geometry" />
        </mxCell>
        <mxCell id="h90uzLbG_IrZYUISlAX0-95" value="Payment systems" style="shape=hexagon;perimeter=hexagonPerimeter2;whiteSpace=wrap;html=1;fixedSize=1;" parent="1" vertex="1">
          <mxGeometry x="360" y="1900" width="120" height="40" as="geometry" />
        </mxCell>
        <mxCell id="h90uzLbG_IrZYUISlAX0-103" style="edgeStyle=orthogonalEdgeStyle;rounded=0;orthogonalLoop=1;jettySize=auto;html=1;" parent="1" source="h90uzLbG_IrZYUISlAX0-98" target="h90uzLbG_IrZYUISlAX0-102" edge="1">
          <mxGeometry relative="1" as="geometry" />
        </mxCell>
        <mxCell id="h90uzLbG_IrZYUISlAX0-98" value="Time rate system" style="rounded=1;whiteSpace=wrap;html=1;" parent="1" vertex="1">
          <mxGeometry x="160" y="1980" width="120" height="40" as="geometry" />
        </mxCell>
        <mxCell id="h90uzLbG_IrZYUISlAX0-105" style="edgeStyle=orthogonalEdgeStyle;rounded=0;orthogonalLoop=1;jettySize=auto;html=1;" parent="1" source="h90uzLbG_IrZYUISlAX0-99" target="h90uzLbG_IrZYUISlAX0-104" edge="1">
          <mxGeometry relative="1" as="geometry" />
        </mxCell>
        <mxCell id="h90uzLbG_IrZYUISlAX0-99" value="Piece rate system" style="rounded=1;whiteSpace=wrap;html=1;" parent="1" vertex="1">
          <mxGeometry x="560" y="1980" width="120" height="40" as="geometry" />
        </mxCell>
        <mxCell id="h90uzLbG_IrZYUISlAX0-107" style="edgeStyle=orthogonalEdgeStyle;rounded=0;orthogonalLoop=1;jettySize=auto;html=1;" parent="1" source="h90uzLbG_IrZYUISlAX0-102" target="h90uzLbG_IrZYUISlAX0-106" edge="1">
          <mxGeometry relative="1" as="geometry" />
        </mxCell>
        <mxCell id="h90uzLbG_IrZYUISlAX0-102" value="it is based on number of hours worked" style="text;html=1;strokeColor=none;fillColor=none;align=center;verticalAlign=middle;whiteSpace=wrap;rounded=0;" parent="1" vertex="1">
          <mxGeometry x="80" y="2040" width="280" height="20" as="geometry" />
        </mxCell>
        <mxCell id="h90uzLbG_IrZYUISlAX0-111" style="edgeStyle=orthogonalEdgeStyle;rounded=0;orthogonalLoop=1;jettySize=auto;html=1;" parent="1" source="h90uzLbG_IrZYUISlAX0-104" target="h90uzLbG_IrZYUISlAX0-110" edge="1">
          <mxGeometry relative="1" as="geometry" />
        </mxCell>
        <mxCell id="h90uzLbG_IrZYUISlAX0-104" value="it is based on output/production" style="text;html=1;strokeColor=none;fillColor=none;align=center;verticalAlign=middle;whiteSpace=wrap;rounded=0;" parent="1" vertex="1">
          <mxGeometry x="480" y="2040" width="280" height="20" as="geometry" />
        </mxCell>
        <mxCell id="h90uzLbG_IrZYUISlAX0-115" style="edgeStyle=orthogonalEdgeStyle;rounded=0;orthogonalLoop=1;jettySize=auto;html=1;entryX=0.5;entryY=0;entryDx=0;entryDy=0;" parent="1" source="h90uzLbG_IrZYUISlAX0-106" target="h90uzLbG_IrZYUISlAX0-114" edge="1">
          <mxGeometry relative="1" as="geometry" />
        </mxCell>
        <mxCell id="h90uzLbG_IrZYUISlAX0-106" value="basic wages = time taken * rate per hour" style="rounded=0;whiteSpace=wrap;html=1;" parent="1" vertex="1">
          <mxGeometry x="95" y="2080" width="250" height="30" as="geometry" />
        </mxCell>
        <mxCell id="h90uzLbG_IrZYUISlAX0-147" style="edgeStyle=orthogonalEdgeStyle;curved=1;rounded=0;orthogonalLoop=1;jettySize=auto;html=1;" parent="1" source="h90uzLbG_IrZYUISlAX0-108" target="h90uzLbG_IrZYUISlAX0-130" edge="1">
          <mxGeometry relative="1" as="geometry">
            <Array as="points">
              <mxPoint x="620" y="2580" />
              <mxPoint x="380" y="2580" />
            </Array>
          </mxGeometry>
        </mxCell>
        <mxCell id="h90uzLbG_IrZYUISlAX0-108" value="wages = actual production * rate per unit" style="rounded=0;whiteSpace=wrap;html=1;" parent="1" vertex="1">
          <mxGeometry x="495" y="2180" width="250" height="30" as="geometry" />
        </mxCell>
        <mxCell id="h90uzLbG_IrZYUISlAX0-113" style="edgeStyle=orthogonalEdgeStyle;rounded=0;orthogonalLoop=1;jettySize=auto;html=1;entryX=0.5;entryY=0;entryDx=0;entryDy=0;" parent="1" source="h90uzLbG_IrZYUISlAX0-110" target="h90uzLbG_IrZYUISlAX0-108" edge="1">
          <mxGeometry relative="1" as="geometry" />
        </mxCell>
        <mxCell id="h90uzLbG_IrZYUISlAX0-110" value="&lt;div&gt;&lt;u&gt;rate per unit&lt;br&gt;&lt;/u&gt;&lt;/div&gt;&lt;div&gt;&lt;u&gt;&lt;br&gt;&lt;/u&gt;&lt;/div&gt;&lt;div&gt;`\text{rate per hour}/\text{standard output per hour}`&lt;br&gt;&lt;/div&gt;" style="rounded=1;whiteSpace=wrap;html=1;" parent="1" vertex="1">
          <mxGeometry x="480" y="2080" width="280" height="80" as="geometry" />
        </mxCell>
        <mxCell id="h90uzLbG_IrZYUISlAX0-118" style="edgeStyle=orthogonalEdgeStyle;rounded=0;orthogonalLoop=1;jettySize=auto;html=1;" parent="1" source="h90uzLbG_IrZYUISlAX0-114" target="h90uzLbG_IrZYUISlAX0-117" edge="1">
          <mxGeometry relative="1" as="geometry" />
        </mxCell>
        <mxCell id="h90uzLbG_IrZYUISlAX0-119" style="edgeStyle=orthogonalEdgeStyle;rounded=0;orthogonalLoop=1;jettySize=auto;html=1;" parent="1" source="h90uzLbG_IrZYUISlAX0-114" target="h90uzLbG_IrZYUISlAX0-116" edge="1">
          <mxGeometry relative="1" as="geometry" />
        </mxCell>
        <mxCell id="h90uzLbG_IrZYUISlAX0-114" value="&lt;u&gt;&lt;b&gt;Bonus&lt;/b&gt;&lt;/u&gt;" style="rounded=1;whiteSpace=wrap;html=1;" parent="1" vertex="1">
          <mxGeometry x="160" y="2180" width="120" height="40" as="geometry" />
        </mxCell>
        <mxCell id="h90uzLbG_IrZYUISlAX0-123" style="edgeStyle=orthogonalEdgeStyle;rounded=0;orthogonalLoop=1;jettySize=auto;html=1;" parent="1" source="h90uzLbG_IrZYUISlAX0-116" target="h90uzLbG_IrZYUISlAX0-122" edge="1">
          <mxGeometry relative="1" as="geometry" />
        </mxCell>
        <mxCell id="h90uzLbG_IrZYUISlAX0-116" value="Halsey system" style="rounded=1;whiteSpace=wrap;html=1;" parent="1" vertex="1">
          <mxGeometry y="2260" width="120" height="40" as="geometry" />
        </mxCell>
        <mxCell id="h90uzLbG_IrZYUISlAX0-126" style="edgeStyle=orthogonalEdgeStyle;rounded=0;orthogonalLoop=1;jettySize=auto;html=1;" parent="1" source="h90uzLbG_IrZYUISlAX0-117" target="h90uzLbG_IrZYUISlAX0-125" edge="1">
          <mxGeometry relative="1" as="geometry" />
        </mxCell>
        <mxCell id="h90uzLbG_IrZYUISlAX0-117" value="Rowan system" style="rounded=1;whiteSpace=wrap;html=1;" parent="1" vertex="1">
          <mxGeometry x="320" y="2260" width="120" height="40" as="geometry" />
        </mxCell>
        <mxCell id="h90uzLbG_IrZYUISlAX0-148" style="edgeStyle=orthogonalEdgeStyle;curved=1;rounded=0;orthogonalLoop=1;jettySize=auto;html=1;entryX=0.5;entryY=0;entryDx=0;entryDy=0;" parent="1" source="h90uzLbG_IrZYUISlAX0-122" target="h90uzLbG_IrZYUISlAX0-130" edge="1">
          <mxGeometry relative="1" as="geometry">
            <Array as="points">
              <mxPoint x="60" y="2580" />
              <mxPoint x="380" y="2580" />
            </Array>
          </mxGeometry>
        </mxCell>
        <mxCell id="h90uzLbG_IrZYUISlAX0-122" value="&lt;div&gt;&lt;u&gt;Bonus =&lt;br&gt;&lt;/u&gt;&lt;/div&gt;&lt;div&gt;&lt;u&gt;&lt;br&gt;&lt;/u&gt;&lt;/div&gt;&lt;div&gt;`50%*\text{Time saved}*\text{Rate/Hour}`&lt;br&gt;&lt;/div&gt;" style="rounded=1;whiteSpace=wrap;html=1;" parent="1" vertex="1">
          <mxGeometry x="-80" y="2330" width="280" height="80" as="geometry" />
        </mxCell>
        <mxCell id="h90uzLbG_IrZYUISlAX0-142" style="edgeStyle=orthogonalEdgeStyle;curved=1;rounded=0;orthogonalLoop=1;jettySize=auto;html=1;" parent="1" source="h90uzLbG_IrZYUISlAX0-124" target="h90uzLbG_IrZYUISlAX0-130" edge="1">
          <mxGeometry relative="1" as="geometry" />
        </mxCell>
        <mxCell id="h90uzLbG_IrZYUISlAX0-124" value="&lt;div&gt;&lt;u&gt;Bonus =&lt;br&gt;&lt;/u&gt;&lt;/div&gt;&lt;div&gt;&lt;u&gt;&lt;br&gt;&lt;/u&gt;&lt;/div&gt;&lt;div&gt;`\text{Time saved}/\text{Time allowed}*\text{Basic wages}`&lt;br&gt;&lt;/div&gt;" style="rounded=1;whiteSpace=wrap;html=1;" parent="1" vertex="1">
          <mxGeometry x="270" y="2440" width="220" height="80" as="geometry" />
        </mxCell>
        <mxCell id="h90uzLbG_IrZYUISlAX0-128" style="edgeStyle=orthogonalEdgeStyle;rounded=0;orthogonalLoop=1;jettySize=auto;html=1;" parent="1" source="h90uzLbG_IrZYUISlAX0-125" target="h90uzLbG_IrZYUISlAX0-127" edge="1">
          <mxGeometry relative="1" as="geometry" />
        </mxCell>
        <mxCell id="h90uzLbG_IrZYUISlAX0-125" value="time allowed = No. of units produced * standard time" style="rounded=0;whiteSpace=wrap;html=1;" parent="1" vertex="1">
          <mxGeometry x="229.5" y="2320" width="301" height="40" as="geometry" />
        </mxCell>
        <mxCell id="h90uzLbG_IrZYUISlAX0-129" style="edgeStyle=orthogonalEdgeStyle;rounded=0;orthogonalLoop=1;jettySize=auto;html=1;" parent="1" source="h90uzLbG_IrZYUISlAX0-127" target="h90uzLbG_IrZYUISlAX0-124" edge="1">
          <mxGeometry relative="1" as="geometry" />
        </mxCell>
        <mxCell id="h90uzLbG_IrZYUISlAX0-127" value="time saved = excess units * standard time" style="rounded=0;whiteSpace=wrap;html=1;" parent="1" vertex="1">
          <mxGeometry x="229.5" y="2380" width="301" height="40" as="geometry" />
        </mxCell>
        <mxCell id="4Gh-3FB3gp2eRBAiM5g2-4" style="edgeStyle=orthogonalEdgeStyle;rounded=0;orthogonalLoop=1;jettySize=auto;html=1;" parent="1" source="h90uzLbG_IrZYUISlAX0-130" target="4Gh-3FB3gp2eRBAiM5g2-1" edge="1">
          <mxGeometry relative="1" as="geometry" />
        </mxCell>
        <mxCell id="h90uzLbG_IrZYUISlAX0-130" value="`\text{Factory cost} =\text{Material cost} + \text{labour} + \text{factory overhead}`" style="rounded=1;whiteSpace=wrap;html=1;" parent="1" vertex="1">
          <mxGeometry x="162.5" y="2620" width="435" height="40" as="geometry" />
        </mxCell>
        <mxCell id="4Gh-3FB3gp2eRBAiM5g2-3" style="edgeStyle=orthogonalEdgeStyle;rounded=0;orthogonalLoop=1;jettySize=auto;html=1;" parent="1" source="4Gh-3FB3gp2eRBAiM5g2-1" target="4Gh-3FB3gp2eRBAiM5g2-2" edge="1">
          <mxGeometry relative="1" as="geometry" />
        </mxCell>
        <mxCell id="4Gh-3FB3gp2eRBAiM5g2-1" value="Employee turnover" style="shape=hexagon;perimeter=hexagonPerimeter2;whiteSpace=wrap;html=1;fixedSize=1;fontFamily=Helvetica;fontSize=12;fontColor=#000000;align=center;strokeColor=#000000;fillColor=#ffffff;" parent="1" vertex="1">
          <mxGeometry x="320" y="2680" width="120" height="40" as="geometry" />
        </mxCell>
        <mxCell id="4Gh-3FB3gp2eRBAiM5g2-6" style="edgeStyle=orthogonalEdgeStyle;rounded=0;orthogonalLoop=1;jettySize=auto;html=1;" parent="1" source="4Gh-3FB3gp2eRBAiM5g2-2" target="4Gh-3FB3gp2eRBAiM5g2-5" edge="1">
          <mxGeometry relative="1" as="geometry" />
        </mxCell>
        <mxCell id="4Gh-3FB3gp2eRBAiM5g2-2" value="Employee turnover refers to the number or percentage of workers who leave an organization and are replaced by new employees" style="text;html=1;strokeColor=none;fillColor=none;align=center;verticalAlign=middle;whiteSpace=wrap;rounded=0;" parent="1" vertex="1">
          <mxGeometry x="200" y="2740" width="360" height="40" as="geometry" />
        </mxCell>
        <mxCell id="4Gh-3FB3gp2eRBAiM5g2-8" style="edgeStyle=orthogonalEdgeStyle;rounded=0;orthogonalLoop=1;jettySize=auto;html=1;" parent="1" source="4Gh-3FB3gp2eRBAiM5g2-5" target="4Gh-3FB3gp2eRBAiM5g2-7" edge="1">
          <mxGeometry relative="1" as="geometry" />
        </mxCell>
        <mxCell id="4Gh-3FB3gp2eRBAiM5g2-5" value="Average number of worker in a year =&amp;nbsp;&lt;br&gt;&lt;br&gt;`(\text{number of workers in the beginning}+\text{number of workers in the end})/2`" style="rounded=1;whiteSpace=wrap;html=1;" parent="1" vertex="1">
          <mxGeometry x="120" y="2800" width="520" height="80" as="geometry" />
        </mxCell>
        <mxCell id="4Gh-3FB3gp2eRBAiM5g2-12" style="edgeStyle=orthogonalEdgeStyle;rounded=0;orthogonalLoop=1;jettySize=auto;html=1;" parent="1" source="4Gh-3FB3gp2eRBAiM5g2-7" target="4Gh-3FB3gp2eRBAiM5g2-9" edge="1">
          <mxGeometry relative="1" as="geometry" />
        </mxCell>
        <mxCell id="4Gh-3FB3gp2eRBAiM5g2-13" style="edgeStyle=orthogonalEdgeStyle;rounded=0;orthogonalLoop=1;jettySize=auto;html=1;" parent="1" source="4Gh-3FB3gp2eRBAiM5g2-7" target="4Gh-3FB3gp2eRBAiM5g2-10" edge="1">
          <mxGeometry relative="1" as="geometry" />
        </mxCell>
        <mxCell id="4Gh-3FB3gp2eRBAiM5g2-14" style="edgeStyle=orthogonalEdgeStyle;rounded=0;orthogonalLoop=1;jettySize=auto;html=1;" parent="1" source="4Gh-3FB3gp2eRBAiM5g2-7" target="4Gh-3FB3gp2eRBAiM5g2-11" edge="1">
          <mxGeometry relative="1" as="geometry" />
        </mxCell>
        <mxCell id="z-59XEyfP9iaRcQ-5U2--17" style="edgeStyle=orthogonalEdgeStyle;rounded=0;orthogonalLoop=1;jettySize=auto;html=1;entryX=0.5;entryY=0;entryDx=0;entryDy=0;" parent="1" source="4Gh-3FB3gp2eRBAiM5g2-7" target="z-59XEyfP9iaRcQ-5U2--5" edge="1">
          <mxGeometry relative="1" as="geometry" />
        </mxCell>
        <mxCell id="3-6Nx52u8A8c99mfQjMN-4" style="edgeStyle=orthogonalEdgeStyle;rounded=0;orthogonalLoop=1;jettySize=auto;html=1;entryX=0.5;entryY=0;entryDx=0;entryDy=0;" parent="1" source="4Gh-3FB3gp2eRBAiM5g2-7" target="3-6Nx52u8A8c99mfQjMN-2" edge="1">
          <mxGeometry relative="1" as="geometry" />
        </mxCell>
        <mxCell id="4Gh-3FB3gp2eRBAiM5g2-7" value="&lt;b&gt;&lt;u&gt;Methods of calculating employee turnover&lt;/u&gt;&lt;/b&gt;" style="text;html=1;strokeColor=none;fillColor=none;align=center;verticalAlign=middle;whiteSpace=wrap;rounded=0;" parent="1" vertex="1">
          <mxGeometry x="300" y="2900" width="160" height="40" as="geometry" />
        </mxCell>
        <mxCell id="z-59XEyfP9iaRcQ-5U2--16" style="edgeStyle=orthogonalEdgeStyle;rounded=0;orthogonalLoop=1;jettySize=auto;html=1;" parent="1" source="4Gh-3FB3gp2eRBAiM5g2-9" target="4Gh-3FB3gp2eRBAiM5g2-15" edge="1">
          <mxGeometry relative="1" as="geometry" />
        </mxCell>
        <mxCell id="4Gh-3FB3gp2eRBAiM5g2-9" value="Seperation method" style="rounded=1;whiteSpace=wrap;html=1;" parent="1" vertex="1">
          <mxGeometry x="-440" y="2980" width="120" height="40" as="geometry" />
        </mxCell>
        <mxCell id="z-59XEyfP9iaRcQ-5U2--15" style="edgeStyle=orthogonalEdgeStyle;rounded=0;orthogonalLoop=1;jettySize=auto;html=1;" parent="1" source="4Gh-3FB3gp2eRBAiM5g2-10" target="4Gh-3FB3gp2eRBAiM5g2-17" edge="1">
          <mxGeometry relative="1" as="geometry" />
        </mxCell>
        <mxCell id="4Gh-3FB3gp2eRBAiM5g2-10" value="Replacement method" style="rounded=1;whiteSpace=wrap;html=1;" parent="1" vertex="1">
          <mxGeometry x="-100" y="2980" width="120" height="40" as="geometry" />
        </mxCell>
        <mxCell id="z-59XEyfP9iaRcQ-5U2--14" style="edgeStyle=orthogonalEdgeStyle;rounded=0;orthogonalLoop=1;jettySize=auto;html=1;" parent="1" source="4Gh-3FB3gp2eRBAiM5g2-11" target="4Gh-3FB3gp2eRBAiM5g2-19" edge="1">
          <mxGeometry relative="1" as="geometry" />
        </mxCell>
        <mxCell id="4Gh-3FB3gp2eRBAiM5g2-11" value="Flux method" style="rounded=1;whiteSpace=wrap;html=1;" parent="1" vertex="1">
          <mxGeometry x="319.75" y="2980" width="120" height="40" as="geometry" />
        </mxCell>
        <mxCell id="4Gh-3FB3gp2eRBAiM5g2-15" value="`\text{number of workers seperated}/\text{average number of workeers in a year}*100`" style="rounded=1;whiteSpace=wrap;html=1;" parent="1" vertex="1">
          <mxGeometry x="-540" y="3040" width="320" height="80" as="geometry" />
        </mxCell>
        <mxCell id="4Gh-3FB3gp2eRBAiM5g2-17" value="`\text{number of workers replaced}/\text{average number of workeers in a year}*100`" style="rounded=1;whiteSpace=wrap;html=1;" parent="1" vertex="1">
          <mxGeometry x="-200" y="3040" width="320" height="80" as="geometry" />
        </mxCell>
        <mxCell id="4Gh-3FB3gp2eRBAiM5g2-19" value="`\text{number of workers replaced + number of workers seperated}/\text{average number of workeers in a year}*100`" style="rounded=1;whiteSpace=wrap;html=1;" parent="1" vertex="1">
          <mxGeometry x="140" y="3040" width="479.5" height="80" as="geometry" />
        </mxCell>
        <mxCell id="z-59XEyfP9iaRcQ-5U2--2" style="edgeStyle=orthogonalEdgeStyle;rounded=0;orthogonalLoop=1;jettySize=auto;html=1;" parent="1" source="z-59XEyfP9iaRcQ-5U2--1" target="h90uzLbG_IrZYUISlAX0-95" edge="1">
          <mxGeometry relative="1" as="geometry" />
        </mxCell>
        <mxCell id="z-59XEyfP9iaRcQ-5U2--1" value="&lt;div&gt;&lt;u&gt;Wage rate per hour&lt;br&gt;&lt;/u&gt;&lt;/div&gt;&lt;div&gt;&lt;u&gt;&lt;br&gt;&lt;/u&gt;&lt;/div&gt;&lt;div&gt;`\text{total wages}/\text{time taken(Including normal idle time)}`&lt;br&gt;&lt;/div&gt;" style="rounded=1;whiteSpace=wrap;html=1;" parent="1" vertex="1">
          <mxGeometry x="435" y="1780" width="330" height="80" as="geometry" />
        </mxCell>
        <mxCell id="z-59XEyfP9iaRcQ-5U2--7" style="edgeStyle=orthogonalEdgeStyle;rounded=0;orthogonalLoop=1;jettySize=auto;html=1;entryX=0.5;entryY=0;entryDx=0;entryDy=0;" parent="1" source="z-59XEyfP9iaRcQ-5U2--5" target="z-59XEyfP9iaRcQ-5U2--6" edge="1">
          <mxGeometry relative="1" as="geometry" />
        </mxCell>
        <mxCell id="z-59XEyfP9iaRcQ-5U2--5" value="Flux method" style="rounded=1;whiteSpace=wrap;html=1;" parent="1" vertex="1">
          <mxGeometry x="830.1199999999999" y="2980" width="120" height="40" as="geometry" />
        </mxCell>
        <mxCell id="z-59XEyfP9iaRcQ-5U2--10" style="edgeStyle=orthogonalEdgeStyle;rounded=0;orthogonalLoop=1;jettySize=auto;html=1;" parent="1" source="z-59XEyfP9iaRcQ-5U2--6" target="z-59XEyfP9iaRcQ-5U2--9" edge="1">
          <mxGeometry relative="1" as="geometry" />
        </mxCell>
        <mxCell id="z-59XEyfP9iaRcQ-5U2--6" value="employees newly recruited on account of expansion of an organization, are not considered for calculation of employee turnover. In this case use this formula" style="rounded=0;whiteSpace=wrap;html=1;" parent="1" vertex="1">
          <mxGeometry x="710.1199999999999" y="3040" width="360" height="50" as="geometry" />
        </mxCell>
        <mxCell id="z-59XEyfP9iaRcQ-5U2--9" value="&lt;div&gt;`\text{No. of Separation+ No. of Replacements+No. of new Joinings}/\text{Avg. no. of employees during the period on roll}*100`&lt;/div&gt;&lt;div&gt;&lt;br&gt;&lt;/div&gt;&lt;div&gt;or&lt;/div&gt;&lt;div&gt;&lt;br&gt;&lt;/div&gt;&lt;div&gt;`\text{No. of Separations+No. of Accessions}/\text{Average no. of employees during the period on roll}*100`&lt;/div&gt;" style="rounded=1;whiteSpace=wrap;html=1;" parent="1" vertex="1">
          <mxGeometry x="640.25" y="3110" width="499.75" height="150" as="geometry" />
        </mxCell>
        <mxCell id="3-6Nx52u8A8c99mfQjMN-1" style="edgeStyle=orthogonalEdgeStyle;rounded=0;orthogonalLoop=1;jettySize=auto;html=1;" parent="1" source="3-6Nx52u8A8c99mfQjMN-2" target="3-6Nx52u8A8c99mfQjMN-3" edge="1">
          <mxGeometry relative="1" as="geometry" />
        </mxCell>
        <mxCell id="3-6Nx52u8A8c99mfQjMN-2" value="Employee turnover due to new recruitment" style="rounded=1;whiteSpace=wrap;html=1;" parent="1" vertex="1">
          <mxGeometry x="1320" y="2980" width="180" height="40" as="geometry" />
        </mxCell>
        <mxCell id="3-6Nx52u8A8c99mfQjMN-3" value="`\text{Number of new employees&amp;nbsp; joining in a period (excluding replacements)}/\text{average number of workeers in a year}*100`" style="rounded=1;whiteSpace=wrap;html=1;" parent="1" vertex="1">
          <mxGeometry x="1160" y="3040" width="500" height="80" as="geometry" />
        </mxCell>
        <mxCell id="YOfady0k240_CXZ-rdd_-1" value="Halsey vs Rowan" style="swimlane;startSize=40;" vertex="1" collapsed="1" parent="1">
          <mxGeometry x="150" y="2260" width="120" height="40" as="geometry">
            <mxRectangle x="150" y="2260" width="910" height="540" as="alternateBounds" />
          </mxGeometry>
        </mxCell>
        <mxCell id="YOfady0k240_CXZ-rdd_-6" value="" style="rounded=0;whiteSpace=wrap;html=1;" vertex="1" parent="YOfady0k240_CXZ-rdd_-1">
          <mxGeometry y="40" width="910" height="500" as="geometry" />
        </mxCell>
        <mxCell id="YOfady0k240_CXZ-rdd_-2" value="" style="shape=image;verticalLabelPosition=bottom;labelBackgroundColor=#ffffff;verticalAlign=top;aspect=fixed;imageAspect=0;image=https://imgur.com/0ETcutI.png;" vertex="1" parent="YOfady0k240_CXZ-rdd_-1">
          <mxGeometry x="0.9999999999997726" y="50" width="520" height="201" as="geometry" />
        </mxCell>
        <mxCell id="YOfady0k240_CXZ-rdd_-3" value="" style="shape=image;verticalLabelPosition=bottom;labelBackgroundColor=#ffffff;verticalAlign=top;aspect=fixed;imageAspect=0;image=data:image/png,iVBORw0KGgoAAAANSUhEUgAAArsAAAFWCAIAAADmM8IUAAAAA3NCSVQICAjb4U/gAAAgAElEQVR4XuydBXRVRxPHP+IhkAR3Le7u7lagQClWpLiUQnGKlVKkQKE4BYoUd6dAC5TiGlwSCMGdBAghIQnf72Xp9vbJfS9CSpJ9Jyfn3r27s7P/3Z2dnZm9N9Hbt2//p34KAYWAQkAhoBBQCCgEdBGw032qHioEFAIKAYWAQkAhoBAwIOAQUzDcvHnz559/hlqJEiUaN24cU2QVHS0CI0eODAsLS5EiRd++faODzLNnz/r06fPo0aMxY8YUK1YsOqRMy8YUk6aU43fK8ePHf/zxx8uXL9vZ2a1atSpHjhzxu73/eesAed68eaVKlfr+++8TJUr0n/MjGAgODu7atSvXH3300fDhwz8QrhQbCoF3COCVMPtjOmX4+7d69WqzebSJf/31l6DYsWNHq5lVhqghYG9vL0SJpeJuml/SpEnTp09fsmTJ3r17nzp1SluElUl0Vr169SyRinK6VSajTDkeF1yzZg2KgpRKaA9Gjd2/f7+2c93d3TNmzFirVq1FixahRMYVZFibta1Injx5vnz5WCCvXLkS+00AQwH4sWPHYq32OnXqSASSJEmSOnVqZuiIESNQ4gUPL168EFyVLl061rhSFSkEbETgf5by1axZU8qvunXrWsom02NfY3j16hWqTIcOHb755hur7MWPDFYXY9llphfoDeHh4QKHEydOoE+wr/rpp59iHBmrTMZ4jRcuXBg7dmzFihXv3r0b48Rjh2DOnDlFl2GhYeN7584do3r37t1r2qcipVu3brHDZPRroXVmW+Hq6nr06NHo048UhVatWsFM9uzZ/f39I1UwOpkrV65sFgFMSk+fPoWy0hiiA68q+74RMK8xIHmF3Gcfw/h2cHB4+PChPiuxrzHEfo36CMTCU6uLsRBGbJ5mz549ffr0AQMGIBClhPruu+8kk4GBgXgl3gfPVpmM8UqrV68u2njr1q0YJx4LBDFEC/7z589vqTqpMdSoUePw4cO7du3CmCd71lTDsETnv02XGsOXX365bdu2mTNnSudL1apVY583BF1ISEhs1is1BvTCTZs2jR49Gt1d9OO3334LJ0pjiM3uUHVFFgHzcQzLli3D1Mk47ty5M5M8NDQUJ0WvXr2khBIX7Fkxdz9+/LhQoUJGj7y8vChFYuHChR0dHbmAs5MnT3LBLYmSApOW1Str1qzOzs6SyO3bt+/fv89trly5yI98DAgIKF68OCJV5Ll37x5SUlw/f/7cx8cHE1/atGlFClKAuAoUncyZM2uNvbJSOHny5Aku/GTJknFBOrscDw8PyQAXN27cYPZCwSidR5gQYRuGeerk5KQtZXRtiROrDZR0vL29aV2WLFmw3+pUpH1EW9h3ihTswO3bt1++fDm3EyZMQFLTHMCELCmsVbieRM43b94AKU1OkyYNxlItQTrabDdZZfLatWtgRTYUF0zQIj+u+pcvX3JdoEABFxcXkcgoevDgQaZMmaStmHTJZ7p06fCwYJmHIGsM5gTheIZ/tISgoCBBhC57/fq1tlPMkpVsX7169fr16/DGMKN2hijqTqpUqWQGLmDV19c3ceLEZDPydusgpqUgrtnInj17Fmq0hfki9CoeobcxmEUehjp9zbhlOphSEClEsZQpU4ZrrIB//PEHTeYaDsFHFqEhFy9eZAowRAFZ9iZ9AYBkY6aIzYBEGOTpdx5BENBoKdNNELTU+1Z7R/JjesFgxiNGetmyZUUkDWoQt0KkcMF0zpMnD/4C9ioNGjSQFLhFMtBHwCgTjUqB4YEDBxhIGEeZCzxl5NDRjJxKlSrJUpcuXULyMOZpKe2lFH3EU3pHTGpQFcIBsSPoIO4kbzbWIqszuqhQoQINbNiwIS39+uuveSoQsJT/ffSCpbpUukLAIgJmVQyhARB6wxQSk8fUqYbcl2sYMk4uUSKOoXbt2qLKnTt3iipwzYqURo0akcIExgsrFwzW9bZt2wq7HE/79esnMk+bNo3FUlwzq3HAC2qSvmxY06ZNefTbb78x/6WWgMuQ4D5pjReSlIkqSiFPZQhhu3btJBTr16+n7SIPpAjklCaW06dPly9fXlYKhXPnzsmC2gt9Tqw2EFIs3ggUWRcIW92+i8yIfi0nuG/kmsG2hkdbtmwROQcNGsQt2uGwYcNQnmRdGGwFBf1ussrkuHHjBM0hQ4YIgqyynp6eJKZMmRJ1iq75/PPPpTJBerly5c6fPy8ySz6/+uqratWqSfboEZHBrJClR/TJUhYtU7sOEQcqFFYGm6DMf0YjvAl9l6pZkpcuXSqe6iAmi8sL1mlGl1QRIMVqJ0mJMDfZNC7Q4UyJSBvDZ599Jp6CpFw1tcaVjRs3ZsuWTRJk1jRp0kQMYNw3Iv2TTz4RRCZOnChS2BuIFLEJRs/gVr/3rfaOaSukjQEbmHgqtSXwJ0W7w8aPBm9MYZETfQtNUbaraNGiONfEI20pYgKkYoevhyYwomSpZs2aSa6kSoTGSWL9+vVFNhQFkad169YihVlvxJvttcjqxIW0MaCviJQVK1aIWpCHRrWIDDHeC0YsqVuFgO0ImPFKMDPFCB44cCCE0NPFLbtSSZdFSJq70b61+0KhMSxZskSUYkkWpbC/iRTWY1J2797NLRsmNhlS82A3LDLLBRXiVMSuUZRFfIgQIdYMHolE9BXS27RpQ1liGkgkP5sJuesiOkyQZYcnd28oK9IeSBGpMfz666+CLLsupjfEuWVXxyLEhkMsq0h/xBAyC3XKNEhN1KXPidUGQqRFixaCE7QW1ldxzX+0GdkRRhcij5HGQB7hsuXppEmTuDXSGBB/oiD7TnBjxUJ6Csr63WSVST8/PyG+wUoQZLcn6mI9IIVlj1t28EWKFGEkCFUvd+7cGA+0fNLXIFCwYEEJAmYnMrAHpevlYgwdbtle65OlICuHIGWErdQY2H0KvZkMLFRiDaYt2NIproOYaKb8j1ZEaJuoC+VDa7zB8EM2lCF4lsxwjcHDiAi3UmNA0WFJY9Q1b95clJL6E9mYXHK9BDFpt6MtWF/IIKaSVEqk5p03b16eMsjFXMafxa1+78tRZKl3TFthpDHAklALaAhzjfxy7Yd50RChMdCngjH+478Q05D/wh0jSzGpyc9gk0MCixoaqtYI+ueffwrGoqwxRKoWIxCMNAY0OYwNoh8BR4uA3KTFeC+Y9otKUQjYiIAZjaF///5iBB85cgQq+NvErXCzCboLFiwQiWy4WYYRi/JEpdAYmMNiRReSiFLClIqKIBYDVGz2u3L3L4ojUpH1ZJYLKpYD9nPQl4cADx48KHgwG8fAzl5sCMiDWiOUBukinT9/vmCbWQrbcCI3mkJjQISJtRkpL3YeCxcuFEUQ2b///ru4lrFm2G+xzZrFWp8Tqw3E5ikkJvwIXU1uB6OgMUi5LDrRSGOQMgt7r2iL3Gbpd5MtTAritEUQHzx4sMAQxxB10bnEW9BTot6pU6eKp0KsSz7R84SmKF1jeFsk7KZxDPpkhUeGijBuC2wJnBT1So0B1UqkrFu3jooYgcLjLhY2HcSMBgPaqqCDiimawMAQPcuyLca/dotsdiyRaDbyETpMEOwlspS0LqxcuZJEBjlxD4IBDj+T0qVLF3GLX4zxj44lDTz4RzAciqdUR2b93rexd7QtkhoDyMOqVPrRbA4dOkROCQVsENRM74hjPmKeoi6w4SYb/wWfRqssigL+UDLI00AoEHhnSOnRo4coMmXKFMFSlDWGSNWibT7XUmNAdWNPIjYkMMbAsxT5GOO9YMSSulUI2I6A8RucEGHC582UZkwj5VF1hYAjuEFMOf4j0MU1dgjmJCu9XAJFOs45YVFnuDNjmQxsB3nUsmVL4ebANYDlE+Mkqy8njoR5GXWBzLIWLtgcs8mDvlwVRHyDNo/2mj0TcnD8+PGYK7COCMckC5vIIze4bKFgG07gX1ucgG2UAFKQXGzx0WMWL14sMpw5c4alWuxd0KJgjO0muxytfcV2TmROSw2EVXqRbBjGxVqFtUZuGbUV2XJNFILIprVVyIJsasU1CyFrJ/s2aYnR7yZbmBSmXdqCf4paduzYwX+6XqiAdC4Z2BnTOtCeNWuW4ER2mbj9+OOPhS9DWrz0h4E+WalrYpcS2DIejOJR6FyqZuRjLYOxTz/9VMReMAxI10FMoiouxAaR66FDh4omMESF9gzOBFIY5Y/ULWsewYPSVAZoqHpQ4J0oOC+4YJDTNEFzz549XDDXxC1DnUmHriadg/j+RaQRQ1q43vR7X7Ia2d6hINoJrIoAFKKa0MWxMGnbjm2AwUDvYDBALAgY6SMxTvgv1lrRHbIgDIsYKbkwYx9iYSaD9GqxrddWFIXrGKkFQYcviWAvxhiiEvC1bkEtV++vF6LQdlUkgSNgHPlILJVYXZjS2lgqYEK6YQsVJlY562SQgenCyUpAvCQF2VShQKCLcM1CLhCfMWMG054JI2LK+C/SEWHaLpHp8kLQMdttLEtUKvyC7JxwZ7DEQlDSNGXbKKpRrkNstuR+S9SFdGMdRYoRpoTJmlr4YUtnpyWCyLQsWeVEZrbUQFNWUVbILOPqzSJgNhHtR1pHeF+NaR60BDoXmcWSgzNl1KhRxEiKCA/9brKFSdZaLBwIfYYB+10h4uUwwGJEXAvuHlpHf0n7fHSGAQ3UJ2vKtnBsYUiQ4IiRQD9iCdMiJhY5HcSM4BWhcyRqB4mIMSQRA5Vpd+inEJSAloCPD20bRz7rPbZAsVm3pS66QFjy0OBFiAa6OI3dt28fA0BMLmIqxSP93pd8WhrDOg3BEkktwgUj1S9tfrRzGeSEbUYMe7R5s90hCyJnxLXU/+SIktq2jgDRYVj7KEZqmTx5MkMC+YMMkePBLAPvrxfMVqcSFQI6CBjbGKQX32wZaWaQMkJuXo02hRRnN4MPggtczmJ/ScixsAQiAlh3UReIdsQMQKgaxlWzNdqSKPbi5GRfKNSFuXPnIj3Rb2QAo6AjvciSbWneFBmkAoENk4VW+xNGFIy6bA0x8LKNowgmUGlo1bJqlROr7TJFGDuNOHdgtaw2A0v1F198IYPApSVWmweBxbabTSc2f9YeitBYQhCsdpMtTDIGxL6WbaIwMKAcyJgyvPj0FAODVRythTDVSLXOKLMcCfpkTYcBLTXCVowE9n9sBLXDQKzKlhAzZV6evBCHGkQGYQngWh5UMS1oKYW1nJMOrCIi7J+oIxExQ35b6sIgIXbzdLewOrBy47ajOGNAnAUQpxis9r4lDm1JF1YQfA1m1QUoCJVFkBLvDuGaQBajWUmYpy3V2ZJHqhTsB0R+MWtsKRuFPIBMJAoGJ3114b32QhTYVkUSOAL/0hiYKhs2bAARJg+rOE5E8ZM+VJyj4tSljCogGB4ZSsCzqaxnzrO/hBrGT7YvXBArIOBmNRKxacwWsiGUhTUiUp0hjbHstNj5wYbUWsR+DnsJMQ1amhjDxS1ecPKztTJiGxeM2K6hG4EAmwl+TFoQgE+WNLytrCUElrP4CWcN/mBTtq1yYlrEKEUijCOcswM0UMaXWC1LNAah+PhTiFqgyWvXrqUIuy4MJIJnIwo4BdjsYn4gpECc8mfpRamy2k02Min0AzaIwqmPlJTnYAVQGKj40UbplbDaRm0GORJY8xjD7Ef1ycphQJAKvUy90nQvyVapUoVrcCDIER8Hw4CBwYgSy4klxEzZlqGFWAXAEy2ZGCBhaGFzGQWNQVQBSwTliF04r+ESLj+MNOJNUCiyKM1MMQYnQ10UkSE7QoHDhIa2gdkfM6FoLNGF+BAZIcL1Y7X3TRv7nlJAnokJcTqLgY3ZQOzyEVbSDhH9qmVfACxSDjOVtMxFn3iUKXw4vRDlJqiC8QoBZKL8SQOD6cuDCWAUzRanJZFE0jSHiOEng5i0b4mWDmMysLNkERJ1Easli7N4YBOWTg1xWFFGRbAwiyJyK8/7dEUKslsuFQhQrBRSs6EuDp5RqcjANlcUYe2XzkKe0iJJQR7T0OoQbNpEXJg40iZCvdih4lsVPmkosABoMRTXVjmx2kBsp9ovPtBAhKPg2Wrko+kAhdutW7dKPo0iHzE8oE/gLuUnyrKQoHZY7SYbmcTFIHAW/KMdSk6kvxmcWQnkMEB3IY8Rn6RIYHv27CmJ8GYq2WSAYgjpk6WgWCNFKYpgLOE/tzieBFlezyC9coDDciJ2veJQnCXEJEvygmVbexxXxMFQEdREFAg52TcLTkzPMEs6suHydCWP5OFVdCBcKqTQy6IhEJR1cc2MFlGW5BGGBFFj9+7dSUHHkvNXnmqx2vs29o4WE9PTldqnOlDQfBkkyFgSs1ueCTIFkDEgGigOXUPZlFujyEdhBxWlBHTSZmN6ulKwbUstRg00Oith9NQUgffRC6aVqhSFgI0I/MvGIDUGjmuLmSP/yxR0fBIRoDgUxVaemlhpeHGCURFukZUi0IE8GD/l8XHmPHSEcZi9PkHRSC7T4vopSHk2UkLzQBoiglkGEEkYSNgisErh7jV6tRQLJxtuyTbGcLyJohbp78TGC1lxdpRgDnwBrNBipwjDRINiP0eCYLGk1WxHsPmb8mmVE9MiRiksrmyhxNaKRxg2cLjIxcBqcTJAgfZiOSAuAVuRPG5uWlagJEI30EtYk/BqA6PVbrKRSVYjMX4YBrCkfcnEnDlzRKgaOBMig6Jgyp7VFHwQwq5OTqpgabFKlnhGiS0sYVIS2owcBvQ19iTWG3BgMcYVBfiE+IlVxBJipqzCDAEcDG+xJAsTHZ0CwvLtAlTNEsVPLopm6TAG+EkOyYPZiSBKErHSCejo5e3bt4tjqKIulDDCe7WnLrFtSBuPOEmBSiRfWiBcEhC32vumTFpNYXSJVkQ2hpcJxY6fxtIL6AcYNVH9RXSn1UptzEBECECJYUBHEKpCio1lbc+GvBIIaPU5neLvoxd0qlOPFAL6CCRCwurn0HmKSGKZYQ6zdoqZppPZ9BFVM/OFEMRoIcz7rB9yu2NaxDQFkzKvsWP6YY8VApddHRtE4e/A0IqSjjKh9d/DNjtFMnPunxA/Xi4EWUy78giiqAVVBjMGK4QRPxjw+WG30MpuU8ZIscqJ2VJGifi8aQKsxqAB1rReWEU9oitZKY30Elu6KZpMiuAAIKWldBnscfRO379r2gTGD8oc6qAMU7BKligWlh9GLyqg8O6j2bC4aomjLjCcAF++IUA81UHMlDdSoIPexn84lJtXszljJJGZhUmPIYq5SEcRsVqXLb1vlUgMZuDECt2KkofciEGykhTjgcHMxkAaEd9HLZGl+aH1QmT5V/njDQLR0hjiHAp4JXBqcMITzZ1JuHnzZs7XIYPYY+H5Fqew4lyjFMNRQAAjBNtx0eNEFXDGVWgqeEzkm5GiQFYVUQgoBBQC8RiBhKUxsA1lkcAcwv6V7aw8wsdLXXhPcDzuZtU0IwTYeWOaEkEqOETEUwwMvK8pCtYyBa9CQCGgEEgICBifrozfbca2jE0Y6wKnJIS6QHQhB7SUuhC/+920deLFTegKQl1gVOCfwv6k1AVTrFSKQkAhoBAQCCQsG4NoMweW8NkT+oC3UrwxQo2GBIgAQQ94+glHIAxQOaQS4ABQTVYIKAQii0BC1Bgii5HKrxBQCCgEFAIKAYVAwvJKqP5WCCgEFAIKAYWAQiBqCCiNIWq4qVIKAYWAQkAhoBBIWAgojSFh9bdqrUJAIaAQUAgoBKKGgNIYooabKqUQUAgoBBQCCoGEhYDSGBJWf6vWKgQUAgoBhYBCIGoIKI0haripUgoBhYBCQCGgEEhYCCiNIWH1t2qtQkAhoBBQCCgEoogAL0CM1O+9fg8pim1QxRQCCoEEhkDevHkTWItVcxUC/w0CfOWRD94KPcEhsizkzZfnp6U9I1tK5VcIKAQUApFGgC/rJkpkttRXbWbsvzjP7CO+ec7H3i08UskKAYWAJQTMT5x73uGH9hg+KcxPeSUsYafSFQIKAYWAQkAhoBD4BwGlMajRoBBQCCgEFAIKAYWAdQSUxmAdI5VDIaAQUAgoBBQCCgGlMagxoBBQCCgEFAIKAYWAdQSUxmAdI5VDIaAQUAgoBBQCCgGlMagxoBBQCCgEFAIKAYWAdQQifbrSOkmVI14g4PXyyfEXj2lKVc90OVzd40WbVCMUAgkOgfn3rpx/9ax+8kw1k2WIwcbveHLrdsgrCLZKnd3N3jEGKStSHzICSmP4kHsnJnl7EPKqh/fhiKPqKAHpe2XIp0/9bODTXx/4kCeLSxKlMehjpZ4qBGIZgQHXj519+VRW6mJn7+nglMvVnald1iN1or9fR3E1KGBJxCy+GPgsZjWGXc/unnxp2FE0SpFFaQyx3Pv/YXVKY/gPwY/Vqpnhj968FlVuf3q7S/rcTonsY5UD3cqevgn+K+D+0eeP6qTIUMkjnW5e9VAhkNARCA4PCwoPkyhw/Sw0xPf1y53P7hZNkmJ01mIeDk48zejsltnZ7WZwYKmkqeM0ZCdfPD7y/NGt4Jfjs5eM0w2J68wrjSGu96Ct/O96doesqRxd0Btehr058vzhB7Uwb316c/69q3BYJZlSF2ztU5VPIdAhba5kDk7+ocHHXjw6H+gPIKdfPhl14/SUHKW5TmznsChPpYDQkBSOLnEaq/7Xj4W9fZvBOXGcbkU8YF5pDPGgE6034fIrf7/XL8nXIEXmRfev4pnY/eyuqcbAxuXSK//Qt+H5EifTEn32JvjBmyBSPB2c0zq5ikeP3gQ9eRPMNSmki0Qk17PQ4NSOrlpDJQrK7eBAMqRwdE7p6HLm5dM7IYEZndwKJUkuzKd3gwOfh74RFDA23H4d6OnolORv56hZmiJz+NvwK0EBlM3l6pHU3iEgzEDE2c5eluWW5twJDuR1w+ldEhuZVV6Hhz4MeR3+v/+ldnJBtgqa6r9CIA4hUM0zbRaXpDDcPm2u9Y9vTL19gWv8BWzKiydNyQTxCXpOCnNQZOP67f/eMsv8Q0OS2DukdnKVLgwevQkPfxASZG+XKI2ji10i47h45ID36+fMlLyJPbUQMb9eREy99E6J3SNsG/z8Xr8QVpBsLkmZkjrEb7x+yUwkQ+7EHs/ehJx88cjezq6wW3Kh5UA54E2IoBkaHo5wsLNLREUihQY+fsMcDk3r7GpqNKWZPq+fJ7VzzOPm8TL0Tchb5rpBiNlrXj3+Kiz0Xsgr3DrpnRNroSDni9CQx6GvHf9nn8bJ1dHOGA3BQEL7r6RkgujxXU8NBgZ+9ZNnPBLw8FKQ/+GABwgR7cp6wP/B+FtnnkfMfHyixZKkkNDcDXnV3fsQt/ndks3OWU6kT7p1/vDzh1wvyFUBE+hYP6/Dzx+J4iQWcPMckKlgNhdDyCQO18G+J7holirr9dcvTr14IihU9Ej7fbbiXLe9/GcIS3rEb9bdS/z1yZD/k1RZdGiSE0Ez/MYJv9cGXcQpUaLGKbOufuTLdZ3kGYdmLswF0mTpw2srH/rSUm5d7OyapMzaOV0e5AWyYPLt838FPHgTIUQQBn0zFmiUMouBA/VTCMRNBBjex188OhhgmJXMTTSG1+HhXa4e5DZfYo85uSpw8cezOwvuXRVBi9ymdHRen78GF8eeP5p374p3UIBhPvzvf6529q3TfPR5mhxyEV14/yohEWz0eZonsYe95ssd+/zvzb13hfQ2qT/qkj4PF6jp3b0PM+88HBw35KuuT/x7Py/0fkqNylp03M2z7Fu4drNzGP9RSfSGzY/9BHESH7x53eryPg97py0FayKUJt86x/ZD6AFM4ZrJM/ROny/p3yoLIZ/LHl4TDBd0S8aHRs4GPoPIqnxV00UoHAiBaXcu/OF/LzSiUUDRPV2emskzcu39KmDqnQvnIvLzQ7z8nLti9gjNLIH/lN4U/wcAs/cP/7u0M6+rJ1uKysnScs0Kvc//vmz8taDnI/xOivWezXpgWOge/3vyKYqCsAdiq2CaRRQPOx0R9/SRa9KciT2YljhQSczp4k5mRhUG0uG+p9iyaPHd8uQWFWV3SSISCVxAwHHtaufo+PeGhsmJtHJIZKdPMygsdND1Y3+rC3bkF+qCtrpJt8/j6UBswSRBYUjP5Q+vIxbJM9T3JA1EXUAKwHBie8egiF2O+ikE4jQC5dzfxSsIq55RWzA8jPbzQl1IbGdfJEnyLC5uzHSR50zgU5ZtvJYs0qydmAeYOzv/3mlseuy38L63WH3ZTlx5FXDhlcEDIn41kqUXH/46GjGd+fFUqOk1PTM42NnrE5d0xt88k8nZDflDSmB46Ny7l7hwiBAIIg+1cC1uMUxymMvVzoH5m9U5CYIGbmdEFOGHuUXqNzB8PvCZUBdkXZglel87gtQKf/u2kFuydE6uj98Ej7l5Bk3reWhIn2tHUBfYWrDzyenqzvfQQjRRI5JIArxQNob43+msykRF0c5KnmkM/93Tzrl7mYvfn91ukCKTaP/Kh9eEov1pqmy9MuTFNtjD+xBavESnumd6MQOPv3xczTO914unLMA8rRNxZAsVAatA/RSZhPlxzSPf6XcuEm918dWzwhpbRXIHp/m5Kya1d5x6+/z6x34UvPwqoGTSVOwYljzwFnEMAzMXrhVBEwuBDk12BvdCDI4SZvvE7KXQGIbfOHkowuYhfgi1rU9ucd00ZZavMhbgYuzNM789vb32kW/bNB8hwkhBYuLl5QLNJiDsneVTUlAXCoE4h4AIeIRtYec34p8QB2HKG5i5ELOYp3KOoyhUyVUB7Z9EdvktL+1lBf3t6S0sdqT8+tBw4IIfRkFMgyzAX/ocFgoEiWmcErOJZ0nGA4IjILmjM2FSIj+BzFzoExc5+Y/9D/mDu7PlxX1YDq6+CsCB8lnqj/iremY71eE4WJG3qsiPcjM2W/HyHmmEFeQb35PsQHY/u4NpE2mw7ME1kW1s1hIVPNMw3/v4HJEM82jj45vXgl5w8W3WYpU904WGh55sjvgAACAASURBVLW9vB9dasXDa+3S5HwRoUg1SJ6pX6aCXBAIguIi+UzIF0pjiP+9LzcKBZIkf/Lmtau9PYr8reBAr5dPmZypHA1xCVzznznRIW1OZiBzvl6KjGIJFwDVTGbQGLjGwIisOfLCIBHQwWsmMwgUXJ5k2O9/73LQ83vBr/yCDTET/G6HBBb+3z/eDTZAqAukl3ZPLTSGp38f3xD5tf/1aZ4JfOfaaJE6u2vEpqRlmo+0GsPh5w8ENe+g50OvG3wiQjgiie6GBOEH5RYTxZfeh2snz1jdMx0BFqY8qBSFQNxCgGVeMOxh/y60SMs/E1/cYs+/EOhfO3n6XK7vIhJKuadCv1/2wMcvOPB+yCthIRDOC2YK4T4UZLeNusBFAbdkRdxSiNOVgiAeATQG1BECMFEyOPREOgY8QV+HuJa92hFbBSRSdtek7CWwg74IfSMDI7Q5uSYsA8Pkxsd+mC3vhwQRr0Ai256HbCQSJRLnwmAYdYF0VJbCSZJLfygpRyLkAxIP8Sgk5KsIK4JP0Av0EiQb6sXWp7cwdSDZSidNZRrVYcRPArlVGkM87+jAsDcH/9b3WR21rcVE8Puzuy1Tf0SiMEIQrigjG4wiAZmfGPavBj1HIkTMN8N/JhK6BRfnXj7Fzs82nZmGj9D173ObwWH/8koICwT5iTMSnPzr8b+7Qp8mcVsie9q/Y6CS/Dt08enf0VJG1khKsYUalqXItzdO4RZl88Hfz/cuj8pStFjSlP9mQd0pBOIYAvsD3rka87oZrAVGvxrJWNefbntyiz00hkD+qnmmYy4wbb/z80IakN/d3pElk8X49f/Cxfwl9FjQkXONWzf7f53NruKR7qfbF1iwkQ8lkqYU4ZbCPoGdQIe4lkNz8uFdeJNxS/A7PLox/e5F1nXik9I7uTn/LXNevw1//berRcuwkXx4EiFAoH7g762FqCIkPBQJ1jdDgZl3L+KaARP+cLaOy16S+GhTNhJaitIY4nmP7wu4JyKJzLaTExNCY2AJDwkLfxX2hvgAsWUn/tmoCLo2GgObmAMB94WXVEgEsk27cxF1IZtLkuk5yrInYH8/KGJbH4Xf279DIPVp4psUxB+HvBYvmNL6UHjk5vBubI/MUqSsu2GfIX+IGHYMK/JVxXaKn2J/wAP0jx9unVuZ753BMwpsqyIKgf8cgdUPr4tttFMiu+rJDE4Hox+awYBMhdqkyYH1ftPjm2zEieYpG2H5E+pC/4wFG6bMTKkuVw+wyxfF5WLMXJME72hcliTiDSntnoqgS3ygR54bNO8IA6SBh8MBD3WIG7Ooe/+3bDAELc6IUBdqJ88wKGNBQiVm3bm4MiLwmZ88uqVlGMuilrZQILAxrMlXnTMj8pHwPQBCtWTp9vrfJfQKHDghsvD+lUER8dQJ/KciH+P5ANj11LBv4Dc8c+HlearIP4KbSGQr4BthzcN+wH92/PPvX8WpfynQf2fE+xu0v+rJMojhsvLhddIJUCrn8S7MitOSpBA/mNjeAQVlQ0SMQqR+RDCJ/AQcEaqJUVSfpoxbxsOKlxFvy5L771ytgk5Rt3fekIizEqEwxt/N4Jd+wS/C3v5vT0QoaAWPtN9lK05cJNePI46Pqp9CIG4hgCdu59PbTMmvfI7IuL9O6XIJb6NRW3j1O4o1e+i2aXL2/vutr+gNcvlPFbGNJkASX54sm9k5CUo2t5yx2vvsLtNz65N3QQBa+uKdkgGhb4h+IL1k0pTieKQ+cRvRFvIBVuGf+Y4bQsRdJXdwRl3AE7En4J9I7TSc7o6QJzDMTIfhbU9vCrOHrK5IUoN8wMbwy/0rdomQXQ5YONC3XoeH8Z6o84FPsbZ+nCLLD9lLCh3ioWX/qY1NiB/ZlI0hfvSj+VbwZmhkBM9Qovk8BFNL5qvgnnbjE8O6vvvp3S7p3ZukzHYiIieGynWPfFEdpIVQFsHTXzRJSpyX4tBRdc8M8gA0u3wiIS4EPmt8/ncOINhpTl6Z58wkNbfrOyPq5ic3kUe9M+TXp8mLJZY+8MG4CjMNz+9m5hP+LaiKGV7SPSUyi2hqIsCbX/wD7wlh4ZgZ+2UqkMU5Ka+4IX8658S8y0G4PMHHhCmVoBD40BGYHRHFLH8s7LzTqUWEq9H0hw1gzaPrvC4Fo8KNiGAjpnk5jzSswSLzUN8TnvZOT0ODOY/w6u27d0ryKgLWTiQDeUb6nbbzM2wtKGhkvCzvnoY5RTSAkA/SACnfMW+WuCmTZlOQD0geZEvLi3vdHRxX5asGh0znFQ+vE4WAgdNF8wZbzBvNU2fnOCikmOlgAsOCN1JEpGTzlNnQtLCY8gJcTK2eDo54ZtFCfs1T6U7wK06D814sJB7h1cIvgsnBLGMJLVHZGOJzjzMTxHAvmzS1Vl2gzRUjAoL4YTDE0Uh80JcZ8omdBLOLEEXenWAKjTAzCpoiClrk6ZexgJALnM/Mk9jzq4z5Tcvqp/A2p+apsonFHgaY8/o0EXmjsxYnXhqy8INDpGeGvKIKESSBXBibrcRnqbLjl4UgooHdA6fSc7i4Qxy7AuKGYGnUBURDy9TZB2ZSJkf9LlJPP1wEWD45+PNJysyLcldqlzanJUYzuiTGEHj/TRBmdnbeHLCcnL0U5jpeLE3IMwebsfMHvw3j3SQf/fvjc13T50YDENPTLlGitmlyFPj3S96oER2ioqchLpL5yAYdBUKwYZW4JW616Rzg4gCkIG7/PzuirIZnLsrMJeV5WEi95BkbRThT5K91muxahtGickUcA+EnpFwyR+dZOctX9kxLq1FEHr0JZi0s75Eaj0YyB2deYIUCgaEl4s1XbgMzFaqf/F/0tXUlqOtE0m1sY7OLFS/609KeNmZW2eIWAgQxEKCAS5LXNkSBc7FToTjhlrxeCQrYP0VopI3UcE9ib3RzcJTvdNOniYDjXAa2hcwuSZY/uCbe9IK5tVmqbLJG8YY7pBihDxy7kunskCCOemEpGNtGnlW294gAjmsLp9q+ajPjp6W9LFRNb4vVzcLzBJzMdGDYh4S/Zbk1eo8hJwyfhr5J7uDI7uJG0AuOCTBfeA+jRIsQSIzz6TBR/B1FZDuQVolbJYWKw8sZg8PDEQ44EchPW3jtLA4IQq84zcHJLxLZukj7KC+pfBRqYJiWNruwh/0Mb3/aXLCG0WsueU2tk50dgkubjq6AHHO3dxJxXVbZixcZzE+ce97hh/ZcnDp1Km1UXol40dEx1AjmhjiQHTV68iw4Zy54rUoUiCCJjISRJZroFnv979dInp4dEoLjoP9DcfiTGO9KEQfA5A8pYPal+oiVqClGUWiXKqIQ+EAQYDrIwEAjllAUUju9c+1ljQjuMfpR0FJZ46wm91aJm5QwTkB9yeT87uVv4hltkYeiOcigPcvwp/+9dM6unO3EloDeMMHv3dtscT5q1QLooEyYlQOYSbSvxDXmJqHeK40hofZ8HG93UHj4pNvnJt8+hwnxVfgb8Top2tQtfR6z8z+ON1exrxBQCEQCAY5/b3t6CwdEYjsCFIKFI5UX136RzqLLJhLUE3BWpTEk4M6Py013skskvsNJlJZoB8c92qfJJV7YEpdbpnhXCCgEoosABgbCldhIvA43yAfCHjnK0TldbuWCjCaySmOIJoCq+H+DANbRdfmrE/SAb5VQLM5TSf/Ff8OQqlUhoBD4YBDg+CjBTBwWI8CZKGle8YQC8cFwF4cZURpDHO48xTof2pZf31ZoKAQUAgoBiQDnKcS3cxUmMYhApDWGbFmzr1943CwH4eG8E/jdEV6zGVSiQkAhoBCwHQG7RPb8mc2fOXMWi4LobVj43+8SMFtWJSoEFAKmCNjbORqFhYo89olcUqZMJa4jrTGEhr6pXq2maWWkvDV8blCEmJh9rhIVAgoBhUAkEEjE67wtnJOcd2WJRUHEkfG3vIND/RQCCoFIIGCnecWftti9O49u33z3vZJIawx37twpXa5YJLhQWRUCCgGFQEwjMGrYOMuCyPyx8phmQdFTCCQIBLxOXLpw7opoqnrnY4LoctVIhYBCQCGgEFAIRBMBpTFEE0BVXCGgEFAIKAQUAgkCAaUxJIhuVo1UCCgEFAIKAYVANBFQGkM0AVTFFQIKAYWAQkAhkCAQUBpDguhm1UiFgEJAIaAQUAhEEwGlMUQTQFVcIaAQUAgoBBQCCQKB96sx3Ll9N26hOGfmL/zFCM9TJ8+aNX2+VVIhISFDBny75/c/reaMkQxjR09et2ZzjJDSEgkPDx/QZ9jeP/bHOGV9goEvAzllV71Sw17dBujntOXplcveX3YfcMPXz5bMsZwnZlsay8ybVheDE82UuGnKBy6IPuSBZwpmvElBXiF7g4PffZgmHrTLqhy+4Xvzq56D+B/lxr4vjYFumDh+WsnCVaPMWUwVrFi6zvgxP9pIbf7cxXNnxYzG8PuufX/uPWi13nt3H/wy79d1a7ZYzRkjGdat2XTk4LEYIaUlwkhdvHDFubMXY5yyPsEeXfqtWbXxkyYNChcpoJ/Tlqf37z1ctXz948dPbckcy3litqWxzLxpdTE40UyJa1M+BEG0ddNvWdMXNPs3bPB3cPshDzx9eOP00w3rtiJ77919926iON0WwbxVOXz08PEVS9ceOnA0yo2N9BucrNb09Omztas2zZm54O6d+zTAav73neHevfv+/s9lLX/s3jd31qLVGxaZrXfbrjWJYveDJVmyZjp0YnfadGnM8hObiVhE7t97MHrsN7FZaXTqYqTt2LZ74tQx7Tq0jA6dD79s7LQ0LCys75dDylco/Vmrpu8bk1iYaB+OIMpXIM/wUe9sYKtXbGCHN3DoVwLhPHlzvW+oY59+bA6k6LRu3MRRX33dPWu2LNEhErfKNm/ZpECh/Pny5xZsY08dNnjM8G8H5s5j60fAY15jQIVhT9+mXYukSZNgmf/QAD104Nipk16WuEqTNrWlR+8v/aMc2d4fcdspb9m4I3Wady8Pt73Uf5jz9s071I7K9R/yEDtVx05L37wJXblsXf4CeWOhUbEw0T4cQZT9o6z8CVRPHvd6/PhJxy5tYwHk/6qK2BxI0Wmjm1viD0T2RqcVkSrLfjh/gTyyyPVrN3b9tmfwN31tJxLzGkO9BjU/a9UkZcoU06bMsZ2PWMj55s2bC+cvP3z4KCws3Ov0OWrMkSNbkqRJtFX7eF+3s7OT05tHZ06f8/HxdXV1KVGqWOrUKc3yyVvsz3qd9/a+7uzkVKRYoUyZM5jNBvGrV3z4XFfBwvm16xzMpE+fVqzW7PIfPnhUqEgBPK8H/zri4uJSo3bVxIldIXjxwhWYSZkqRbnypdySuGmruObjCxEXZ+eyFUolT55M+ygw8BU2KH//gHz582jHijbPs2f+fjduvXr1KiDguUCmSNGCMgNOVqqmjeyHpHJqtoEiEZAvXbySLJlHuQplwE2bEyInT3gxTEGybPlSzs7OluhYwkrm97567fJlb259r93w9PTImCk9Q0481Wc4NDT01MkztNfVhT4tGlnrjuygAP/nf+498OLFSxwiBQrlk4zJIXT61Nk7t+7W+7gWI4qnBCIcO3ry0cPHKVImL12mhNHA08mg01JZKT144thpuo9xVbxEkdu37jLOixUvLKoW2e7euXfv3gMShRXNaGDfusljg3mWbIyBJEnccuTMLgq+fh18+ODRR4+eIF4hbtpSBv/5c5fSZ0xXuUp5iNPLDN2bfrezZc9SplxJs0Y77UR7+eIlUyxnro/gFtfyy5eBRYsV4lZWFLWLD1YQ6TQnKOi1AYEXLwsWLpA337/MD7bPHR36Vh9h/zh35kJYeBiKI11AJ8bCQIqa0LPaFqsZZL0yp1HzrVKIbAaEwBmv80zDdOnSIHycnJwiS8H2/GblsJxraEuXLl5FFEPwyhWf0LCwtGlT2yIMY15jyJY9q+2tis2cCOtaVRqLGsXFmo1LKlctr+WhT6/Bbm5uq9YvJBGrZpvmnZH7rOWPHz1hTTp6eo8pwwj0rh37nD97MVkyT5ymzPmbDy4YrYWENzZr1PbIoeNsrRCIwa+DR40Z0qV7e6ixgMHMsFEDevftxu3C+ctmTZ83edrYwf1HeXgkvXP7HvrH5h0rcRks/mVFqtQp8PVkyZp50/bl6dKnJT9q0MCvRyxbsppVMygoyMHRcebcSfUa1BJ8In16dO735MnTVKlS4J7v1NX8zoaQi55d+okiApm7T644ODigu3Tv3PevPw+7eyQNDQ17FfiqavVKcxdM9UzmYYqDaEu3jn02b9zh6elOdekzpFu+ZoFUMh7cf9ihTY8Tx0/DzJMnz2jXynULTXV8Hay0lfbuPhDlg5RB/Ubyf9zEkezbrDJM7d07fe1342bKlMkDAl7gNeva84uRoweZXdXMtlF00LLVCzq26+nq6vr8+Qtg+bx9i8k/fS/yiyGUN3/uWdPmkeJ75yzq3a+LVn47YvzLF4GoC4ylpO5JJkwe3fTThrIKnQxmW6rljbLDh4xB+rDiMmhnzfvR3t6+6xdfGQ3v3j0GBr16vW33GrMD+8eJMxhFkJ09YwF/pcoU37rTcHv08IkuX3wFsKiA9GnlqhUWL58jVFjR0sxZMm5cv9XRwYGnVapVnPvL1LYtu6Iyoj2jZNSoVWXZ6vmm8Gon2skTZz5t3HbarB9+GDeVYfY84Dk6ypjxwzp1bWe2C2xM/GAFkSX+r3lfp9fYoIMAYmToiH7YzEVmG+eOJcq2pBuC5voOZwykSp0SPZhRfebSQaZYLAykyAo9W5pjSx5R762Hl8hstvlCxtpCypY869duGdRvREhwiIenBx2aK3eO9VuXIQxtKRupPKwpluSwmGvbf19bomTRdq26iSjv7p0MNoa+/XsOGf611YreV+Sj1YpjPwPd7+13umuPDshrLvgrX7G0DhvDh3zv53fr+Jl9zJwb985NmPytaWYW4yYft0ED2L1v45UbJ33vnlu0bDby2ignUoCl8eS5/eeuHPb2O9WgYe3vRk7AOGlKkBQyr16x/vT5v05fOLDlt1WERqJtnD559tzVw4aUnatu3bw9M2I14vft8PFrVm5csHjGVb9T3je9ataq0rfXkOcBL3jENpoVOnfenFR6wecYrTh75gIqiGmljZvUBw3sCsh3gQzqAs7IVs07Xbnss27zUp+bXqx8C5fOZpfMaQJTCiJlwc+/unu4+9zyunjt+K59G5mEfXsNFo+g1uazzg8ePNx7cBvMnDq/H/PDwK+Hm5KyEau1m5Zs2LqM4ixg8MyabZVhttEtmnZgih7z2guHvnfPfj2wF+t6ZE/HsKqNHDZ23aZfz14+dO2WV48vO7Fm/7b9d9mW69d8L1244nXxAMi7uLps37qr31ffNGxcj66/4H304rVjZcuV6tW1P8qoKKKfwbSlWtB8r9/o32dYl+4dGH6XfU8c89qDzYPtNaam9Wv/ORSD5eDA/iNt2n1GWbMDe+wPI897G+KhvhnZHzxXrTMozdgqWjXvmCvXRxd8YPs4o/H4sVPoE5IBbA9OTo5XfE/ydPiogfv2/FWvRrO8+XKTQi+TgjJKrImWYUvX48b8OHPuZCCFVIVKZcaMmohmYylzvEz/fvTkn2ZOAIFL109Uqlxu4rhpKGq01Pa5Ex1YcEgxjFesXcCgvXH3HLsU3MqxNpAiJfSi00xLZc0231LmqKU/efx0yrRxiEe6eNfeDb7X/WZMnRs1UvqldOSwtuCevzb/smQmKfQ1U77vgJ76ZMXTBKQxsNHx8HRnKyYuuGZd1MEIIYu6jWmBPI6OjuyfTDPPn7OYcfDLrzMLR5jxoVy3fk1TspiApkwfJ7wVPO3UrV1wcMiVSwajuumPhRZRC3s8Kl22RNXqFXE6TJzyHTYMUkqVLo6lFwWCa3QO1OQuPdp/3Lguty4uzuMmjcIBsX6d4eTFgp+XQAqTgPAZY3GaM3+K2VhUWkd1KDriQlSNfwtr8/iJoypWLgs1mlb/41o9e3feueMPYcsy5RxjzPhJo8QGFP1j6PB+LIrCEgA1zHE//DhaeEYwPwwc0gfrBRYaIzo2YsXGXbhmEidOLLrVKsM/z16Igj9/8fSs2TJTKSNhwODeLE7aJdC0UaYpSPBBQ/vgOeIRoBE3hBuLjpA5UfKmz/6BNoI8GSZNmE7s26SpY5K6JyVPihTJWRqTJHX7eZZhVeann8G0pVqWqAt7NVqC2McTxoUxGRNXs88abduyU54cW7t6k1uSxI2a1Kes2YGNAucewR6OMPAU2HJuCBfe7AVThKuL0diydTPCyyUDGORGjB4kfB89enfCFoXR5btx3wiluWvPDs7OTmKsank2e93ui5Y4qnjE+Ondt/urV0HnzsT20RuzjMVaYtsOLStUMsw1+qL3190xtl28cJlb2+dOdFi9c+ceQ0jIMeggZHCcxdpAsl3oRaeNOmXNNl8nfxQede7WrkGjOshYyoIzox2RGAU6VovoyGFtWfo3sZvB340LkinP8mGVMhkSkMZgCxzaPB83qnPx/OX2bbrj9rZUdt+eA/hcbQk0xdCKj2DyDzPYow8fPAaCz576myWL/M1f8J/os0yZMyJDtSksRTgXKYvrGq+Eh4c7MkX8EVfFUoRrn6c4QYoWL6wNMcuQMb3tEWcUR+7XrlddyyTqC7dyc2zEf5VqFbSOc7EAoO6Q7fDBY6hK6EmS1UePHpNuVvmwHSstA1YZPhwBCOj9q0XVKuHO5M+oLUQG5MlWQv59XMewOxc/BGvFyuXkLSgR44JdQabkypNDxpC+eP4Cj1W9+jW1yLCyFi9RVMBoNYMRY0a3iB400QF9h6EgQko+bd32M0xNv+/cJ1II0W/6aSOhzNkysEWpQwePZcmS8dSJM7LXMHji3cMbKjLQUumAAwfCcQoVzi9T0MkIuxFjVb8VPC1ZqrjMQwAE11ikrJaKTxlKliommyOUWmFjiNTciTIgdepWZ4Y2bfj5ti270IklndgZSLYLvSg3UL+gpebrl4rsUyyCSxauwIeI5454kWfvx4qmI4cjy7Bpfr1NtmnuBJXyRefP2RROnjC9TrUmTGbD/lizkAsoWPaKFitsFZbLl65ik2f3j4WALSDGf1YLtoZmCzriE9YYPxwc7Nn2aXNiBxamAv9nAaRPmTgTC4A2A25IbjHqFo+QvEZljVIs3bJkJk+RTGjEMk+qVIbYT+J3zJYSVhD5SIQ94pQlBWqIIV4qoC2Y2C1xgL+hCdpfpLDSFrTKsP8z/+wmgGBGggjxoUZsYJLF3yETxVorbsEfQ4g2v6uLs/AEiUQZg8mtONmb2uQMDiEpF84bHKhWMxgxZnQLJ9t3rx098ocRQ8di1u7eq2Pf/j0YP8TNEaWItal+w9oMNkJusTCJsrYMbJETxLBhEMegrZReIwxFRG4ajUx7BwfXiChd+XN0dDJr1jJqBbeuif8Z5FgmSCFG2DRbPE7BCCRb9w6BcIOIsH3uRAccwrE3/7YSZ1CHNt3RQUeOHtzwk3oQjJ2BZLvQi04bdcpaar5Okcg+GjV8/Ozp84lwQqsuWrwQ8UwvX77TvCNLSj+/jhzWL2jLU6Ux6KH06WeNmzVv9MfuP4cOHI32jf+b3aG2AG77u3fNRAYYEUWas+T8eWi7MPZeOHeJ11vpVWzbMxGBuGr9IszFpiWoUezj5SNkNxtE05xmUzBE43DBrK2N4hR7cUuHMANf/mvdJQoEyunSGSI0GcQstHj9TYM8jGqPMlZWGYYHbI9G1XFAAJuBdo0XGVh0zaLKU3yuRrD4+d1Ol8HQTPETDgJxTcAgt3dNwkfu330gYLSawYhh01vsRoS7jvxu8E+TZ00c9xMqJkFMZGvdtvnQgd9ieMDAgCVMe6DD6sAWtXgm82S7v3bTP24I09pVyvtGwPa5E01OUDGJDeJg1Mih33fu0JtxJaZAAhlIlpofTVRFcQKACJkivLdF66YihcNK70lj0JHD0W9LgvNKsBLgzLYdOMQ9JoHvJwxnyy7citqyFSqWwU3LtlifIBkwXMsjkfv/PKSf38anxUoUYQHeoYm50xbknCduC629fffOvRj8LRG3d7DHayCfEr6AhsFio81PVDyKSJmyJc0S4bSh1nCyatk67NJlyhsyY6SB+J7f95stqE2MMlZWGa5YpRydxW5bVge3nOwgbFiEbljlTWQAlv37/ulBwgMP7D9cpWoFs8XZi7Nab1i3RfsyWjrl6JET1apXoojVDGbJmiZyYPX7CSMIH4EZ8fSTpg3Y9G/asH3juq0i5lFbynRg29sbpIF2dtBrp06eFbZx0xpVSuwgYPvciRF+ONxE+DakDvx1JAEOJNPmxwiqly8a1gh5NA+j5onjFl8LFM0adeSwEWV7e4PJIDgkEgtirGoMBMHVqNyIePtoIhKd4hxYZ9Vk5UMO6gdji889cEIM+b5182+slNlNXrVEnDxhBK2bdyIgnJzE8WF60noBBas5cmbbuf33Y0dOcraCcxDaKLnotIVFotXnnxJAN2XSTE5GPHz4mGD1Txu9O0LZqUtbdsOft+jCkUJiJHlB0+gRE3SWRg5tnj55hlO8RB6wlFarUZmowOFDv184fykvh4A+7+NatGA5IbWWTldevXqNU3P46mgmx0GXLlnNeU4C/Whjnfo18uTN2afnIL5qAfKc8+btzv2/MvN+yShjZZXhbj07JkvuSWfhlQcQjiNzBon4U0IXI9UL+Fx5uS89jrmYjcIXn/cgdKhbzy8sERk6oj/HNKiXgBiGHG5pDqEkS56sW693RaxmsESZdHQXgmN4BQVuEd6CcP36jQIF370cAg2VUzCTf5j+Oji4SbOPJRFLAxsPVIaM6Xb+9gfvzRXHrrr2aB8ecWQGyjQWZY6XrMybs1iHnzjx6EMQRLYDZfvcsZ2mac6fZy/ivAADFV/n6pUbkAAF/nbCJoSBpNN8U6yikCLe70N7sAAAIABJREFUbjJ18myWCWZrp3a9LHmlo0DcqIiOHDbKKV4LtGHtFuShjd9eiVWvhM/Va4Y3HV25hjs/+rhEjULjpg0WLVjWpYPBNYsJrnzFMpboYMBv0fSdTOds5K8r55m+wYkDCBu2Lfv6y6GcbRV02ORpjdIiccz4Ee1bd29Quzm3+AXHTxopKVuq3cb0sT+MMETjj58+7jvDtzNQazAhirIE83NQgtcVcOCNFAbHzJ8ni6O3ZolzDgKFo2r5+qyIdx5fhuyS5XOHDPz2m0HfiXceYB3F9M3xVLPFSezavT0mzdJFDcGSWBeIDZaLMasRb1/glQCSAQ67mn3XWJSxAnZ9hum+TdtXfN17KDEloglM4+VrFxAWbqlFZtPxuQJ7r64DUIzIwLnq1RsX67z8pFKVcr+u/BnHFgEx5IdPVDHONQldihSrGcyyIRJdXJ15I/uE7w0xCmDevOUnHI+U+TEtcMKeo6fSvsUjnYGN7sLp3MJ5y5erUHrjtuW80mDF2l9A7JMGrQVNBhWvvtDhJ048+g8FETOUEJlIoWT73IkUWdPMnAEmkpp0HHzYq2rX/SfqOSEMJJ3mm2IV2RTCwIkxmjtrIRsw5mmf/j0Qp+fPvZfTQDpy2IhtAmzbd2yNtsQfB8cGDPlXxJLZNhpe0Gb2gaXEEiWK79izxtJTq+mYcMV5Ras5318GrMo3/W4lSmRn9QXD6IMP7j3ghRvwbKoHaDnEDoEgxjNt6TAChgdeKEbVQtnERI9fXxs/H532ErsOcezb8KmNmoQmIsD76nXq4gSg1eqwnEOHtwxp/fqCuJOzE2qT1SgEakRX5RgI2IrDhEbtwsDA20uINwQoS5BGEyurDMMD/YWTnrcPRRZ2NDNescVbX8DKx9vXzc3V9vfSs3HHEsC7EU3DJgQbVjOY5ZZjeNhsQkLeZM6cQQQkymycX23asA3vxtC+xJOnOgMbDon2ABltdCeM4RyFc6OgKrP8xE5i3WqfWhZEyLR/xQKbsvQhCCJTrvRTbJk7+hT0nzJxbt68Q9AlkY+satrM8XggyWbqNF8fN9ufYqgjpIkza5hpkcwsvkY4207Kak59OawtjjDkdbEsTJbEu9eJS9s27546dSqlYltjsNpOlUEh8CEjIDWGD5lJyVv71t14SSgaQ5zgNlJMRlNjiFRdKnM8Hkiqc60ioNUYYtUrYZUzlUEhoBCIPgJYHTA1bdu8c8e235euevd60OiTVRQSGgJqICW0HrfaXqUxWIVIZVAIxDEEeDdzx7aG0Kr+g76sWbtqHONesfvBIKAG0gfTFR8KIzGrMSR6+7/IRUV8KDAoPhQCtiHQo3fnzzu0+MBHOR8MO3hiNzEHuEs/cFb1UTe8mSwKDTB8P1OfsHpqEwLxZiDZ1NoEn8n+f3bh/7Py2rSY1RjeWgk3SvBdogCI6wjwQVH+PvBW8LZN07dbfuA8m2cvagv/WwSREkXmEY1UavwZSJFqdkLNbFVdAJhYfR9DQu0I1W6FgEJAIaAQUAjEeQSUxhDnu1A1QCGgEFAIKAQUArGAgNIYYgFkVYVCQCGgEFAIKATiPAJKY4jzXagaoBBQCCgEFAIKgVhAQGkMsQByJKrgDD0v5Y1EgfiYlTdjftl9AN/Nio+N+3DbxOf1BvQZxrcuY4TFmdPmzZ9r8QsUqotjBOQoEDFCfu8f+/nOiPYzaVGgGc0ifGyFged1+lw06ajisYCA0hhiAeRIVHH2zIU1K//1uchIFI4vWRFqq5avv3TxSnxpUNxoxzVv38ULVwQFvY4RdvlS1+6d+yyRUl1sCZn3nW6E/IZ1W3+Z9yvfHnvf9erQf/kikIHne91PJ4969IEgoDSGD6QjFBsKAYWAQiC2ERg3cdShE7tt/zaKKX98BYYvzK1avs70kUqJfwgojSH+9alqkUJAIaAQsAkBvjfGF+Zsymoh05s3oXwm29//uYXnKjleIRCzb3D6QKHhY4kXL1x+9iwgR45sfK5XyyUfEztx7DRf7uJbi8VLFNH5uiNutvTp0/Jdx7/2H+b7Y4UK5y9QKB+kXr0K2vvHX4EvXxYsXIAvWQvifADw+vUbefLmcnFxFil4Ci9dvJo1a2ZewycZ4EORZ7zOhYaG5cr1UcHC+bWMPXz4eP++g3xYmS+D82Foq8j6eF+/esUnPCwcOkbf5KSWc2cuhIWH5S+QN2euj3RIYbGkmXzYkw/yFitRROdDhXzu7P79h4AgEfO7cYu30Ev6or3Zs2d1j3jfUWho6KmTZ8jj6uJSolRR7beh+WScj48vBd+EvDl08CifUOMzm0ZMXvPxffHiJd+V5mPB4hEpsOri7Fy2Qik+zisSTUlRxFJ7eYmy4dvr3tednZyKFCvE9/pEzsCXgWe8zt+79yBdujSwKj8uR5P5eCDjh//7/zxEqdLlSpp+AF1bnS1FYOPkCa/r125Aik/iOjsbBgxfVuSL9YWLFNB+3vPWzTv+z/zlOOFb20cOHn8dHFyseCE+Sy3rFQM1eYpkf8GkszPfrbaEAOmMyQvnLyVJ4laxUlmz2a5c9uYL5jDJYM6XP7fMY+MIJz8W72NHT9olsitTvlSqVCnM1iISzfapTv64+MjSlGfUgRLfv0XClC5TQvsNUqY2s4xJwXA9f+4SXxCtXKU8A4NOOfjXET5bmi17Fr7YLoeKzM90O3r4eCI7u/IVSqfPkM4sXHKIyqeRmheMyXv3DB6Nu3fuMfAYSOLbvKS8fh18+OBRvpKKRoJoNaodmXz08Imw8PCykfzWvNlWqMRYQyD+awwjvxk7b85ihjKf8kTINmxcb/7i6QLfXxetHD5kDEsCE5Lom1nzfmzWvJFZ6FnwalVp/NXX3ZHCfAuY1etV4KuBQ/vU/7h2i6YdWGhfvgwk5ZuR/Xv37QaFI4ePt/ms85+Hd0gdghkFhbm//PRJ0wZkIL6s75dDN2/czlvVXF1dqX31hkVVqlUUtRP/2LNb/+TJPe/fe+js4rxw6awqVSuYZYxE1ulmjdoeOXSc70fDRvDr4FFjhnTp3p5HMDag7/BlS1bzdWnB85lLBy3pHywe7Vp1u33rDt/sRnKB2KJls1nDzNZ78rhXh8977Ny7oWixQiJD25Zd7t19cNn3hNAh/tj9Z/vW3U+d/wuN4cTx0907fe1342bKlMkDAl7AVdeeX4wcPUjIuJMnznzauO3s+VNGDP2eent82WnYqAHaSnf9tgdSzVt+MmX6ONL5SuzAr0fQKE9Pj6CgIAdHx5lzJ9VrUItHpqSAwiz/3levde3Y5/zZi2hFKDc4728+uMD6un7tlkH9RoQEh/CJc4QaCsf6rcvEOrdw/jK+cz173pRe3QfQNTQ2SVK3ZavmlypT3GwVJFotQhUd2vQAH6p48uQZWsvKdQuRsIcPHevZpd+m7Su0+Lf6tCMfoV62en4E5aWjhhnQcHRyfPH8JaOOscetGKh85x51E4mMzrH7z01m2UOg9+ranxGY2C0xXcZes9ln/xr8KEbdO/flM8f0IEotw5t3Bs9dMFWovFZHuKj059mL4DNZcs/Hj56gPf84fVzTTxua8qPTp6aZ42iKzpRHEH07YjzufNQFgErqnmTC5NESqD69Bru5udH1G9dvdXRwePz4KYJi7i9T27bsSqwPmiurco1aVRgYYkKJ/KiAY7+bnC59GgYq/Ttxynct2zQzhU4MUb7eLh5Fdl78OHEGM5Gys2cs4I+5sHWn4Zax1+WLrxhCyZJ5wHDlqhUWL58j1f1pU+ZM+H4qqomHhztyadDQPqaMqZQPE4H475Vgfdqyc9VVv1OXrh8f+8MIROTOHX/QGb7Xb/TvM6xL9w5XbpxknTvmtQfxqt9J8+YsYj07d+XwFd8TdevXnDxhOkvsiNGDREqdejUmjvsJ24A+EfH0i7a99u7ZP2/RtOt3zlL7nr+2SMMAVr7pU+fuP7yD5fbIqT/c3ZOKtcESWfKzxpw8tx82vP1ONWhY+7uRE9ihkh9rIcJoxdoFPLpx99zmHSsxHliig6hq16EFTfO6eODM5YMIr+FDv7eUuUq1Cs7OTvv2/CUysJth8xQY+Or0qbMi5c+9B/MVyJMxU3p2IShVrIjHvPZevHbc9+7Zrwf2mjVt3pyZv2iJT500a8z44TfunefDDdp0RE/n9l82bFz3x2ljhUD8dvj4NSs3Llg8gz71vulVs1aVvr2GsOWVpSyRkhlQHJt83AbVave+jfS+791z6Ebi2/BPHj+dMm2czy2vs5cP7dq7gWisGVPnyoJAzRGAA0d3iq5B1UPLsQSRSNcpggMYtfLBg4d7D2674HPs1Pn9qI8Dvx5OwQYN67BsoL5I4uwv2e637dCSlO1bdw3qN7Jj17bXbp/x9jv93bhhP/04G5VRZl69YkOZsiV5tGTFP8wb8QnnO3f8PmPOxOu3z1y75TVsZP+5MxfKPPDWqnmnK5d91m1e6nPTy/fO2YVLZ7MJ5gyLfnu1T8+fvbB1828nzu674H303NUjhYsW7PfVNyxvphSs9qlpkTiXYmnK05vAwk6GyQtQF68dK1uuFMqcnEq0lM26k5PjFd+TzKDhowYy7+rVaJY3X25SGDmk8MkoQk0lJmdOn0O8nLl8CLFw0edY6bLFhwwYxfqtD1oU5sXYH0ae9z4KWRRWxtuqdYYhhIWsVfOO2E0v+NCc41t+W8UxHPQJUfumDdvGjJrYoVNrRi8yedOOFfN/XqLPmHr64SAQ/zUG5Km0iX3R+XPWOYQvHYDqjZIrDb/E/uhb7ClSoVLZhp/U44LNaN8BPZGq+fLnElsBDBVde3QIDg65eP6dtq7Tx+zb/tx7YNR3Qxp9Ul8sVDg4pGEZFWfkd4PZUkCB/63aNLt04YrO8Sd2h2y+hVGdbxx36tYONq5c8qY45hBWWSS1YAbTpdbaacRhxcple37VJam7wYmQMmUK9vQXzl1iz2q2IW5J3MpXLIs7Rjz9bfvvGPDz5Mu1b88BkUIDa9epzvXPsxeyZceukzVbZm4BasDg3hUqlZESROSvVKUc1hd2IVo7P/bwNi06V61RacbcScJ0gSbErqhLj/YfN65LQbat4yaN8vcPWL/un8XVLCltK+bPWYxm8MuvMwUyQIT+B3Tk6dytXYNGdRwdHbnmKVt8PBSyLF2D0QI1iBQ0PLoGSyw2Hi1xo2udIthOIP7Dj6PzF8hDKezGA4f0YWywz0N1aNykwdZNv0n816zaiHGIrSQ5J02YzpBmnYBnmMeehCmLiHdZtVuSxEhwD093S/Yk1ga2hu2+aNW8ZROAhchnrZrS45ICvDFNxk8cxaggkQz1P67Vs3dntG0cKEZttHTL9hGbhLCH063TZv3wOuj1yqVrjfLb0qeWqogr6TpTnt5Et540dYyYeilSJJ85dzLmq59n/aPAYWNgZyKmQI/enbD6PH/+4rtx3wjp0bVnB8Ta6ZPvlHUwwfaGMUzYxrAJTZk+HpPSSmvBiVGYFwxUtjTU6OLiwnhDLHA9d9YvYWHhsxdMEe7C0mVLtGzdTI7PaVPmIu4Qy5QlMyNZmMfiSlcmcD7jv1cCtQBtnR0Y+0X2wQzlp0/96XXWA1bZAX2H3b//oHmLT8R01R8NuO1lBrFClyhZTKYIyWhVkSc/WwQm/6ct/hHQ2np5VLzkP24/Flqa8OjhE7FQmeVQuAxPnTx7w9fv6mUf8jyLaGOdutXZcDdt+Hn/Qb3r1Ksu5ItZCiKRhWT/vkMXz1+O8LaeRyVCMMkoAaOCtetWGzZ4DKEDaCHsVuvUq4mNnePd/Qb2YpPBulKzjuE7y4cPHS9avLCRG7VqtUoH9h/BhyoDGtDGjOjf8rv9WZP2JUoW/fmXn8RyTgaCTrBgY8xkSZP5Ea++mmXMlJQRZdQanCm58+Q0CwXGJ7FsYzgh/iNN2lQyG11TrERheYv/GIUAT0qGjAYdwuxPp8jhg8doF+qdbMujRwYDFdChvLZo3RT7EIpX9ZpV6AjsDe06tKQHsabgTGnS7GPt+yoYvdc1h9MsBSVIDk+dOAOMWMW0PBcrXnj5r2tECvOFumrXM+h88le1esUfxk5lNpkGmmizyWs2wVqVhZGcPkPaa9d8jTLb0qdm6cehREtTHlcFvclHyYU2IFqEQlC8RFGtjSFXnhwiwIUM9AsBVQw5mYIWnjJViocP/zEhEHSCb1Hiw8bDgLyPMfJGAEZ5XhjROXTwWJYsGRljMh3Fl2mCrED1pL2ICGEvFBlMoxziUM8mNFbjucaAnRzD77EjJ1mDWSGq1aiEvY4FmG5ma75999rRI38YMXTs96Mnd+/VsW//HnJlMjsOXCKUYvFzsDdA55r4nxTMhqSEhxuI6/9YGFKkSCaDIo0yE+0oo+145BQRCsfKZInm5UtXaSP7bGIkWWnYhiJrRBuJktv820qDDbBNd1SckaMHCxuJWVJYC7/qORi/I2oQS4KTsxP6h6BjNn+tOtWwjRMHWq586aOHT/4084dbN29jOUAIss6xv2EFoiDBeqbfUSSugkf0jqSMyDOqZcf231G/xowfpkXD/1kA2aZMnMm2V5uf7awOKSPK4F+02D8Lv/bpqOHjZ0+fnzd/brTDosUL4al5+fIfynSNMD+IIqJr0EGN6GtvdYoQdYsq0KNLP21+ogoC/A1tLFmqGL25fu1WNAbWG4wirT5vTjodzf9tW3b+FuFckz9WEXltCqY2J9dPnzzlvzb+lFstzvBG7KS2sWRIlSqi114GGlGzdOuZzNPoETtRooyNEm3pU0tVxJV0S1NeHDFInTa1UUNSpU5BRKpMBDdtBnsHB9e/Q4BFuqOjk1ZEmEUe7V8frijPC5MO9ceCSxyDNp2BTaQOihEiJU26NNpHRsNMn0n19L9FIJ5rDLx17sSxU/sObZMeB0J1JOKEChI0hwvgp8mzCEFwcLDv279njPSHUP9fvfpnRdQ62tkiM3lwNMhdQnQqRePBmP/noe3CJIgrYeL4aZIg+vuGrcsw748c+n3nDr1pMkZC0+pghkjMRp/Uw8EhtjvErOm/S4pdDtZF9iWcFsmdNycaCWFWid1c0SEMO+NaVQQdQgtxjhjVSHw1mwx8HzJdu+cQiTgILl+8ikMXuGRMqAi7W7V+kdlWiIKmpIxqd/dwv3vXmCXy4G0lwALjOft7UQT9UqsxmOIWnRSQQcskhsCS7adFq6ZTJs8iKpO4DZRdYWQi3pNKcYp9PaCXpdqtIpA4cWLKsu2Tke3cYmyTBDEsoaMYDVFsQmQQm1f9ES7oBAb+S7dAPSL+lwgYI7Zt6VNLLY0r6ZamPAo6ncXZK6OG3L/7QGskiGwzzSKPiUifTkzNC/QVzG9rN/3jJpP1EuLNNQNPy4l24OlzqJ7+5wjE8zgGlhzs4VJdwDUbYHJuGA/r9xNGFCla8MD+wzHVH9gAIcVRKEkQa7+8Ll+xDBuClcvXx0h12BhKlCom1AUIcvDPlCzn4gjuI/3AX0dMn5Jy5/Y9bIYVK5eT1lFOhZjNqU2sXaca299dO/4gDoB0LDSVqpQnuAEkRRADiRWrlMPDyslPWZBNxuaNO3A34PjUqQJJOm32D0RLEF7KKTKRkzOfrK+YH3QKWn1UoWIZWAI3o5yMFlIqVy0v0jGBnDjuZZValDNgRcAlsef3/ZYoEFgQ9CrIYE7Y/vvn7VuIbJis8+TNuWvHHh3zjyWCMl0EcGzZtEOmQG37ll3ylvAFhigRlFpSxOqjmxJTSaL+CBelGP/aOMdNG7ajXBI2b8RejPSp1Sb/txksTXk8ejjINqzbog1UQjM7euREteqVoswzyGtDsC0hb0Q/avPC3t6wiBCrJKkxsPGQmvXPooniImFIa0cvR8Oi3FJVMJYRiOcaw0c5s+OS58gAVlZWnb69h2IcExCzhE/+YQbx5+z+ecTrEwoUNLxfIUZ+HF7gYB7G80MHjhIcQNja0iWrJGXs+RxDYtPPsU9c/ndu3+WwHNvZqFWdI2e2ndt/x/NCRatXrCcwUNLBTkDbI87xB6xeuYFZWqBgXrO14G9mMVi0YBlefDaCODJ4fYLZnNrE2vVqAC+6Rb0IjYFfjZpVWN6eP38pt5LdenbkcF3r5p3w1hPjxhnObh37EJg5/NuBVuljriQ+kX5p06ILBgDyo961+vxTgsKmTJpJnAFiEZXl00ZtrZLSZuDAC3s+WCK8nCWNSEOcEeyAxYZ76uTZJDIwOrXrFZ1V2SpLderXYO3v03PQujWbEa8crGec9P/qG1kQgxD7wmk/zmbzx5iR6V/160HvdO/UF9MRA5trSjEArNYoMyC1631ca9GC5TN/+pn3JYAAhzm1L+GpVqMy0akclmFkMj6BeurkWeTHtiFMAvojXFSE9tm2RRfYQ01nVHwzcDSOKhG8qWU1RvrU9rb/Jzl1pvzQEf2ZoYxGgGILTnQLp1SSJU/WrdcXUWaVVbxdy65a5FnFTZE3oh+1ecEkzZAx3c7f/mAg4ceEZtce7cMjztogVxmfqOYcp0TWieq69vgCO2ivbgN4bwRFpk+Zq43IQVI1rNtCG8YbZRBUwfeBQDzXGLr3/ALBx0tMc2ct3rFtr8Hf9GWpEDi6uDrPmbmgYuk6OTIX+axJB043xWDILrJy+pyJzNvG9VvlzV5y+pQ5HOyU/cfT5asXsC/nhFuxAhWL5q/IjOK9C1Hr4DHjR7glSdKgdnMq4uzf+EkjtXQ4uFW8YKVcWYtxABpTSu26/4plkzmJW+asPMe7SxetXiRfBR+f60R1WOWHkyasaihh+f9WRDCeE//IEQNp82A94L0CaCQEW+T7qFTlsnXPnb24fO0CDm5YpU8G9BgOmmfKlL5lsy+EUgWSbdp9Nmn89JKFqxTIWZpXNRAXZgspmQf//YZty9KkSY31In+OUuVL1jr01xFMGrBNOMviX5aTWL1iw+Ili/KqnEhRjlRmRC1vXyBmgrW/QK4yJQpVRlGjUi0RgswvX/LmUIbWc8HxHE5YYJyoUq4eA7tu9aaoYuIoiu0MTJv5A0vItyMmFM5bvnLZeoT19O7bVRYHjSXL537cqM43g75jfAL17OkL8N/xShKRR3+EizysUoyHj2t/ljNLUV4ewMuvfl01z6wLJvp9anvD/5OcOlOeoz2/rvzZ78btOtWa5MlWAomBq4Ipw6GJKLNKKFKtutUa1mkhkC9SrODiFXOk+dAS2SjPC5Qer1PnGEh9eg2BOMe+Vqz9hXiXTxq0ZnxWKlMXmyI8iHo7dW3bp1+PTeu3lStRkyJ7/tj/06wJkqVnz54RCcvrXiwxqdL/WwQMLw6LFAclShTfseddQHWkCv6Hmdk0G174mDMbzlesf8gsEeHIuTg2diEhbzJnzqBz7DDKnGPX5f2JnMhn82rWtczey/CCRfek7PmszmcdNtgfs9enOrFLxtaNg1wQxNdw8+YdDl8RZ6ANbTNLDZc5J0o8Pd1x5UATzi2FZ5otrp/INhpzKz5OcXBUP7PVp7SLJtNrePf141V1SMEPLlUcxug9Mhu7IvzKRGmwmeZAARPEKm46VdjyCGRQs4gGhQ2z48QsEXgj+p1ezpgpg3w3jtmcOonUS+0ZM2ew9H5PgTNhsBgVTBd7qyOcqtk1EhJL06w65iPVp3WrfWpZECHT/hUYq4NALD/SmfJs0LF38kpHbXxPFNhj88BpzFXrF4q6bEHeqJYozAs4J1yJqY3qKanRosCXr2iR6egiPpr5S3St6TkjBiRWSRUOGYWuf09FvE5c2rZ599SpU6GfIDSG94SjIqsQUAj8VwjEUY0hFuCSGkMs1KWqSAgIaDWGeO6VSAjdqdqoEFAIKAQUAgqBWEBAaQyxALKqQiGgEFAIKAQUAnEegXj+PoY43z+qAQoBhYBCIDII/PDjd7z4OzIlVF6FgK0IKI3BVqRUPoWAQkAh8OEjoP0o+YfPreIwbiGgNIa41V+KW4WAQsAaAokI6LaWRz1XCCgE/o2AHSch/mdl5iiNQY0ahYBCIH4h8PZDPVsZv2BWrYlnCFhVF2ivinyMZ52umqMQUAgoBBQCCoH3goDSGN4LrIqoQkAhoBBQCCgE4hkCSmOIZx2qmqMQUAgoBBQCCoH3gkA81xh4i+2X3Qdov3RihOKcmb/w916gjWmie//YP2TAt9pv3MV0DXGJnikavHSWb1xVKlMnsp+xsTpIYgcX3llO/+75/c8oV8fXnqAQ5eJGBfkq0oA+w7yi+oG0mGJD0VEIKAQ+HATiv8awavl6PrBkCfH5cxfPnRU3NIYN67ayFvK1N0ttSVDpRmjw2Rs+4XP92o1WnzfngzqRggKNQX+QRIpalDPfu/uA/l23ZkuUKfAJ76WLV0a5uFHBly8CFy9cwXdGYoqgoqMQUAjEdQQS+lmJbbvW2P7tn/+2s8dNHMWXA7Nmy/LfsvGB1G6EBh9y5HtjazctEd/i0mdy1vT5fGtn9Nh/viutnz92nmbJmunQid2RVXdih7eYrYUPFA0bPIbPnefOkzNmKStqCgGFwHtFIJ7bGKxiF4UPu1ml+Z4y8FE4vh/4nojHObJGaNy+fZcmsOja0pAtG3f43bhlS85YzkP/aj/9F8u1x1p1mIJ2/bbnTcibWKtRVaQQUAjECAIJxcbAN4sPHTjKOpE1W+ay5UtJu4KP93W+F5z9o6wSzTOnz/n4+Lq6upQoVSx16pS2oPz6dfDhg0cfPXqCxC9eooi2CNbyM17n7917kC5dmhKlisrvJvNhX2rJmesj5Oahg0fZGefKnQOfcfr0afnqsWCVxFJliktqbIv5DmyhIgVEin5mkefihSsXL1xOksStYuVyBEDwae8CBfPKb0PzWWc+RR8Q8JyFFrZt+dw2MJ484YXEBxlg5OvhVHT71t3Hj58ULlJAa625dfOO/zP/goXzC06ePHl65ODx18HBxYoXypY9q2yULa3Q4mmKBiyB8J0IjeHsmQtia/72AAAgAElEQVR8kTlP3lyWPtJNkxkDr169otXCQ1+kaEFJ09Ig0WmC2X4U+fkUNVW4ODuXrVAqefJkZlthlCjQkF+F5nvWRw6duH//QapUKUqVKWH7J60DA18d2H/4xYuXdApjTFuLpQEp8vDx66OHT4SFh5ctV9IWhkUeOTLBlulTvlKZFCmS84jJdfWKT3hYOMNAKnOXLl5l/PD0yhWf0LCwtGlTS7OKpUFiOycqp0JAIfBeEUgQGkPQq6CmDducP3uJ5QSpVL1m5eVrFojlrU+vweJb8qBMqFeb5p1PnzqLyH786EnGTOmPnt5jFX0kbJcvvjJ80z2Zx+PHTytXrbB4+Rwh3Nev3TKo34iQ4BAPTw9kMTrB+q3LkP7QPHnizKeN286eP2XE0O8fPXzc48tOw0YNqFWlcb+BvY4cPnHh3CXWb/hp9En9eYumCR4Wzl82a/q8Ww8vcRsaGqqfOSjodY8uX2/bvDOxW2J7e7skSZI0bd5wxtSfz189IhakXxetHD5kDBqMqGjWvB+bNW+k31ia0KFNjxPHT9OEJ0+eZcqcYeW6hShJhw8d69ml36btK9AhJIVWn3bMnCXjstXzSVk4f+moYeO4cHRyfPH8Ze++3b4Z2d+WVujwI9EIDg4BCpGzbvWmXPx5eEfefLnMlv191z5YFY9EqbtP3sW46AwSnSaY9uOoMUNY6Qd+PWLZktWenh5BQUEOjo4z506q16CWWZZkouhThgH4kHjq5BnQRuty93BndLVu2/zHaWP1KYinhw8eoyDaD3oD0ZSdu7X7fsII8UhnQJJh2pQ5E76fSkEPD3e0jUFD+9hSHXlEX8z95afO7XvT9qWr5lWpVqFZo7ZHDh3HhvfyZWDw62Bg6dK9PZnbteqGV4KL7p368r9v/55Dhn8dQcT8ILGRB5VNIaAQiAUEEoRXYu7sRTVqVb1y4+Sl68eRUH/s/nP71t2m4A4f8r2f363jZ/aduXTwxr1zEyZbDztne92qecdcuT664HP04rXjW35bdfzYqdkzFgjiTx4/nTJtnM8tr7OXD+3au4EgshlT52rrnTpp1pjxw2/cO9+jd2eRPmfWwrr1a171O3XZ9wRRC5s2bPtj9z5TVq1mHjFkzO87986YM/HaLS+fm16Dv+k7Z8Y/AZ6+12/07zOsS/cOYEJFx7z2sBm1VItIDwsLa/NZ5wcPHu49uO2Cz7FT5/djhhn49XCeNmhYJ6l7ElYjSeGs1/krl73bdmhJyvatuwb1G9mxa9trt894+53+btywn36czVoiM0eqyaZMYk6A7OBhhuWHtnCdO08O02wipXGT+mTArlCjVhUu+JMWF51BYrUJRv347fDxa1ZuXLB4Bv3ofdOrZq0qfXsNeR7wwhJXZtM7tu2ZM1f2S9dPnLty+OqNUy1aGZQhq7/Q0LAhA79dsnIuPXv9zpmOXdrOm7NYnhXSGZCMtDGjJnbo1JpuYpps2rFi/s9LrFYnM4SHv2XYb9u9xvfO2VKli795E4oqefLcfpj39jvVoGHt70ZOwBBF/j1/bf5lyUwuNu9YCf59B/Tk2irCtnOicioEFALvD4EEoTEUKVqATfw7o0L/Hs7OTl6nzppiSugcHgFMCzxydHSsUq2iaR6jFM5ZhIWFz14wRZidS5ct0bJ1M3m6j+1dg0Z1IEWpwkULsgXHfq6lUKlKuU+aNsAgId0fxUsUFlsxsiFMsQEcO3LKEhuWMmOcWL507eftWzRv2QSzCg1v2abZpy3ebcShRlg+W0npRyCa0sh2bVojjmeY/+HH0fkL5OFp+gzpBg7p89efh72vXkN1aNykwdZNv7FLFgXXrNqYLn1aVmVuJ02Yjstj+KiBrM1wQuswAGgPQFpqhSkPllI8PN2Ff8TdPSnXOu4V+oIMYCIuuJY0dQaJ1SZo+5F1kT13lx7tP25cF+IoNOMmjfL3D1i/LhKHINDPHtx/hFFKGKvgU+ufsoQD6RQcMKg3azbXDJ4x44fRuQt+/lUU0RmQ06bMLVAoH/ocvUlmukzYgXTq0j7CtNCtZ0dUMbckbp7JPIjGmDJ9HFYo8tDvnbq1wxR05ZI3t0mSJkns5mq4SOJGu4T/yCrCNrKhsikEFALvFYEE4ZUoWcogQMUPgYil9OHDR6awftyozuD+o9q36Y5ZuFjxwqYZTFMOHTyWJUvGUyfOyEesmngZcG8jGUlkNy+WVVy8585cSJM2lZZIhUpljWiWLFVMprBapE2Xmm29ab0ixVLm0yfPIMGNzOCsASuWrhUFUV+Q5gP6DsNH3rzFJ0ndk1qqQqZj60b0I/dRHUTio0ePucAnjbbRonVT3Bx/7j1QvWYVFi3sDe06tGRhZmN9/uzFJs0+1r4Sg+qua87sWWqFVZZiNoOlQWJLE7T9SGgI4GPYl0DBZ5Kkbr4Rznsbf0BXt0HNRQuWO7s4f9Hpc7H02lIWnQyPgMwJHVQNHGcyxeyAJLiBbsIjpo1EMYrIsVp7xX8PZhHcc+rkWXwQVy/7UPzZU3+zRGxB2GxBlagQUAj8n72zAI8q5/r4uy/utou7S9EWd9dlcXenZYHiDot7seLu7lDcoUgpRUuhuBSn6H6wlPf7DWEvlzt37kzbKZSSefrATOTk5J/k5OTkJPnGCPwUGkOs2DHVsLL24gi+OdCt2jZlMpswZmqlMrWYxkzr6ZzZzJOpQ9hmZr2OH4M6ENcBtvnRGIYMHD1j6txsObLkyp0jr2MufCNev36tTvnrJ58G9SdGTNPyS/nAKhOwJo3y01JiCiINipGGlPKTJeD23WuHDh47qN/IEUMndOzU2rWHs2Kf1y0On0E4cf7XCUCkoaYvAl/wHbjQG9av3YrGcGDfYazf3ItAOGtr/t22ZecOj71qsjh4Kj8t1UKXjbALtNRJbKmCuh0Dn5uq7DbO/T+//KLmFs+AYDE/ffaEyRNmYB5gOwlD1LDRA4Q7oTGRqFGjsMpXp4kRPdrLFy9FiKUO+exZIDanJF/fYyFsY8bFKbF01Ljxvuidl32vsIcFdFg76BhYm3APoghdarYgrJtRBkoEJALfGIGfQmOwHdO69WvgAIijQ79eQ2tXb3rSZ79aDprTiZ8gfrr0adZu+mz1VSfAoWH6lDlTpo9l/S3CcSPXaAzqJZ058RCHxIhhUjvQG9R7DZgT1ATRJ3DHGzysz+QJ08eNmhw5ciQ8PAxKTJAgPrMRXhEsW3WTsdHuNmE6Hpds4ZcpV0Js7uD6R2K2V7r17KSbK/wH2lIFdTtik6dSq9YvZIsqNLVjn6VXv65/unZYtXwdfqMYrtZssu5YgAMB3o7KkRwYuHXrbrLkpiutDDqk0JYoQs2wpsMY1+Vr7eg/aKJYyA4e2y7UFzx5x43+7MBrTscWhM1zyRCJgETg2yPwU/gxBAtWpD9LohFjBuINwNFE47ysrbG74spunuzypSsElixdVEThuO51ysc8WViEsOkA2a2bdyjEsalwbsK8LPwncKRn+5nDeOax6hBqypYEFyVZSlavYU2OG5jMCdv34EIhkqFvZc2WaZfHPkvrS0vUwjQ8UuRI1MXGIoJbhXxOeVCqPLbvsZG+cTI20Vq0btyiTZOjR07YgiENfejAMYUmnrlHDx/n/A4hBh0SLxwOttB26iJ0O4wxt0osNgYOJyvWjkMHv7BEmkiRTAuVd+8/N0FwEbaRB5lMIiARsDsCUmP4Aqm41Z9rFThfznTLIim9tRuT2ju3+BgU1KheG+QydnsEJUfU8E6HqLh8cNKEGRDk4ECb5p1skfh2aWDOvletXhH/O/cpc6gLZ+J5cCEw8LNpmiKYVCaMnQZXbCHD+fXrNx1yZjcuulLVcsz9XV16r1uzGQ2Jqx1wb+zR5cu1iRgtSpctPmXiDE4DVqhURqHWpbszBwU5SsflEEDEd3KdPH7auLgwjU2TNjWuHhcvXObKBFsaJVhVQAlr1LTu7OkL3Ma747zy6NETtmnq/tEsWDV69fJVZ+deYPUi8CXNd/SQZ3aHrLZYpPD6xDzmsW03UGPTatXUOUbM6O2dW1rtkO2dW2EJ6NShJ5cocBP5VLdZBq+xWK1Lxkzpdm7fQytzmHn1ivV0RXUWcTfDhrVb8BIVF2kEC2GrpcsEEgGJQBghIDWGL8BilW1Qu1WOjAVyZS2CsFuyco7VG5y4jGjF2vk4jtWs1jhLWscShSpv3uiRJ59pic/JCPwDFs1fDsGyxas75s9bstRne0MYtaWa7BT3MeUrluaYH3UpVaQquycunduQIHIU0/IueoxoM93nFS9YKWPqPPVrtaxeo4pVx3h2tbl9AZ8M5n6HzIWccpXkMB6VUhfKOZHLvlcbNamj3rmoXbc6HiEYJ0oVqQJEXJnAPME9Wt8ABEtFuHRuCw6li1Ytmr+CrkeLJmNwqzBy7KAmzeuPHz01f+5SDpkKtmjcMbPlA5+6TEaKHJlbvPCnyZQmb7ECFTm8umjZDN2UmsAoUSIPG9W/q0sfoC5fqgaWrdUbFnGwhWTGHbJN+2ZduztvWr+tiFP53NmK7tt7aPL0MbaUqJtm+OhBsWLHrlaxXrb0+VFbR48frE5G62M4mT1jYfYMBZYvWUNUcBHWLVQGSgQkAmGNwC+2rLHUTDg5OXrsMw3yCPnBHvAw4CEXLrENb8uSTgEBh/A3r98mT5mM/X41Miz17t8NSJEyOdvbuNCDtnqPOawx5M4l7AGpUqek9FHDJiK7bz24IKZzdruxE7x//0/q1CnEsQ4bmYEgZDmGilHBdoioOwt6VsApU6Ww/e5CG1kKQTJuwOSty0S/Jvz1V63zqSVqwa0C52UoAmzpS8Zepbol0lW4NxOnRRwSxa1fusl0AzmncO3qdbwTzF8hMe6Q2DbgOWGiBPRYXcq2B+InCykUMmFsYxsIPxj1wVesX9y8SayiXwYL4cpl6kZgQWQ7zjKlRCCsEfDx8t22efekSZMoSGoMYY12uKCP+MbSwEzAzYzhgiHJhEQgdAhIjSF0+MncEgFbEVBrDHJXwlbUfqx07pNncw8Ea02Wqiz12rfqitdCl26m64flRyIgEZAISAQkAiFAQJ6uDAFoP0AWbqTmugUY5YJL9AbM2tNmjS9TruQPwLpkUSIgEZAISATCJQL21Ri4skb/kpZwWfeIzNT4ySNGjh3MM0hcYm261SdWzF/+K+1JEbnFI2TduObBwrVPEbK6slISgfCOgH01BqkuhKP2jhotKn/hiCHJikQgmAhIdSGYgMnkEoGwRUCuO8MWX0ldIiARkAhIBCQCEQMBqTFEjHaUtZAISAQkAhIBiUDYIiA1hrDFV1KXCEgEJAISAYlAxEBAagwRox1lLSQCEgGJgERAIhC2CEiNIYT4cslBF5fe/BvC/DKbREAiIBGQCEgEfigEpMYQwuY64XlqxdK1XP4fwvwym0RAIiARkAhIBH4oBKTGoNNcPBLRpH5bLklU4rhlmbcEVy1fp4TUa1hr/9FtDZvU0ckvgyQCEgGJgERAIhDhEJAag06TXr92c9eOff+8/0eJ++efDyuXrVM/GM0jTDlse4BYpwAZJBGQCEgEJAISgR8NAfve4BROa4+3wfmzF4M+BuVwyJYpcwaFS65P9jx6gvcqM2RM5+iUR4T7XrqCxsB3Pz//D0FBSZMmRl0ICHhAyP17AT5nzseOHYsH93iZ0N//BtS4TpEo/6vXeZcvfYa0ZPfxPpck6W+FixaMESO6GhEe6+MR7aCPH4sULZAgYfxLF/3Spk3Nq5LhFDXJlkRAIiARkAhIBFQIRHCNgcd2e7oOXLZ4Na8zv3r1+u2bt2d9jyZLnhQETnh6tWvVhbebEySI9+TJs5Kliy1aPpOHmJs36sCuBAk6tnHlX9ceLo8ePYYC32dMm8dfgUKOW3euPu11tm6NZtv3rHXKn5eorp36xIoVK7tDlnmzFidMlBDdImu2TOu3LlMeU544btr40VNJGS9e3NevX/fp7/rXoDGz5k+uWbua7JASAYmAREAiIBEI/whE8F0JthKWLFy5Yu28836eN++f3+yxMk6c2LTK3Tv3G9VrnTlzhov+Jy5dO7Vlx6pTJ73RBojad3jz/MXufCHx1VtnXHu68EDDhasmD8f+g3sQsmrdAt12PXni9P27AX43vX0uHVm5br7fZf/pU+eKlBvWbR093K1V2ybX7p71vX5qw7blM6frE9GlLAMlAhIBiYBEQCLw3RGI4BrDvXsBOBzkzptTAF2oSP7YnzSGWdPn80TTjHluCRMm4GfBwk4NG9eZP2cJ30kQM1YM05fYseLFjxs9ejQ2F+LGjUNI9OjRCYkVO5Zus0WOHGnilJFiJ4JXIjFFsAchUrpPmZPdIeuwUQNELGaJgUN66hKRgRIBiYBEQCIgEQifCERwjaFS5bKRI0euXb3pti27OO+gtMGxoyfTpEnp7XUWD0fx9+HDh8ePnuCdEOJ2ypY9i1qZSJc+zcMHj6H25s1bvCiqVC2P7qIQd/y0lyE/EgGJgERAIiAR+FEQiOB+DDlz59i8Y+XwIeNaNumYKnWKwUP7VK9ZhbYJfB4YcP8hfgzqdooZK+bTp8+FESIE7RcjhskyoXx4OfLjR5OO8uzp8//973+JkyZWx0aJEiUERcgsEgGJgERAIiAR+F4IRHCNAVg5BLFh6zIOJgzuN6Jty85JkiZmDyJ+gvjYANZuMm1DhPUnRkzTiYknj5+qC3rw4GFYlyvpSwQkAhIBiYBEwI4IRPBdCQWp7DmyLFw2g59HDh/n3/wF8nmfPsdBCV0oI0UyKVLv3r9XYiNFMgH1/t2XEN2MuoEcl8C8sX3rLiwNSoItGz10E8tAiYBEQCIgEZAIhE8EIrjGMHvGQo5L3Ll9L/D5i9UrNzBnO+TMRku0d27xMSioUb02Rw8ff/488LLvlSluM+fMXCQaKU3aVHzZsHbLkydP7929z3c2EVKkTLZzx96A+w/E2ctgNWfHTq0vnLv0Z8de1/xvQNBtvPvunfvVFDic+WdH6QsZLFBlYomAREAiIBH4pghEcI0BLLt36e+Ys0TmtPnGjJg0YsygipXLEpgufdoVa+e/ef2mZrXGWdI6lihUefNGjzz5Ph+pSJsudYvWjdE2smcosHzJGtEg/Qb18PE+nztb0a6d+ga3iVq3a9atp8vGdVsLO5bLm6P44YPH3KaOgkiUyJ93hY4c8jx80DO4ZGV6iYBEQCIgEZAIfDMEflGbym0p1cnJ0WPf50nUlvTfPQ3HH27fvhctWlS2BqJGjarhB4PBm9dvk6dMliBBfE0UVzS+ePGS6x0jRYokol6+eMVxzdRpUop7HoNbtVcvX3H7ZKJfEyZPkezg/qNcAMWVDxz4hA6U+TduPNMZTvmRCEgErCJQuUzdH0sQWa2RTCARCJ8I+Hj5btu8e9KkSbAX8T0fOfuAE4OllkibLo2lqKTJkvCnjmVGD82kHiduHM5uCIJbNm7nfknlZ2jIWuJfhksEJAISAYmARMCOCER8jcGOYIWYFH6O//fuXYWKZbgA6tmz5/PnLF22ZI1L57Yhs1WEmA2ZUSIgEZAISAQkAiFGQGoMIYYuGBnfvn3bo+uAd+/eY1d4+/Zvtkg6dGrVZ4Dp3Qr5kQhIBCQCEgGJwA+BgNQYvkUz1W9Uu3LVCpzIePr0GS9R5cqdI8T3RH0LdmUZEgGJgERAIiARMENAagxmkIRNAJ4KvDQRNrQlVYmAREAiIBGQCIQ5AsHWGH777be61VuGOV+yAImAREAiYBmBhAkTSkFkGR4ZIxGwGwKJkyTJltV0jxGfYGsMjx8/loea7NYUkpBEQCIQIgQMT1dyueqXV99CRF5mkghIBD4jIE5Xih8R/wYn2ewSAYmAREAiIBGQCIQeAakxhB5DSUEiIBGQCEgEJAIRHwGpMUT8NpY1lAhIBCQCEgGJQOgRkBpD6DGUFCQCEgGJgERAIhDxEZAaQ8RvY1lDiYBEQCIgEZAIhB4BqTGEHkNJQSIgEZAISAQkAhEfAakxRPw2ljWUCEgEJAISAYlA6BEIK43hzes34gXn0LP4vSjMdJ/P3zcofdXydeNGTQ5BQe/fv+/b8699ew4GN+/Hjx97dh2wf+8hSxknTZg+fepcS7FhEc474F1cevNvcIlfvXKNuty6eUc3IzX9s2PP3Tv368baGMiL8AvmLq1aoW7ZEtX/7//e2ZjrJ0/2zYaPMc4/hCDyu3yVXnrzxi3jugQ3NsRjKrgFBSt9WHeMsKYfrMqaJ7aLRDIn+81C7K8xMIGVLlYtXYpcGVPnyZO92MJ5y75ZZXQLKl6w0ujhE3WjjAPnzlo0a/q30BiOHD6+Yd1WY2Z0YwPuP5w/Z8m6NVt0Yw0C6bWLFqw4f+6SpTR7dh04uP+opdiwCD/heWrF0rXHjpwILvH79x5Ql8ePn+hmpKarlq/3veSnG2tj4OwZC/v3HlawsFOlymV/kTcD2YbaNxs+ltgJP4Jo66YdaZPn1P0b0GcY/D8IeEQvffLkmaW6hCw8xGMqZMXZmCusO0ZY07exmpaS2UUiWSL+DcKDfeejMU9BQUFNG7Rv0rz+mPF/RYocaemiVb26DYoRIzpPMRlnDLvYgIAHgYEvFfp7dx+YNX3h6g0LrZa4bdeaX8L3/JAmbapjXruTJktitS7hP0G9hrUccuXIniOLYBULx4OAh0NH9g8PnC9bvOr3PyoN+qt3eGDmR+Hh+w6fcCWIsjtkHTikp2i41Ss2sPTv1a+L+Jk1W+awa1DNmAq7ggwoYzgZ0Gf4wL96ZcmaSSQL644R1vQNKvsdo76ZwLSzxsAUu3zNvJKliwrsHJ3yXLpweca0ed9RY9C04rEjJ71P+9jStEmSJrYl2fdNkyFjuu/LgL1Kp+fkcMiqUNuy0SNxkt/sRTyUdO7eDahUpXwoifxs2b/v8AlXgih9hrT8iQ5w+pTPkydPW7dr9g36g2ZMfYMSzYu4fu3mrh37+vR3VaLCumOENX3zOoaHkG8mMO2sMfz3v/9V1AWBY85c2Xd47A0PmP7zzz8XL1x+9OhxUNBHnzPnYSljxnQGr077X71OdZSh/vx5oNfJMy9evGRljyZElHGlHj54dOni5efPX1BKrjwO6sQsgE6d8L59+26KFMkKFcmvjlIKPedz4cJ53+Qpk5UsVZSRz1b60cPHb9+6my59GrIoxg8qkjx5UjG5iu8JEyU4fPBYtGjRihQrCGUDNkS5YILRPkGCeEWKFcIapGbmw4cP0EyaNEnKVMnV4ae9fJIlS5I8RTIDBMzhwq/l+vWbLKqiR48mMr5798730pW0aVPHTxDv9avX/v43MmXOgHMGTglv374FatFMefLmFOkB54qf/8egjzlz56AVNKVj7jt+7NTdu/chmL9gPgP70DX/G1COHi1a4WIFEiZMYFCLgPsPHj58HPThA92GLPHjx0ubLrVID7Bep3zevHmTOnVKpwJ5I0f+PJQwjTx6+JgWpxZnz5wvWqJQokQJDYrAMcLz6InHj5+i/NGvlJSiNX9L/Cs7NZDKmCm9+dunrFbP+pz/8CEoc+YMYKLktcTb/XsBz58F5sj5+VEZ0vP8+p3b9xxyZoN/Xc5BFU5u37oTJ07sfE55EiSIr64LWU4ePx308WORogUSJIx/6aKfaE3SqIeP8p3m9vE+lyTpb4WLFtR0NvIyXmLHjlW8ZBE6Bl1dcGUAnUFUeBZEBmz//ff/4V3EWMiZ2yFb9q/MD0gAxh0TcOLEvxYuWoABbkBHRCljKlasmOoWMWgFkD953Bu7LF29UOH8vLirlKI7apQiANzE+es3efPlYhSLXBQEw3z38/P/EBSUNGliDKJKZ7h75z7KU+48DuqhSm8MfB6odGb65/Gjp/7v3bt8jrnSpU9rtcrqaiqJGYbIFvqbU4F8oGdAhP784MGjXLlzKOKdoYdEUmokRFb69GkFMsaNYiyvFDYA9tWr15mzZIwZM4YBb0TpDkYkrSWBaUDN6rxgKa+dNQbzYm7dupsqVQrz8G8f8vjRkwqlaohyxZc1Gxdr9Bs1V1079YkVK9aq9QsIXLJw5cC+w6NGjUpPevbs+fQ5E+vU+8OgCoP7j5wzcxHiL1KkSHT66jWqzF00VaRHFDZr2A75yFzFAMud10G9rSAKTZ0m5cb1W6NEjszWZqkyxWfNn9SsYXvm9WhRozK1lKtQatnquQwzZnQqMmBIz86uHcT3nn27HDpw9ISnF+Nw98FNBmzADFk6tO66eaNH/PhxKQgNAPuQsi9AAmaRLs69mQm27lytVBbiv1eqz7aOgcagC9dxz1NN6rc96OmhiEImMPifNX9yzdrVTnudrVuj2fY9a29cv+XSrru6me4/9WOo1PmjGQoBCwhAe/d/74YM79uuYwuFq4cBj3BLvHHtJnthr16+RqQuXTk7Ttwv8k6kRGtkm2zZ4tUIxL///jtylCjus8ZXqVZBoaP5MnfW4qmTZhG4fMka/qr9UWn+YneIDOo3EgedyJEjxY4dm/ZFjSNczMQL5i6bPnUOlWrbojMpl66aU6FSGUv0AbNdqy5oGGhsNEHJ0sUWLZ+J4BCt2b1Xp+OeXhfP+4pe90fNqnMWThGkXr185fpnv80btyMHY8SIQZ+kRegqxrzhkLFy2brLN7wUfjy27u7Wud+FK8dROs05T5U6ZfNGHe7euUcsw4f+vHDZDLAV2SeOmzZ+tKlXx4sX9/Xr16wj/xo0RrQmgerhI75nd8gyb9bihIkS0u5Zs2Vav3XZr78mIiXTpHO7bts274wZK2akSP8F0tr1qk+bNFtwZQm64IaHH0FkifNrV6+3b9Xln38+vHzxEkz6DerepVtHkRj53rKJs9epM7/9lujp0+epUqdYuW6BVfuiMqac8udVWsRSK5Bg+9ZdPV0H0tDoqWiWzP3bdq8h3GDUiCKmTB87dtQkNFc4RwMePnpAm/bNyUjnEUj27I4AACAASURBVO6cHduYbAyuPVz6DuymdAzPYycZ6Zu2r1B6FGka1W2N9EO+8R134yEDRvElStQoDGqkXP/BPfhp/FF3PMZFk3ptz3ifowM/efyUlc+JM/sMsmMBatnUeef+DdRdJENW4y7GkBE6xN7dB1s07uh94TAag0GjoGQYyyuFBwwwEKzXsKbbVFNNDT6oX7qDEZ8zc4GpLGB0CRrPC7pZlEArC2XjzFZjUe5Y79apbzS5WiVirwTJkie9eutMe+eWceLG5gt/RYubVuFWPzeu3+zRdUC7ji39bp6m65z02cd8bJyLGW7LzlVXbnn7Xj81cuwgJPvOT4YWZgK6IKvnHfvWQ8r/jo9DzuzISjU1VpxRo0bxu3H60rVTA4f0OrDvcJVydbJlz0LIRf+ThNBFPLbt1mWAXVJWBlRt8QrTPGeJDZF33uwlcePFhQcK2nVgI4ldO/XRkG3UtC7mEBR/JXz1yg0MaeY2XQYIDAFcalI1alWFf+wKKEaimej9iFHk4+nzh877eV695V2tesVhg8ewQFEy9u8zrG375tfvnfO/7eM+ewIL3wnj3M05/Gvg6DUrN85bNI2muXrbp3yFUq6d+hoc6kEDgwdmMufObfkybeZ4aEJk0fzlNOuN++dp3wPHtqMXNqrXhvWWKPHjx/+xE4e0vXHvXIGCjuZsiBDWWI3qtcY8cNH/BE2wZceqUye9yaiknzl9QeWq5WGVrsLksWnDNrxwRGyrZp327zuEAkGVid13eIswuljlzRIzupwjZJu3bOB3w8vn0pGzl48m+jXhwH4jREp8dUcPd2vVtsm1u2cBYcO25XBrQPzkidP37wb43fSG1Mp18/0u+yuHcQb1Hb5n5/5pM8ddu+ND86F5zJxmZ4/jcCWILKE0YuiEye5jzl0+5nvdq0TJIuNGTUGVJDEmSVTthw8f7T+6DQngfeEQamKvbgMt0TEIN2gF1PHWzTrlc8yNonbx6gn6VdcezoKU1VEzavhE91kT4JxuXKxEoeFDxjFVk3ff4c1o0nzZ7LGS4ePa00XNW7XqlRDF69d+cdzGsMqxkWYtG5IM9aV398Gt2zejg5F32KgBkyfOgEmD2plHDew74tatO6fOHjjre/RmwPkxE/4yT6MOKVWmWLRoURG5IpC1O2a8N2/eonOIEPzB8UpB8zBuFKvySlBjwdC2xZ/Va1SeOGWkgU1UJLY0GHUFpnE1jecF47xhqDFg7m7WqAPrnuatGhkz8W1iaZJ48eNiJxBf+G6siClcoWNifVKsZ2nTpVGMVJY4p38rFuZWbZvSCxkMJGayx7owYswgRiY/sc8z8bBCVdPBsDFoaG+h0jp3boMy+/Llq2Gj+jMtkay9S0uonTn9uQdrGIgVOyZqOFVDPSLKEhsiF3r36PFDhCmMGbrfwO4MDCyfapr1G9UCpQ3rPo9qFhBoP42b1TPo3yGAS11ilChR4J/Kii98JxazKjo4Syu+w0+bDs3fvXvv53tVyVilWnmUG0CDsbr1a6CkLpy7lIGhpoyGwTK6nXOL32tUJhzwR40fEhj4Yv2/tVMnFt9JIxjAusMXsBJE6NIt2zQR/QerzITJI9i/UA68sCbr4NIaSGPFjsWGizlZEcJJHDbIZsxzEzsjnMVo2LgOh1+U9I5OuRU7CtKWrovFmNjDBz0P7j8yZFhfrA6iVzjkyo7N1hbeLDEjwjWcFy9Z2KVLO2GqwR7ASgiDB1ovid2nzEF00sHE5gKrWMW5T7cI7DGIRZG4TLmS7LCg1ZGSqWX50rVNWzTATY+60HwNm9Sp2+CzLVCXVHADw5sgssQ/M2WxEoWJBaXO3TqyTmWbhp8sQ8/6XBg7cahw9MG216tvV/oA54otkbIUbqkVSD9y2ISUqVJgChVbnPT88hVLE27LqGneqqGwEzBAOrt2fPv27/NnTeew2PONGctkacc6xfBRtiMFe1SzRq1qHCQRPYrANas2IrhYKvB9/JipiFAWSIwyegUDAdukenQIIsb/Ys3CXiI2VZEnTEbG6RmwRYsX3r/3s8awY/seNhyzZs98YN8RkZFxV7FSWb4bN4pVeQUFJoImDdqWLldi2qzxyiaIAXuWBqOuwDSgQ5TxvGCcN6x2JdAcsXZyGm2S+xgbJ2ZjRr9jbO68OZmreroOePDgYb0GNc1t3ea8oWEw+6IRY2NHS2ViePYskGQYmRGLajM1P9FFzp29qBDJnDWjsklJLG4KKVImV0KYNn79LRHb6uaFElL8k8RRPpbYEAlQqNU9VYx5NtXUu+nMExWrlF2/ZjMmQXLt2L77zeu3TGy6pYvAEMBlQE2JEvv93qfPYee8ctmfcAynSiyTkJpIkaIFOa7GLK52g8INhRkREzqjXUkcO04s9jJsYUCkwW4Jkaq/f7WRAXTISvb7mflEMk1D6NI/dvRkmjQpvb3OKrGITmzC2Cqif3IoyV8gnxIF/aTJErPQJIQ1EA1Xt0FNDVkbedNlRgnUcM6ey6EDx/Bf/uQzcYGlFforvfH82YtsmqgVR8dPpm9LH4xkiGMlFi3Z86hpvXjm9Fnw1GwM0QM5amuJVLDCfyBBpG5u4S4jbAyeR08iQlGRlX4rzhLjImB16aLBylIrsIxGgfuza3tz9whbRk3+Al8MaWL9Izqq1ZZq0Lg2O5hMw2XLl6Jr0VjNWzZE6GH2u3DuUq06v6tvUkHwXr8evCsrOOLUp8eQFk06Ir7EIs0qSxUrl+FwB2MQdWenxx5cntl9wEWD3o5REMzLVzIpUlYbxVhe3bl1t36tFujZs+dPtn1+1B2Mxp5YuvU1nhd0syiBYaIxDBk4et6sRX+N6Mfy2rj4HyIWhXH77rVDB49l9xrLYcdOrV17OBs0M8MPKyIj0DF/Hs4UlSlXAqMojURlnz19hmlXk5ddOjUO0aN/5X4YKXLkGF97xESJElWzelayo0wo3w3YEGk0Xmxi/cdOpKZRmjSr16B2q8u+V3BaZNeDlYfxec7gwmVLH6B0IMUegJEfKckqBIVMQCqya5byYsZ98eKVWmMIfP6CxG7sVnx9aBa3I1t4EGlwy+KLuT82zcplQSINWp3aZcwScUhhj8GPQZ2AHRA2qlOkTEagpt0hi1QlnAkjUaIEmhUb4bbwZokZXc7ZB+ni0gcfC6f8+XABjhotKuoasD97+px/E399mIi1jgFxnC3UsdhsPn401QVbK/9q8KSmBqRsj/qxBBEGQqVq2BH5zvYW/+LaRrs7/+vcI9LQT14EmvpzsD6WWoEGRaSIXqchaMuoiRHzi8j6zHnQV+Y9S0yiJDGc16/disaAHvz0ybNGTeuRmJHOv9u27NR4zbN8skRKN5wJCD1jwpiplcrUoiyTnUbl9qubheUcuyGHD3my6jjheXqy+9g7t++yV4jnEJoNfiRC8zBuFKvyymP7HtRBHD5s7+qWBqNuLQwCrc4LBnmJsr/GwCbWiiVrcGtSq8zGTIT/WCQaLnKDh/WZPGE69zNi3MOLxxLbXCHiddL7wLFtygoAHzGROGbMmAxOxr8wJotA7m+xRCq44eo1nwEbgizWAjV9Nvz4mSyZdkxiysOst37NlrYdW2CdEx4SxozpwiWWLxyCUPIaOBBo6KOrscg+eGy7WKdiGx83+rMPoG5d8O0nnEW5mo7QKlatX4j935h/g9gEn85W3LsXoF7eMX0y/pXjoDbe4hE/QXwWZGs3fdmGUMpV7LS6nGAmQavAbVuzIrTKG+nV+EMcg4G6CDXn0Me58o+aVdgPErYoHCfXrNxAejFDiMleyY4FTpdb40Axh0FKjWfISGkKijCCCM0exyacPNRCwxjV4MbG/eQjzGVo5hntMmrMySohDRrVdpswHU9PHIxYXIkdBByTScBOXLeenQzy2hJl2qOs9wcei/16Da1dvelJn/3G2jwGXfb4EHTsrWTJlgnrcrLkSdhbQYcw2UIqlBJjwbhRrMqrth2aX750pVP7Hoxlq3slVNNgMNoCgjqN1XnBmKCd/RiwabPBOX7S8HCrLrC+f//uvTEolmI5mYMLAvvTRw55WkpDOF2BvUZFAuLB8OLfK6Ty5svJZLBj2x4lOyYv/N0MqIU4yoANQZMBoF6mr1q2DoW3UNGvTnuSkhHCNgSuDOtWb+JcHKPaRpY0cCVPYdJFODKqZMfcbYkURx4wwyqx6OycjFLM2ocOajMe2P9565EsrJawhXC+UWOv43AgMhft3lKhtoRzbpPFPVipE2/fsgtubUdG5GWMsMkiLM+2FK2kKVq8EHVcuXy9JpdV3pKlSIqxlENfSkaDJrh3NwDbLGcdla0rvJhFRvaqkKT4pqn7DyfCg1ULkZg9LL5s3bxDyUvVNL7AISAb/gWR7ZWin9C79u05ZHuW4KbEyYADjYxx80vQQzlqIkUyLUrfvbcocnGO+fvt3yZzwvY9yqYekzqnaXZ57FN3sOBWSknPOgqr5IgxA3GaEa4hxqQqViqDwWOXx178jknJlFGiVFGcGxD7womBQONGsSqvYGnKjLH4THD8gWPzxvwQazAYRV6NwDQgaHVeMMhLlJ01Bo72sYBmHYP4UP/hP09heNWVK/kH/rrGPIVpLC7ljArOLiKphUOv1eKQqhPGTsOJlzUxrculAhxwMMiVIVN6Nn05xoblivSunfthQhTpq/1RGWUClwhkIi5F6AoY27F0GVALcZQBG4LmlSvXOIlE07A9huP60sWr27Rvpnt5QMMmdTkugaceNkOrTjqW4OKwA2eO2RTgggFKxMtp6eJVlmqXJm1qdrjxWUP0IzUyZkq3c/seNnrIuHrFehwYNRmXL17DffKoX7g3d3bubXpsok9nTRo0GLwjZ09f4DbenWSPHj1BLtT9o5klHnTDWVuw3btuzeb+vYdSCkToSxylKV22hC1rBTXN9s4tPgYFcciCTkJXQcpMcZvJoVzdctWBGE7xHBzcbwSJ2Vu9d/c+59DY+bLKW9lyJdk7gFs45+j5qGETz5/74kCjKRcfNOw6HCKlh+BBxpLd+/QXlwv25thp/rNjLxoIBoA0ZI93MB6rVq9Ig7LSgCXu2+DEr/qSVqto6CYI/4JIl23dwEpVyzF9dnXpTa9DanE8m7HTo4udr0PtP6g7lBvUbolQQjBykpOzCfATylEjjvBsWLsFcUc/Ma8g9sjSZYtPmTiDc1tqB68u3Z3pbxzLxEOQ0cF3qiy8Zc2JWAoRz+5wIp2uhVZKf05vw5V3FauUQ4CjH1f5pDHwKVe+FArNy5ev8f0SIcaNYlVeQYSROH+JO1NJkwbtrC4ajQcj1DQC0xIghFudFwzyEmVnjUEsmJAjrZt3Uv/t2mF6Csj/yjUW3Ff9gu3ia1yHYMXWqF0NI0G7ll0cMhfyvehnS97oMaLNdJ/H+xS8lFG/VksuVzA+FtzRpRVHjDo798qS1pEDS5wWw/QkCmKPnzsP8Dbg1G/2DAUYn01aNNBc4mQLS7akMWBDZG/fsQWblAXzls2WPv/IoRMwlHGZqy5lTIVMh2y6N2pi5PMo8lqCC1Vj6sxxHLivUbURJU51m8k5Ed3iCHTp3DZylMili1Ytmr8Ci87howfFih27WsV6ZGRqGT1+sCbjsNEDuGUhZ5bC+XOX2r1jHwfEK1Y2uTRrPpTIFebcIkAyh0wFOQmNn6k2kbXfPfp0xoV71Yr18AaRTu17Vvm9woKl063l08ZzumHF2vl4P9Ss1piuUqJQZe7GyJPPtOY2/oDk8tXzWAAN6jcin0PxvDmKo2pE+3QvljFvGAaw/3GHEpznyloEHaVr988n6MxLxK9l4tRR3AJCD+GBGH//67jvKMm4tbBbT5eN67YWdiwHA4hXcaCcS0TMSRmHTHEfg3MMR/hgqVSRqmzWuHRuQxY6gHFGg9hwK4iYtLgLy4Bz8yimFm5fyJYjC9MnUsspV0m0N2M/U3MiVkPwHZ6/ZDrbeVXL182azun3ivVxwhW5QjNqcOFs0box+1mIO2400WUDE+Zl36vIFvW2S+261XE7wLJSqkgVRkflsrXROZT703TpmAdSBXywcmQsQNdC21iyco7xDU6CAq7o6DEs8xSnB8yHrEZwcFbMnMaNYlVeiYLoDNw8kSpV8oZ1WqHxm/OvhBgPRpJpBKYBKavzgkFeokyXCRqn0MQ6OTl67NNveFvosCTSXCBoSy77pmEGYmD88st/ze8NtFQQJ51QwN+//yd16hT40FpKpg433a/HhY+Z0rF5zC4Ug0Ht8IjPLVt3eJMJf0NbCIYsjTEb0ETx59ABUBifAaleuQGSTtysYpUTA7gE+JxX5hJDgyOaFAFoaPp4FIp7frBd8ZPsZPwU+57NXbXBg56MvZ1rZMDc2AsPYzukaEe6ooEHq3E18fBneR30ISht+jTiTj3j9AaxuBPiU8L9nhpfVIMsIordLtNtjHHjcEOGGgpj3gCWIzxsXRvcwaUUTS8lMXd8kZgmoOHUHpe4g4k2Ipaj6tzBxcn7kGnASGSmee6MYuMc4wd64a0HFwx27iuXqWtZECHTrLwYFh4EkdX21SQAH1DiuCDzmfHYCS5lJT2DiOZmm4CG0Oz3h2bUsMTnEhpGrkGD6vIsejJ9m5OfzK+6aYwDMTA8DHgYL348BntYgGapUazKK2O2dWONB6NGYOpSUAKtzgvq7D5evts27540aRKB31pjMK6GjA2fCOBpyHukqAviiHb4ZFJy9X0RwGi8dvUmrhgKpf6EqMXSwGXn3AZoUKNQagwGlGWUREAioEZArTHYeVdCAh3BEMDng52Lvr3+4tpUqS5EsMYNTXXwUmI3Xbj0su3NfTvLlqzhbuAQqAvuk2dzHxE9jQUuFov2rbriM9Slm+n+D/mRCEgEwhUCId8pDFfVkMyEEQJVK9TFwJA6Tao1G6175IURD5JsOEQA72Y8KNkbwlbMOTRO4Xfo1KrPANcQsIoZnMtOyAgR9AYcgbkFT3MlVwjIyiwSAYmA3RGQGoPdIY1QBPce2hyh6iMrYycEeL/eXk/Yj588gj878SXJSAQkAmGIgNyVCENwJWmJgERAIiARkAhEGASkxhBhmlJWRCIgEZAISAQkAmGIgNQYwhBcSVoiIBGQCEgEJAIRBgGpMUSYppQVkQhIBCQCEgGJQBgiIDWGMARXkpYISAQkAhIBiUCEQUBqDKFtSu5X5r730FIJRX6eqOjWuV8oCNghK1cdDxkwqmyJ6p069BTkOGHPjdolClXignpefODPuBheoOcSeK4tM04WMWK5ufLPjj1D9hBDxEBAXYufoemttniwQOC+CvoPV4WGq86wavk63vW1O0tcICueh7A7ZQiGtfC02u62VCpcNbfUGGxpMqM069ZsOn70pFGKMI47d/aieIM4jMsxIu/crjv3+dSsVY0r2UnH6yH1ajbnHuL6DWvxwDfvq/KKlVH+//xnw7qt8+csCbiv896uccYfMRY5smr5ep5s+BGZtzvPP0PTW23xYIHwIOAR/efJk2d2b4vQEDxy+Di1CA0F3bw8Z4NkWLdmi25sKAPDWnhabXdb+A9XzS3vY7Clyb51Gi7Kdf2zb9FiBe115D1MK8CVfx7bdo+bNLx5y4aioOVL13L7/az5k8RjB9t2rbF6o/uocUO6dOuYNl2aULLKI5xcYj90pJ1f9gslVzK7AQKapv85W9Be/d8A5x8lStMBePLmmNfupMmS/Cj8R2w+pcYQHtuX9354LDuHQ7bwyJwZT3dv3yNM/awXr1vxTKLyNhIP55hl0gZwuzDPYWtDg/+b24sTJ/kt+Plkju+GgKbpf84WtFf//26taL+CzTuAXSSD/Rj8qSlFfI3B58z55MmT8gTi4UOe9+8G5MqdwyFXdtqcq2337z385vXrnLkdsmXPrO4FPBDndcrnzZs3qVOndCqQV/O84Zs3b48dOREY+CJ7jqw5HLKadx+eNKTQ6NGiFS5WIGHCBCIBzyoyg/JY5Rnvc/fu3Od9ZH6y/X/W50JAwMNkyZJQUNSoUUl85/a9gACTcZ7nxaATO3Ys8VojIbqUFQYuXrgMTU1d2AMjQZasmcz5DG4I1/6f9vLh1U1ejOXhV97khMLVK9cufyrixrWb8ePH45HDwMCXgAO8MM/bx7wYq9RdKZEH73l8lufsUqRIVqCQI09NYhjgFbhcnzY1xOfp02fHj576v3fv8jnm4mFoEcgDev7+NzJlzkBN2fp9/foND17wk1ho3rp5h9uLIUvRhPCsuUItBF9gG6Ni5iwZlbwgnDBhfN6qVziksehRQjf68OGD9+mz8BAjenRaU70qEp2Q15V4FRrcqLKGH1r21avXlCUe6OOyZM+jJ3h2D1np6JRHSayhU6RYQaJ4i+H82YtBH4NQMQUUIaisJotuzxRpwNnr5BlARkeEN0UvDHGhStPbvQVDzFLYZWQQIT3oJDzczCBSbG/m/Z8mOHb0JEOJZs2eI8uli35s82ke/uUxQ9MoeKUjxNRVEN0GTRrhc+nCZcZpydJFlTd4lTH1z/t/jh09gbRR+ryxJMQUeuqE9+3bdxnFmgdLX754df36zazZMisvneKi5HvpStq0qXmbVOFNIwcYzrpDWOFfyQg4J0+c5jFrBHvBQk7q94QVaUNxPOyeJOlvhYsWtP2JYF0px7vwvLqpGVzQjx49qiKadOWVQUeyXbwoRAyaW5dtMir9CmB5ULtoiUKJEiUk3FJ6A4ZFVATXGBDiFUrVwNyNpL53LwCh/PbN2179ulb9vWKD2i2ZD+ijhPQf3KOzq+nlGx5XHdRv5MJ5yyJHjhQ7dmw6Qbr0aeYvdlceSmd8OrftTji337OP2KZ9MzXEZO/VbdCyxasZk3///XfkKFHcZ42vUq0Cabp26hMrViweuZ8+ZQ4/b9w7t3PHvt7dB71/956XWBmZjNL1W5dBduK4aVAgzYxp8/hjdtm6c7UBZYWBhXOXrl654eLVE8r4oYdVLlenddumVNBqVzBOAIctmzjjxgiHT58+x4Swct0C5rPOHXuhRpC3d/fB/NuydeMF85YJUiCPwnT5hpeo+6r1Cwinp04YO23KxBnYURjtjHmQh70Fc5dNnzrnziNfkXfB3KW4UvI9StQor16+Fmn4edrrLE8qT5k+duyoSTxs/fLFSybX4aMH8AbSnl0HXNp1V4rmy/2nfiF+zJrs7J6uWrHe78ZpQeTJk6dli/9eoVKZxStmiVLcxrnv9Nh36ux+foJMxzbdbt28/euvCV+8eEXXau/SavDQ3kwJohP27Nvl0IGjJzy9cPXw2LtOUBD/7tqxr0XjjvUa1nSbaqoyadq16oL+lCBBPPpYydLFFi2fiSZhTmfn/g09XQfSW9gDEn37rO9RRaFRFxGs7+vXbtHtmRBZsnDlwL7DUW1RFNiNmj5nYp16fwSLuHlipent3oLmZX3fEF6Rrl29yYVzvkw/yJCy5UsuXzNPKA2a/g8Undr3AGEhZ9o7t9y2ZWeZsiXY+1OqcO3q9fatujCOGAWM9H6DuiPozCsouk3v/q7nz13ct/sgg+7e3QA6zIo184SCLsbUjLlug/qNYDw6/9lmyPC+ViXh7Vt3mzVshx7DGEeK5s7roFaRj3uealK/7UFPD2UBw/oHgTBr/uSatavBpK4cyJw1o/kQJjEZBwzpKUQ0P+mEfw0a/frVG+ry5PHTOHFjj5kwtHbd6qLuQtpkd8gyb9bihIkSUm7WbJkQrb/+msgcHE2IJSk3a/oCXDQu+Z9UXtxmeJYpVg2uXDq3hYgleWVQYrDEC3QMmtsS258YM8lVYG/bojNtunTVHCSYQXoDhkXUT+H5OGfmQobBeT9PvxtelauWnzBmavNGHQYN7S1CKlUph4vvo0dPQOSvgaMXzV8+cuygG/fP+14/deDYdsZ2o3ptUMOJRU1j1sySLRMZedUX6YzjDMNPQZnsa1ZunLdo2pVb3ldv+5SvUMq1U1/UbZHg+rUbvhf9fC4dIXv0GNGfPnnmNmWU/x2fc5eP7dq/gfd4pk0yTUUjxw6+cPUEX5hHr946s2qdaaI1pizoN25eH8GxfesuhR++o4w3blZPCQnZFxYTjP+HDx/tP7qNintfOITO3qvbQKit3bR4w1aTisCsBreDh/fh39JlSzjlz8sXMZuqC508ccbYkZMYZtfvnbtw5ThQlKtQSsMVbKN/tG7f7NrdsxAZNmoAuY4fO6UkGzV8ovusCeB26dqpYiUKDR8yDtlao1ZVEmNXgCBf+AuNukBZFSuXQ1nx9joryt3lsS9W7Ji4dyGCRcjB/UcrVCrNdywNKKAI95M++2Hpxv1z3Xp1QjVUnxBZvWJDocL54UpROAQR9IO2Lf6sXqPyxCkjmTzu3rnfqF7rzJkzXPQ/AaktO1adOumN4qjUXU2HrSuk54q184Dx5v3zmz1WxokTWwNmCH5a6pk3rt/k9al2HVv63TyNInjSZ59wdA1BEbpZ7N6CuqV8x8BZMxaWq1Aa9JAtrj1c9u4+uH3rbnN+MBq1buaSNXtmIWeQGKdP+ajljMgyYuiEye5jGAW+171KlCwybtQUpjFzaiJk7sxFqVKlQNqcuXiEiTxq1CjduvRn2lbSTxo/ffjogTcDLjh/mgKNJSFDAHUBO9OOfevpCZB1yJmdcweWSjcP15UDtnQAhEP3Lv2r16hy9ZY3q6NL104WLlIA7QrziVIK5gfMyX43vYFu5br5fpf98Y0w50ETYiDlGjauw8Jy1469ShbOxzE1NGhcmxCr8kq3aNvFi8huqbkN2BYZP378HwJk2+41LFMLFHS0ml6XWyXwp9AYipUoXL1mFeqMQdi1pwuQZc+RWeikrJbQ33mC79IFXxaRaGTNWzVq2aaJmGwwBk6YPAIHfuEDPG/2YtaOs+ZNEhvz6NQz57oRItAU2ds5t/i9RmVCMMeNGj8Eo+L6dZ+9fHH6nTpjbPIUychOb2vboXm1PyphsfMrEwAAIABJREFUkCdx7rw5MVGyQ8F3JmPMj58oRI8XP26s2LGsUhYMMFmy4aJ2KmZ2QZRg/1TaO2RfWATD29iJQ8UuDFXo1bcr5yfZkoA9/iDLmQi4Ff9ioflvpP/yM86niiifVy9fTZowA+RZ8Qg7IZbSgoWdNFzxdDLm7oFDetEKTKLtOrZgpYJKriRr3qohcH0qNEZn147sgJw/ewkkKRFgxRe+a8gG92eRYgVYvmBVEhl3euxt3LQeggObPCGY+9jxqVCpLN9nz1iArWjuoqkCajpVzz6dUWXUMz3aBiogXKltACzRmjRoW7pcCV5rFOZ9DpUEBX2cMc9N7GcBDtJKXXc1Hcxm4EPnERxiGVabZ4NbXyW9pZ5JB2aOQUsQy2LcVO21CSKKtnsLhhiBMMqYJ68DSxeBXtcezrzVidncvCwWrEgVZIuQM3SYmfMmKXJGSd+sZUMkGz8ZSp27deQU4qWLl82piZAUqZLjDiz2PRlNfQd250CTsA6KBCVKFWH1z4Biz9GqJMQEQtcdMWZQPsfcZEfWscrCHGupdE24JTlgSwdAOGR3yDp+0nAhW7Cxs3iIHSfW7OmmlZX4IH/Qv4WE4RFUzLTsgVrlzUDKQQF76oa1X06CcDSs6u8VhIXfqrzSLdp28SKyW2puA7ZFRkwLHVxaMzsgqNkSsppel1slMILvSoh6stOsVBhzOt+d8udTQpj/+I56jiIPuPQDNWTMTIwiNtKatmjAMjevY261H1+KlMmVn0wkZI8XLy5NolCgK7PBL35ic9M45bFoE/Mu1gu2otlyUxetfLdKWUnZuGndgX1HsP/NehfTE2bwmfPcdGkGK9Dz6Ekmb/QqpWqPH5tMMvg0BGvOYLnMjFu/US2D0jHJXDh3qVad39XXFSAdrl//cvo8f4EvfgBCTmH/MKAZsijkV+kyJQ7sO4J+w97Hwf1HOPTBxi3uL8zNYMv0XLhofoh7fuoYoiMpZZH3yKHjKBa//mYyhxb/JNzVnzu37tav1QJjzOz5kxVzCFvXadKkVAwbpGc9h60YKxd2KQ2dSpXLsjSsXb1pj96dK1Upi7akKSLEP3V7JqoJw6en64AHDx7Wa1BTow6GuKyfJ6O63zKfIToePdKxCmB2yueUR23kB3Zz9+H8Bb4IMaGqGtgYipcsrPhMADh7//x73f8G3U/gL5QP8d26JPT0orNh31bajp+okthcbWlNW+SALh1UDYRDj95/qr1n4saL4+iUV21jyJY9i1jGCCKICM+jXyyUupQJNJZymBOw4rwIfInSjwcDbAwdYboFxxZ5pVui7eJFZLfU3MZsi7xq4WNLel2GReBPoTEIUfu5wpFMVY4R0yR8xQcDHV8w3QQ+D+SL+chktwzbPlGYvh3N9GiRndjA5y/4l73t//zyy7+0Tf+zwSx+ajbShgwcPWPqXDwbUGjyOuZiQ+71688p1dltoaykr1OvBubELRu3t2rbdO2qjWyEswujoRaCnzgoYZjh0gV13pixYr4INFXZ9g8zH4k1M6smO1YZQti13eHxxQZoyvWvvyHf1c3HQo2Qj0GfLT22M2NLyopVyv7ZoScti52TrV/cWcqUL7ln5/6+A7uxJVG6bHGxaKPnpDfrGKSnCPxkhcYg/lUX6rF9DyIeJwxBRERBiqU8fgzqlECN70iKlCbVVk0nZ+4cm3esZFOmZZOOTCqDh/YRtjRbqmaQxlLPxJ9/++61QwePxdcHG2nHTq1deziHcuvHgI2IF4V9SF0p2t3cckAClvhi7f51YpOYUn/U1D6Pgo9fdhk0iRMkiK8OEevvly8/b5gSpe5X1iXh02dIRU3T43KkKdTST1vkgG5evKoJT2x29uq3xIkuXvjsAkWCGDFiqLNHM+EcpEtQHWgs5VCRRw2biFxq1LTumlUb8GEvWrwQ2W2RV5aKtlG8iOyWmtuYbfLSzVCqFB6sprfErQj/KTQGYwiU2ASfzjVg6VWvmzHDItaFbQBjg1hbK1kY8KL3EyJ8gFetX2huZhfp1To+Wjb73HjwiZ0wEuDIakljsEpZ4Qf9t1r1SuyxoTFgN6vfuLZ6NrIRB/NkiBsUo2t3fEK5io0bz7RTcP/+A/UBBE1xOI0SwuZRt56dzDn5xiG4RNBqmBMOHjiKvwulE4IfDLrjoYPHBvzrTwo+dBsNbxx4Ia+iJqpbX6TE+H/50hW2YLFLlSpTXATGTxCfJdHaTV+2YBSywn9CQ4ftG/xIMBEP7jeibcvO6LuWup+N0Bn3TOjjzDt4WJ/JE6bj/YP5l/14GynLZDYiwISH0qBOrJYzNhLRJHvz+q065NatO/xMltykg4qPul/ZIAljPnv6nFWEWiBw0ZBCTRyk4uCSEqK4cxFiixxQMqq/sASCT3wUNLEP7j8M/ZlqYynH3hCDdMPaLUjs9Wu2tG3fTCAWGnllo3jRhUIJNGabZF8vYP9jNb1xcT+FH4MxBEps/oL52JBbtewrP/btW3ZhjS9TrgTJ8uTLxQYBdmYlC5Zz7NXiJ4ZExg8LR1uKY6ogGWecRGJWopznVDJGimRqF7bGQ0AZP0eY3LZll2mPvFl9W5ixmgaDGCDs2/N5R99qeksJ2A5Eg1mxZI2lBISjDuPbjJuh2i3LIL0mKlLkSLBqe3rjlIwuesWB/UfYjhHWGrYDEyVKgB8ZmmLZf302i5cqcub0uSt+/go1mN+80QOTr4E7BRJnyoyxRYsXxg/36OHjIi9Qe58+Z2Be1mUYh5uFy2YQhWOmbgLbA417pqDDVjd72EBx5JCn7ZRtTGnfFrSx0HCVLE++nBo5gw+NImdCxip7auoBhZRjJIo9NXOCViVh3nw50V93bPsi69gDRddUSCVPYTqBfOH8l3X/oQPHlFhjOWDQAdgH5DT1hnVb1NfJI5BPHPfiIIl5RYIVYlXKNWxSm/GFgyf2YBZjgnho5JWN4sW4FlbZ1mQPbnpNdqkxfAGE9vuza3sW6P17D8Wnj9MTG9dvxTkcz3+xBGzTrhlnmZo2aMdROhYB3DQydNAYZUpAjGKwwgHHbbw7fglkP7DvcN0/vjp+qRQmrljADRCfAxzo2jTvpB7PbHFhgt65Yy9Ol9weHyzK2MpYpA7oM5Qv9rr5pFLVcsziXV16Aw6TGQerMGD06BLsexVxFMKUjRspRyGoNRju2L7H/FWOLt2dudigYxtXlB5saHynLFt8l4A3TdrUZ06f5eIEbjgImc6hGSEVK5fduX0PR9XF2p1pvlTZEksWrWJxr9gPcCxKkDB+43ptUCyoFNucHVp39fO9OvCvXsajnYaev8QdP/MmDdoJgdveucXHoCCO56BDUHcOgk9xmzln5iJdOrNnLOS4BCc12DfhYC31dcgZ2lu/DHomQp+TsTQc60XY48A9nOsyFppAu7dgaJj5LnnbdWjByWHkDJ6JdCekEHJGbVgOAVdXr17j2CHuKZzq5ODA0sWr8dFWbovRELQqCav9UZm9RTxaTNPnk6d0Xc5S4Tul0EHyYEdki5bLJygRcbF08Sol1lgOGHeAfoN60OEZa4gFTH3syjNYMIp06NQqBLCos1iVclgZOYs0bvRkFg/qLebQyCtbxItxvayyrcke3PSa7HJX4itAevTpzAmFyW4zhIxGDcdNj9N9IhHHlzkowWxXpVwdQrjBxn32BCY2hQQOw5gZxo+eyo4XgexiWDrZiEMlcyfHfPGLphQcpxmlF85fUkgxMDiZmTtbUW7p2bjNdODTRspQwKV/2JCxA4ZYma40XcHgJxMbty90du6lVBYbXZ/+XypukFcTxalx3EqmTZ5NxYli0TDObZgmDYcpcHHiiS8uBiCKSbpy1XI2nvjg3CaKWumiVfGNuvfkcii3USidIY1rCKZIhRTH6HnIo3W7pgrbqHSbtq/gPTDkpghk3l2+dp7mWhtdlOgky1bPrV65fsM6rdZtWoJ34Yq18yFVs1pjkZ5eN2rcYN28BHLSDH9bviD9WffDraWUNoYb9MzoMaLNdJ83ZoTJl5ZOywUSob/nw5wru7egeRHhPAT3FJxhOb1cuaxpIcsMOn3OhNbNOnG/S4g57+Dcytf3SsG8pu5B23H+qP+gHgbUjCUhHi3cJNGhdZeWTZ0hwpGiQUP7eJ30xmVS0GT0TZ05joVQjaqNCGG9gQRrWKe1UqKBHNB0AA2TnOlYsnJ2v15DK5UxOVAjHDiUxJU54tiCQY2sRlmVcmy11KpbnYNLw0cPUlMLjbyyRbwYc26VbU324KbXZP8luOswJydHj31GVmXj6v0QsYhgVqhBH4LSpk/D2NDwTOzVK9fZ18f5RffCO9zaOVHNXMgFbcZ+YSwi2ZPjwAWeCpClLdRuB6zk2B1PnSalwoONlJHp8+csPednul7QvoBjYMD8iE8f+9maDfVgFYRR8Zr/TXbBU6dJpdwKZ44zrQDCKVOlUC5OsaUUiIM/nlm23NliC0Hb04APNlJ8EWg123PppsS2xN5z8pTJUCV1E4hAusTt2/dwfMPz0S4+K4KspZ7JET4sTO/f/5M6dQp6uAFjoYmypQUrl6lrWRDhAPiV93FomPleeRU5w3qd76mT5OASsO69gu3cw/ZB8kRZxA1IXGeE/wHKt41tZywJQYbTUtwBgyTUvVQR94vbt+5gl0WB1hUXluSALR2AAYKEZIDYfZiHTMoJrEIgr+zVwYLLtu3pfbx8t23ePWnSJFiVGoO92iu80GGwOeYsWad+jSHD+oQXniQfEgF7IxDhNQY1YBjb2Odav2Wp+gykjYiqNQYbs8hkEgE1AmqNQfoxRJy+gW8U0oGzdvhROnf6YgCMODWUNZEI/AQI4Lwy1W0Wz7lRV8Yyfj/9ew3FYU0c5/sJAJBVDL8ISD+G8Ns2weVs+JCx82YviREzBpugoT9rFNzSZXqJgETAXgi4T5mDKxKmfpYBbFay2+02bZSuYd9eJUo6EgFbELCvxvDL//5j8QoRW7iRaUKDQPfenVu3b46uwK6/bIbQICnzhhMETEfJQ9CVf2GzNZzUICRsZMmW+YL/CY7vYmDgoDX79MLtIGR1ihQ58ukLh+PFixOy7CGpgMzzYyIQ6T///fgfK1fh2Vdj+N8P7270Y7a04JrrTfj7kWsgeZcIfI1AyGa5/yGIfmxRFDlSpGTJktirN6RKldxepCSdCIyAVXWBuks/hgjcAWTVJAISAYmAREAiYDcEpMZgNyglIYmAREAiIBGQCERgBKTGEIEbV1ZNIiARkAhIBCQCdkNAagx2g1ISkghIBCQCEgGJQARGQGoMdmvcme7z+bNEjqvXe3YdwOXHlhJ8r3DuZYOx/XsPfS8GIna5HI3jPuyqFeqWLVE9lI8JfReguKvb/OGP78JJxCt00oTpPPEQRvXi2tMuLr35N4zohxOyPC2B+PI5c16Xn4gKQpj2HF0klUCpMRjjE4zYubMWzZpuUWO4dvXGogUruFE1GBS/SVI0Bhg7f+7LkxbfpNifpRAei+rfexivWFWqXFbz7OwPAcG6NZuOHz35Q7D6wzG5Z9eBg/uPhhHbJzxPrVi6loegwoh+OCH7+tUbxNeN67d0+YmoIIRpz9FFUgmUGoMxPsGI3bZrzc59G4KR4cdPGhQUxPNUq5Z/eR/cPOT71pI13KB+I74jD8sWr/r9j0qD/urNowB2f+bjO9YrNEWHt04SmrrYnnfv7gP1arawPX2wUppDWq9hrf1HtzVsYnoz76f9RAwQeEGDJ+54MzY8tKPUGOzWCjzO9LPdtMgbM7y2HBj4UgHRPMRu+IaIEC+S8/J4iLLaJ9PduwG8PWgfWhGFSnjrJN8G12NHeNvx89OOdi/RHFIuiMzhkPUnvyYyYoDAc1+7duz7573pidrv/rHvDU7fvTo6DLDFlTx5UubyM97nLl24HD9+vJKliypPt/lfvc5rY7y9Ruy9O/er/F5BPEfJC41ep3zevHmTOnVKpwJ5xROUd+/c5zH43Hkc1OOQx9oDnwfyQK1CSmHC99KVixd8Y8eOVbxEYXPO2NX2PHri8eOnvE3n6JRHnYDtt/NnLwZ9DMrhkC1T5gzmeXVD4PnSxcvPn7/ImDEdTyTrpjEOvHjhsu8lP66BKlKskOYxOp6RBMno0aIVLlaAh5WhQ8UDAh7whQfxiKKarKE1IbxZJ0o0z044zzzyfhqsMqmfPXO+aIlCVp+stdReT58+O3701P+9e5fPMVe69GkhzuuLkH379u2LFy/FNmeevDlh9fmzwBw5syk4kJGKOOTMRhOb8xMtalR//xs0Ab0CV4/Xr9/kzZfLxhYJuP/g4cPHQR8+PHr0GAboeOLBbt7+8D59Ft5iRI9O10qquqjHUu0MWk10bx7qPHzIk3dQc+XO4ZArO+nfvv17/97Db16/zpnbIVv2zGoKb16/OXniNFcKkqtgISfNM4bcM4gpOzDwRfYcWZlyzIs2h9pSU7LhBXu8XhgnTux8TnnEI5zm3UbpJLqUzRn44UJ41ZCRRTcICjIBAv+MUDXsPCRx5vS5X39LVKRogVixY6kraCAllGS6kPKoqei64uVbpWud87lw4bwvTz6WLFUUOYafzdHDx3mPNF36NDzOrpZsRJ328mG64jF33kA3tpBZElmUe8XP/2PQRyRkmrSp4Dnw+YubN29nyJA2Ttw4ShXEaM2cJaN4pda4aATdCU+voI8fCxfJb9wZNCCQmIK8Tp5BJsAMUlf38eEQYAVl3SlDsCcGacJECQ4fNL0nXKRYQRGuKxU1NWISoQkI9PPz/xAUlDRpYrXEMOg55sirmeH9YYY5UojRV6CQo6ZQo5+0TbA+jo75Hr249qP83X/qR+V793dFFeBV5RQpk/ETsPYc3CSqAFily5Zw7txWYHTj3rl7Ty63btcsUqRIvCAsJjDG0v4jW0nvPnsCyTZtX6GufpasmcpXLE2IICWibj+8VL1GFRLHjBUT0YD5waWLqYgLV46LBFt2rEqWPCml/PprQsJLli52M+ACUQ+eX23aogH9mCzkJeqs71Fb0O7YqTVzHtOS4JnSbclFGgFRnwGuter8DgXBT/IUyQ4c2y4oAEjjZvXgBOJggkRbuGwGUSJQ4Ma/VN88hGSWshPl2sMFglDjyXYoLF01xyrP5u1FljET/kK/4S9uvDiIvC7dOhIoGkthjy/U1PnPNqg76lImThlJlGgXc37WbFxM7JTpY3m4nIGKOKNpRo4dZJVPEvzZtb269Gp/VCJw+561wuQAztSaDkDfexjoLwjq1s6gLNF21DefY26lw/Tq1/Wgpwe9ixAaC0B46VghMmHyCFCiFowCovg+Y66bErtq/QLRf377LRGxbTs05xHt5i0bKgl0oSbWHDp4SJsuDT2KvkRNURfEwNHtJFCwRNlS9Q0F0Wc8LeX9xuE+l46oewLf6VfwIJq7U9d2iCZQIhzE1OPdkpTQ8K8Lqei69DeRWJTVvFWjePHjijFeqkxxv5un8bChD9DclF6uQimlK57383TKn5dAougtzK+ep/fo4mZJZN197IsKAgXRD+kJw0cPhIL3hcMQpJeqqbVs04SBeefRJQKNi6Yz052gRkflefeBQ3pRxKz5k3V504BA52cII8fEmmf6nIm6uYKLlcGUAX0xSNmUBGpYZcFJoIFU1LBEl1B3HgYaCYx7jiXkFWZ4M51XzRQc/qhZVRcHJXDX3q1dunQResJPsSsxd+aiVKlS+N/xOXPxCIIsatQo3br0p/6iJa5fu+F70Y9RTU+NHiP6XwNHL5q/nFnhxv3zvtdPMXEi1hvVa4O6Wq16pThxY/PyrNKEKOxsLzVr2VDdqHxn73ynx55pM8ddv3v22h2fAYN7zHJfoKTBVtGoXuvMmTNc9D9x6dop5AInKWZMm0cCjPxLFq5csXYezNy8f36zx0rWZxriuj9Zz23ZuerKLW94hvnNG7fv9Nirm1I3kCes4saLC0Tws+vARqi5dvr8WDaArFm5cd6iaRC/etunfIVSrp368jL9yLGDL1w1+VX1H9zj6q0zq9YtMA8h1lJ2wcbHj/+j4tt2r0FXK1DQJlVX017bt+7q3X1w6/bNrt09CxvDRg2YPHHG8WOnatSqyk/sCshBvvAnDEW61VcCdfkZNXyi+6wJ5y4fA5xiJQrxOige2sZ0iEVGUChqHzoBX6bNHM9asEHtlojgkz77IXXj/rluvTpNnzJHfcRGUzurpZBgzsyFaEJ0GL8bXpWrlp8wZmrzRh0GDe0tQipVKTdu1ORHj56QEqy6d+mPNnn1lvfFq/S9k4WLFOjUvgcGNmJZcLRs4pwlWyYyXvQ/ydR17uzFe3cDFB4sQS0SaKB78vhp85YNYImRdfbyUewZAz85lOh2EmPKtoAQntOgvdEB2ju3RHqIrli0+OdVJgP/9s27l2+cBqXVGxbeunl72uTZoi4GUkJTWV1IzQHBoono87txmr7HRHtg3+Eq5epky56FEJqbEPzpPLbtJiNeEWycP3z4CE8IorwvHEId79VtoDlNQiyJLDZKsJ6ePn+I7kR/q1a94rDBY7DRonxjc92gkqLYYDat31a/US3W38ZFb9qwjdHXsk1jBjuCbpPHirmzTTq9LZ8b12/26DqgXceW6EmXb3id9NnH5G0po+1YQcFgylDor16xoVDh/LT+4hWzRBZdoWrOz77Dm+cvdiecuYDsrj1dRBqDnmMJeYX4zOkLEBTIc3BgvQGqONmYF60b8lNoDClSJR86sj8KKRBgoe07sDszPQY3gUjA/YdTZ4xFx0cXxma1YO4yNHF0XjHBZM+RBc0UCzNvzjJsatSqtnXTDgzLIu+aVRsRB8xJanAxri5bvBoi+N2gTbNWq9+odr2GNZU0HKnAPjljnptQddE9GzauM3/OEhLcuxdA+tx5c4rEKOkao7G6IPV3Zkpla6NV26as3amjpcTm4ezajB4/RJgEmWX7DezOLAJEjHAAaefc4vcalcnFYmjU+CGYrNev22Ja03+yK0aPHp2FC8tZ8xCD7IIHhEUHl9aUSPb4tj2KoW4vlLnxY6ZSceQd7QV07Tq2oIkBk4UIXJFAfOG7ea3NQ3T5ad6qIVZZEoNPZ9eOGPzPn7V+tASsRKFsbfCFvLNnLHj/7v3cRVPF9gQdsmefzqggQlkUzGhqZ86heUixEoWr1zQZtBC4CBRkbvYcmWvXrU4IRTBRvXv3/tIFX36CVXaHrOMnDRcGYVZpaEKx48SaPd2kzs6bvRhNcda8SQwEfmJTmTnXjRClREtQiwQa6IqXLOzSpZ0oiLeU6P8Xz/sycMw7iWBMtxGVon/oL3RLOgBtIb7wXVFeEQ9uU0eKcceiH1Hg4/35oKCBlNCgoQupOWKxYsVCjxR2eOfObTAtvHz5atio/owRErd3aYnQYHOE7+yan/W5MHbiULEthWzs1bfr4YOeV69cMydrSWSxG+I2dRQ2KrJQ3zYdmtMP/XxN7nsNmtSB1IV/z2ehqaCCN2le32rRU9xmsemGrKPKJKbPsFwxZ0k3hJHFKlHZU2btbrC9aDtWQsRZmjIUTmLFjgmrND3zhVWpqOYf+R8zVgxC2PYlO1JFxBr0HAPkRV5Hp9zISfEdiUHPPHncWxc088CI78dAnRFejFWl8uzd8v26/w1hdsucNaPisXj6lA+Cr+rvFdRIMVswpNmLYr+gQePa2AAO7j9StnwpRDP2Bmy2YsgpWby9zkKEtZ2aCHbj5UvWiJBjR0+mSZOSZEoCJCn7ypgxOIM3afz02tWb9ujduVKVshrKaoKa7wwG5njW1hw0Yk8RjeTZs0CD9JqoUmWKqbf0xATJNhtcUZd48eIiRJQszDE3Pm2tWf2wZWg1u66ThwFldXth6kDusJ+ye+d+JQuz1HULp60MyCpR5vzkL/DF+MEWFSlZftlCSpPG89ipvI65hf1ZiSpdpsSRQ8dxoRDbk+ra2VgEvgtKSiGgnfLnU0JEcfiLcBcIWPXo/ae6oZk2HJ3yChsDnQf2hLogsqdImVz5aQvUGuhQnQ8dOIbzEB2SGYjxwhQltGR11WyhbCMUP1yyrNkyq7fzUSU9/z3LaiAlbFxFaNCgaym+CAgWvLtoXyWEaQNHCpwtyAUPzPFM8Mqof/zYZKNiQ918ljUQWcIJw/v0Obz9r1z2hwJeRPxbpVoFOh6rDuFzw7oLgSMoGxQNw3RgLOpqYa7xADPoACzDGB09XQc8ePCwXoOaatjNc9mOldUpQxBXDw1bpKI5S5oQg55DSkvICyL5C3yRD0xtSZMltl2g/RQag3C5UhAX+inCS4SwAFKi8GHku1poiihsqviL8R2s6dnr125FY8Cs9/TJs0ZNTXv86s+zp8/4qfZP4aewcIhklILC265VF3UuzNdPnz7HP2jzjpUmy1uTjvTvwUP7iOWjpgjNT7zVsCKePH7aMX8e/CrKlCuBI6Gy7WKcV8TqQ/TiJS5LJHAb5/6fry8TePXqtS1k8XIyzg4syA5bSClpvmqvQBP9bVt27vh6CwbhEiyaSmJdfmLENC1oxId1GF8ELMEtgnZP/0nhUH/wJ+AnLSgC1bWzkT5baUrKyJFMI1rNMIZoQtgyEEdaEn+yH6g/vyVOhH8uIazzHM3YE9mJxbDEvwZQa6DD1NnFpQ9etKgveBZHjRaVaUO3T1qlrGE4Iv1kLauuDuYoxahjICVCpjFgC1SXxSvYMWKaFq/KJ0qUz6VjakW9c27XXR2LgHrxqQ9oPpZEFk55CCUal91GZCaGWBRT0QGQwDVrVdu4biumQfTF3Tv2uU0bLcgaFM0SiOxJvn7SU7hAaXnS+83Ke/vutUMHjx3Ub+SIoRNw/HLt4Wxpp9J2rKxOGYIXtDGFKatSUY99bZhBzzFAXlDRtDsjl+bWFmDh90+hMbx5/VkcCxBu3TIdt0uW3ORqxEetsSb4dAoAO5talaabskRT7BANGtV2mzCdu5jYiGJuZlu4iPrAAAAgAElEQVROg23MmCaPRVbnihM4P1FslWTxE8Rnqbp2k2kbwvyD1rxh67JLF/0G9xvRtmVn1BfhMmOeUgnh8iivk94Hjm1T2J44bppBevMofYiSJY0U2WSxXLV+oVUezGkSIjYaDLKH4FIjdXvhvEMpGNa69eyky4AmkBUVpyfUgYriKAJDwI8t5Yo0qGV0LU16TpdQI0VRUNfOdsq2pGTyhjjnKTSJH9x/KPo2qw2xlFQSMHvRjcVPq1CroXv37p3rn/3+qFkFu7QwaXCT1ZqV+reVWKVsS+0iXhpjKRGm9aWjoinigGWjjVNXZDEx06MOHtsuTn+wJzVu9BSFbTYmuHnp1AlvpjcEJneWiCiDooXzkNIhRXq1XLWKCbLUfdb4wcP6TJ4wHeeeyJEj4UhoNZdxAlumDCh8JbU+bb8aSEXjEq3GGiNvNbtxgp/Cj4FNBPXiZtWydWhVhYvqnMzJXzAfG0UkUKO2fcsuDHQoByKQHdm/3/5tWmxt38M+hTm+wgthyyYPJYrSIaL8xFCBpQ4txDyvEoL/BIcI+Hnk8HGDZCLq8qUrGJ8VdQEPhheqOxKsZieBLkSFiubnUBxSw2P7Hl0ikSKZ+g9780qsJsQ4uy7NYAVin8iaLdMuj326i1dIofHQdgrNZCmSYq/j3JESgtk8WCWGJnHxUkXYJ+awmUIEtjdv9GB3zEY3i9CUzsKUo6Eb1m1hOlfosBty4rhXmbKmvp0nXy7spYQosez1KDdbW4VazRv+kmyxFS9ZRNkB4VyZkkDTSYJFOTQIfN+8LGfVI8UqM7ZICUuQWiVunICiGTX79hwyTqaJ1YgsVAGnAvmUw6KHVB2AjCgZnKXEEIV/GBJV2RwxKJr9rNRpUiJ41YN92+adwWKSxBwWHTFmEL5TRw55BjeveXpbpgxNruBKxUifDIfv3n+RY+ZsqEOMkTfOazX2p9AYrl691rVTH3xl2VjlEsCli1fjyme+nwpYaLgciuMi/f69h+Kbg4f5xvVb8bDlBCZ+SQJNFNXSZYtPmTiDwwUVKpUxh5huzWHOhfOWu0+ejcskdFzadVdfc9TeucXHoCDOX3ASGiscDTzFbeacmYsgxVIM3+NPdzy8WL1yA2ODqwLMi9CEZMiUnq1iMkINmq6d+4mTmVYzKgmuXNFC1KZ9MzzjGF2NmtbFM85tvDu+9ADCXkzdP5qJjJgEObC6c8deqonNmUBNiHF229kzSNmluzPXG3Rs44pVhurzvUeX/mzQiCwcZTxz+iyn4fHJAMyy5UrCIQ1KozA1jho28fy5iwbE7RuFj2eChPEb12vD9jDeT5y07tC6K75gA//qZd+CLFHrN6gHXQsGQIkVG3vGdEIWSR06tSJLm3bN8LJu2qCd16kzsMflV0MHjVGrMsZQqwvFvYv15cJ5yxh03IHBLhslKgnMu43tlC1VLfyHc0AR9Qt5wlLBlrM2BlLCvLLmkJqnsT2kUtVyKOJdXXojCeGW2xpwNWBY6VKwJLIyZkq3c/seRiJSd/WK9ThQa7I3bFx7984Dp0+dUa+7jItu79wKW0WnDj1R+pE5U91mqR2YdNlTAlkbTBg7jaNt7IMgJK9fv+mQ03RzSSg/tkwZmiKCKxXFPRacLmFU3rt73yrDVpG3SsEgwU+xK9HBuZWv75WCecsCBNYF3ET7D7LoYdujT2c2sSa7zRBTOOk59oN3rhpEjja0bt6pW08XS1a7Ke5jO3Xo8degMfyxtmjctG5n1/bdOvcTRLhiaMXa+fysWa2xCOEWo1HjBovvnH/DW5Dv6DTowhUrm9g2/nR0acVxIC5sFrmmzhzHpGicRRPbvmMLZlwFIg7iK9MYZzWp5vjRU5lfycVMoD7/zSTEYcvc2YpyLcnGbctJoAkxzh4sJnUTcygAnz4eTBKnXrH+Va5aThxGIL1L57aoOKWLVmWxyxloXEM4KdC355Ci+U3OrRwx6trdGe1Ql7LdA5EU3ElAu7O/K4izb7V87TxxbN3uxZkTLFGqyJKVs/v1GlqpTC1iwYqTGpzdEncw0Ak5KMFRVQ7dEYuc4k4LVDGFjjHU6uLYqJ44dRReZqJHoUCzZ0y5ShpNJ7GdsnmlfpSQGrWroUK1a2nyXmLbkQPxxpwbSwnzvOYj0TyNjSHoHyvXLUCeKK2PCtin/5eeoKGjK7KGjx7UonHHahVNbl4cXxo9fnCD2ibFVPnUbVBz+F/jucQMY4MSaFw0yxh2JVj1iR0uMJw8fUzV8nVtqVf0GNFmus8bM8KNxEh1DBu2n7Mwpm/LlKGhECypiDRr0boxmhl/nK7i2LYxP1aRN85uHGu688s4hSbWycnRY99nn/9gZfwuiTmDkDxRFi796OzagbXOs6fPQd8WvyHmbFalQR+C0qZPIy5NCwH/3AKGhp4ydQqNX6FCinU5DgTcv6ZOgDn39u17eNgxvdGzbS/XdKEhFz5mSoeJD8sz07wlvx5LNFFgcWZmqjB3JIYrzBhAh9+Ghiw6O9vzWFYUoMxDDLJbYiZY4aK9UAtSpkohzqop2YECzvFdVXwFCOFECUdDNccWglViaBLTK7BwsFENaKGhE+K8dDzaiI5n7mgJklevXGcbG3dF9akKpSwDqDX84OsDzvHjxwVnXKswYChnw0hp3klsp0z2ymXqWhZEyLQvZ6NCjJLdM+IXwg2Yv/xiuhDJduK6UkI3uzmkuslsD6SjIsRwzsWwauBhY0lk0egMPWotPLrY6aBf6XYqc5YMimaFAFmuUOSsh3lGg5D3799jL3n//p/UqVPYMgsYkDKPCsGUESypiMTgqkqQtLRMVbMUGuTNq+bj5btt8+5JkyYR9RNpDOZAyBCJgETgB0XgR9QYflCoJds/OQJqjeGn8GP4ydtbVl8iIBGQCEgEJAKhR0BqDKHHUFKQCEgEJAISAYlAxEcggns+suPOqw3iIryI35iyhhIBiYBEQCIgEQgzBCK4xgBuIbt6KMwAl4QlAhIBiYBEQCLwQyIgdyV+yGaTTEsEJAISAYmAROAbIyA1hm8MuCxOIiARkAhIBCQCPyQCUmP4IZtNMi0RkAhIBCQCEoFvjIDUGL4x4LI4iYBEQCIgEZAI/JAISI3hh2w2ybREQCIgEZAISAS+MQI/u8bw5vWbIQNGlS1RnddNgJ47sxfMXVq1Ql1CeAe5b8+/9u05aNAkXDtqNY1B9rCL4sGVPzv2FK9DhV0p9qXM8zw9uw7wOXPevmShFn7QCA+chAce7N7EEYMg8od3m7jbXrc6yjuiurEhDlQLPVuK4LlI5YmcEBdqKSPXP3dx6c2/lhJ8g3CutUZ4Km9chWl9ba8OT+fwMJjt6cMo5c+uMTi3686zbDVrVcudxwGIeeqjf+9hHMisVLksF6rPn7Nk3ZotBtAH3H9oNY1B9rCLehDwaNXy9U+ePAu7IuxO+fWrN4sWrOAlArtTtiMaxQtWGj3c9CKX5kNgqSJVtKFmv+3IiRntLwE8KpY2eU7xlzF1Hp7dGth3OFORSPFteDBg7+eMWrt6k9Io4kufHkMUKJi2p02anT1DgWzp82dImZv3wNSPkiOXCM+azrFk4cpnv1apaVnejA4NpGqh94sNz3GcO3tRPAQVmkIt5T3heWrF0rXHjpywlOAbhKMxIDx9L/mJssK0vrZXZ92aTcePnrQ9fRiljPj3MRgAx6LWY9vucZOGN2/ZUCRbtnjV739UGvRXb/HzmNfupMmSGFDgRRmraQyy2zFq7+4Ds6YvXL1hoR1p/rikwg6NgIAH6ofLFYgIZCYOJ4jxlvrbN295YpSn0l+/fnP+7KW5sxbv9MBetiluvDjhhMmfjY0nj5/yCNPIMYOUiqfPmFb5jroweoQbD8aWKFX0+LGTA/uOQIcYO3EoCVjsThrvvnnHygwZ040e7ta2ZZdjXrvEa3A8cL9x/bYevTuHBkyN0NOQwk45oM9wGMuSNVNoStHNy4NJrn/2LVqsYP1GtUWCeg1rOeTKkT1HFt30MvC7I/BTawx3b9+jAdTvyN29G1CpSnmlVRiiVlvIljRWiYQ+wbEjJ71P+4SeTsSgINGgHcuULfF7jcqiQXkKvEPrrovmL//TtX3EaOIfrhaBzwN/+y1Rg8afp0Y1/y8CX04c7+78Z5sOLq0IZ768dzdgxrR53Xt14tHI9Ws2M49mypyBKNeeLpMnzrh+7SYvRD9+/HRw/5ETJo+IFz9uaNDQCD0NKcratWOfwVPXoSma50xRenI4ZFOI8EJmDoesoaEp84YpAj+FxoC2ftrLh66fOPGvhYsW4DFoML165drly1f5cuPazfjx40WJEpnuG/Thw6NHj9lKJ4R3sfmSPHnSxEl+U9qADbazPuc/fAjKnDlDztw5CNek0S2LZLxVyvutufI48O+hg8eiRY1asEh++FG3LnbIk8e9WcVSeqHC+QMDX8BMPsfc6vdhedI6IOAhgcrjs7yyevHCZVIGBX0UTgAZVYoOLw7v33uIZ1Vz5nbglXp1cf5Xr1/x8/8Y9JGKKGoTKf39byCeKNSU8fWbvPlyCWll3hFN72s/C8yR88uAx/R95/Y9lrasgWypMls/Jzy9gj5+LFwkvzl9S2DCOezxHPMZ73P37tyv8nsFBaIQo8EOrufRE0hhVEBHpzzmzAQ3RBdecyIYmQE8RozoTgXyKf3BvOLsbdO4SZMm4bVxNRE6drJkSaw+212jVtWuLr3P+lwwZwAbLJR5hTlOnNj5nPIoD6/b0nzm1GSIJQSwQll69X7P7gM4VDVuVlfJW6d+jamTZu3fexgN4+HDRw65soso+kmMmDFwseLngN5DCxfNX+2PSpZKVIfjvMJeFf0qa7bMygo+4P6Dhw//v72zAI8q5/r4twsUKQ6L+y7OwgLF3XVhd4Hiri1uRVuKa3F39+LuFCmUUqAUCrS4u8PCu/B+vyG8l7sjd26nQ2lL5unTZyb3JDn53+Tk5JyT5KGR0FPnCj5/CbFJysWLof98+JAqVQq1zfXBg0c+B44gOQsXKZg6TSp1RtMObMokggJZRzpihB4YP74jVzkr8sfRMR6PlJEeeDoo6Gww97OXKVsC0Uf5Rw4d4+rqzFkyFi1eSH0Tt56qBTOWer4pq0YpDMaAk2euX7sZNw7DNr+CCUPm3r0HefPlVsQRNMS6KfITCQ+kWbJkEqY+bVZfv36Dd4ZZIFfuHJFHi4r+GgNzUssmrv4nTqHgP378lDsmVnovYFbo4uKGtKUr4DLkf5lyJQ7uP8KX5UvW8Mc4nD1/UuWyfwz07N2lewfSuZS9e+f+mzZsMwzauHHxaOACKFm6mJrGUl1kXzB32fQpc2bMmdDJpXfSpIkJgIifwHHZqrmFixYU3XHbll29u7s/fPCI2+iZhpmn23Ro3r5V1zUbFsOb0mW7uLq9ffP31t1rlBSywIP4Kb6QRfy8HHKFEtCEXjx/gerQ36Nn1x4uPKIT163d7NjRE6xg0Ane/f3Oc1i/di4teHTS/0y9P5pNnj5mzMiJKEZkZCodNmpgm/bNlRqVL3hAWSJcuOqvpGzfspuoqKBLx1CzrDZ58oSZo4dPZNgkSpTw5ctXffp3U1ehAWa3Tn0dHR1z5s4+ffIcsly9HegY31HktQENMqK1tGvVFWUuSZJEBH+UKVdy0fKZ8eLFNW2ynhQNeNXZ6UJNnNui9IAVJmtUgeOn9kFgqeFdXfskSZp4y87VSiGw/XvV+vRDqxoDIJML4W7EP/KreaMOt27ehgegQ2ovXDYDrRoyq69PDxSSRkHg+bPniZMkNgsIWuOnJUpG5Wn2HL84ODhcvGhY0qRNl4bXJB4xfzNaEV97dh3Yu+fg4eM7zRaoTqRXu7TtfuigL7MUIxp3VbkKpWfNm5g4SSJ8VeglECtCb/7iaeq89A0RPe3Spjvp3Xt17OfeQxAQD9ixQy9EGc642HFiL1g6vWy5kuKRpQ5sxOr4sVOXLTZ0Zqwp/CEJ6dtC/mzbs9apUH4eiZGeIWO6Deu2xIoZk7FZtnypWfMnNmvYnjgD1l2o+BUrl122eq5QGnRWTckaPd+IT6OfTCUubXpcv3YjefKkz5+/RO1o37HVoCF9YODkidMtm7ru3L8e6S1yNWvYDlGPhBQ6xN7dB1s0dgkIOsS70GaV1Zpr254swJi2aHWb9s20uYqwp9E88hE/WZP6bVHS9x/Zei7ULyDIh/nerYc7+K7duHj9lmV8YW4IuX5q3uJp/I/nGM+1S1u+TJ05zugdtGrWaf8+nzkLJ1+5HUgP2Hdos9qdAbFGXaIoZu5pk+cwyOkxxwL2onZ49B8uHjF5t27WCcsBc+25kONU0a2Xa/WalZImTbJu7Zf4WJTxwz7HmjSvr+YN7R6G27u2TJAwPl/4K1GqiCAYPsRr0rTRgReOBl/xL12m+NiRkxEfPIIThM7Jsz5nL/qGXA+oWavK0EGjHz16rBQ7ctj4abO8yHj+8omSpYsO8xzL9GYEiJ6fGk0mXItiW7ZpfPnWmeArJzZuXzF39mdFh5Ktgnnl8tXgcxdPnz9ME+LEjaMwYwMat27eaeTcGqPRudDjtJery074BSDCLDWQ7sRUbfRHokJvFV5Bia/6+vWbJ84cOBN85Nrds6O9Bms3vFHTeieOB7AyUypavXI9whT9xhKrSvrmjdvR/IqX/NwxlHQ0leYtG1y86g+SZy4cSZY8qfv/+iQ0Gq/Pao2SwAiBp0+fHz/mXyhfOaIXO7bvhXlPIbh1606q1CnU9EwwyZkqHhqGZKu2TTeu24IzYuvmXczczVs1cogVCyFGuJV2lBV5GUeNnNtcvBDqvWlp6I3T6NYLls7wO36SvQA87d2vq7bQ23dok9AhNm1fCSU+EcEkHQNVw8d3uxBlCRMmYMeZeGR15CrNHDFmUFCIIcJxwKBeFL7Ke4EaAeU7lj8Hh1gXr55kbLp7uh3Yd6h6xbo5c2UnBZFOCsoT4WiisZakvWnJ2j3flF6kMPoa1GnJLO53ej/8XL0T2MOtE+uWmdPmQ1C2fMnYsR3gUBBjYMAmjamAVYFIYVGaK08O1gbaKJGRVW72nFkRbrQR+UD0JY4qS1xFZHo01xjwwGGJJYBIWHVYirn164a6jUuCValYmMaLFw9HIJ1euAPRW/litL4ky8H9hz2H9qv9Z40YMWLwhrATZs6SSf2qNOoSZGijLOWFVRlto1GTutjiWI/ydMRQr3Tp085dNEV4QOLEiV2pSjm8J3Xr1966eacSNU24tWP8eLX/qqGuF90WhlmRiC98F1FR0DRr2RArCF/Qk7r0cKGu8+cu8BOL34QpI8WVnhBjzHj37v3FYMOCRnyat2ooFprg0KW7y5s3b4meU1eq87tGkydPmAWGQ0cOhDdKwxGA4FCKtQommvuUGWN4oZhJxBsReW1AY9b0+Th0ZsybgH5GIeyUadi4LltgLLWR1RUre6M/EhV6q/AKSvQ/7EmiP8SKFYvFE+kaDa/f6C9e1nrvz5t30ACweBHeqDbJqnkOCbmMWoMwRZpjn2DdQwlGjSpVpljHru0SJDSEQyZPnsy54Z/nzgYru/s0Xp8lcGS6JQT+qluzv3tPLHm8aIz5ZYvXYN0siF+/esP6wSgjQgBzAom8uFXrFgYFBi9dtLKOc+0RYzyGDxmXPkO6pi0aIBnOnjmH8sEMZLZeuhP2/FFjPXnRENBVavxeuWOXtju378VcQRUaQg/6+Anix3M0MIbxCUroRS10jEFD+6Kt8pP/iDLUdyGmNDqwEYcMfKQuiXHixKFwxUxoRIY10WNIH7FGd+3ShtU5TpmhIweIUd++Y0sm6VMnDVOy/qoh1u75RjwoP2fPWPD+3XsENT5rEpG6vft2YU0lFhg0oUSpYviSBP2ObXvwWeTIle3AvsMihUmkStUKVlmdN3sxCGMHQrhBjF44c+4EUixxFZHpxlbKiKw7AuryPeKHkGU6pDOJ6h4+fMQXRosl37xZrlAb6bL1Gvxp9qlItFoXJRRwyqeUgAeOToApGFul37GTnbu1FwEW6ioaN6uP5X/PzgM1alUhffWK9XXq1dZvLS9UuIBSmujiwsZAonDbB5wMxOp46YJhuYMrRCEuVPizr4QU+OS/eg2t5lD7u8UmJ04UFHiewC71bKeOHrAKZrYcv6jjS7TZEE8toXH0iF/GjOkC/M8ohTBl8l5wqSIxTUsmDM2tX1ej9DEjJ+3ZuV9J1IZXkLErh/11LZq44PbCvCQSNRpeJVuFKtUrEAcn3GQ7tu1mpkG5MeVQpBBXL75g8UaxYLpCwJkSY/n0OXD0fNCFTzE6Qcw9SGShPFl6fdjJTcuRKdoI0G0UArf+3apXrMMehFp/VAfkmDFjECVglJ2IHMV4hnFIsQ/hS8WJsPfQZrpK+9bdkiVLQoQEBonlq+eajgiMl8ysdBt14eUqlBozYiILXyKBtHm29BSeCxb6EuuDbMHt9fCBwbOm0YHDJHKVqhnpimCkLQSW0f2UFLo0bSeKC/qwVq3R8y013PfoifwF8xk5AcuVL43plyAGpvYq1crzWoXo2Ll9D3H0eB9wMSDrsGUy71SqWs4qq7w1ahHqguCEJqt/WmIvAtKjucbw9OkzJCCHLqihxPWATzFM4KJnMDIVFdtsXqt14UVmKankdfgUgMnq9snjp6gOadOlNi2WWEXm0XXem9EYGOEsJlA2TckspWCQUB6hifP940eDP/tC8CXMd8TUELLEMMYRSOHC1S3o48b7Yuf/nPGDLRquxSY/eUZ1Kf+9c1UNjlUwWRBbarWldEtoEMSOxYI4BnVGOglRL2Y1BtZbYnWlpidR+WkVXkGJtZnFvdfoKVXL/4U2Y7CE/ZpTu+FNmjk3qNOK8olfQ33EEKVhl6bA8hXLMOvgcBVLNFNk8A117diX6A2nQgWYPxxiO6BBKj3B0uszLUemhAkBrFAtWjcmgoophHC/pMmSKLv/lXIeP3qSOvW/wgl5hBrRo3M/XJYYCP/6vUmvvl3YGU5io3ptxo6cxEZxIzboThSuHlkQ/PSTIeCaWMsw8awmpmOotU8hysQiWLsD21AjFgh1rhgxYxL7+W9mHGyoWrvnW+ITWZHl0wpK/cFSyE+8D/yvXLU8r/WQj2/xEkWO+56cNG3MzRu3sEAQBoeBAXeGWBtoo4QLuKBJLbhmLHEVkenRXGMgOBmgL988rTZc24AvoXnMH5jdTM0ASmk21yVMc3duG8KGTT+G1aHbYDocMwT2SSVq2pRSf4pH/xEYKg4e3SYsgRiix46arD+7Qgkab94YxonyEVHcVosSkzfreDXlvXv3lZ9WwbRkirdatSkBNh7sKGs3WnRDmGbRTtEPb736f9R1rk08VH+3IXVqNcU5qt1wDNos49at2dzWpQWmzsUrDGFrlj7JkiU11WzUxPRngnlr/1kdF5VQKTBofb3DeSzx+X2mC0uhUM6yZ8/K6GaPpfARAAj2HlyBv/5vi4QCEdEDP8aI0alrO0ITsBc2bmrYXoFCUK9+7RmfXOlGH2xFaB5GgovVMGSmBgnjzDb91u7ANhWpN5P+qm3u+VRx+7ZxPAE7PhBHYg2DMQARzdjk9RGIgGKXOk1KPDvoEGgMFSqXFQNNm1X6hrCFKy0X1mi9QHxNumgex8DSDZfEvj0+4cSwRKmivLOVy9dplGNzXYgJ9jfinzZ7ROufdWqiVm9cv22D9xajmEc1MzhfcLBpsKd+xCKVvXyK45DdnjozGpGlTpsKntkBpaRj39ZTFIKMyYwQDbVhQx0KYDOYovYwoUFdeGcUf40e/rVpwgQvsgYbz/DR7iwsiDLRbjjiBjcEXcV79caUqX4qX7G0NifaT4mlwnxaqkxxxQJxyNaeoF2RfGqKAPElTBvC5YelmoGwQXV0IyEODE8i6dQZGWiTx89EvaN7syWSR4pvm2EYzyQSAgK89dCgjqjLoXDmJPZvm3JlmhIjhmFV+e5TuJWej3YHNiohRgzDBKRfcGkzoL9qm3t+qbLFiZlQR63y4jZt2M7ODkXbq1K1PF7sXdv3VqthONqHl8WpXAQ3HPbxFUEMJGqz+luBvP5+p4RiJ5rMKV5mZwdtQL7G02iuMVStUTFHzqzsROdEbqYE9u9yJnSvrgPCCiW2Jjb/DOo/fM7MRbijbt+6w/UTRse1hqeuAR494Y0oXKL0mTnYwENotGASwcFmeq8xU/5+9+6vur9b4pxQSroUsoBmWt3X8EvWzDu37SF4Ak/e6hXr2EdnqVjt9AoVy7C+6dVtIJGk9O+RQ8efDTynnUV52t61FbYNrvNADrIvfMqEWcpB7tCEB0yyhwmN9q4tOCSRkHJ2eGMtZL5n2ycvWmdDTMl0wituJGF7GNBt2bQDIZ7ll8xWG96wST0CtonWbNTU2ZKvwZQlsynsK6HShfOWXb1yjTBMtq6wy9wspWki295EvL3pI5liigCLWro6mxToYByNgAjatmV3nwHdRJAyxymynXu451jOKsXSgOo80WtG1x4d1E4xZib2LbNR4rf8v1J+thxZ8d+LEH2ycLy6UbCC4AG3FHF57H9BXiG1CMKf6DV94bzl7Hpgd6Upn6YpYkfY+rWb2UtFCaYERilWO7CaHumBN3bnjr1IgPBfgqO/apt7foeOrdnh3Ni5DYFxAMIWTQ5GI2acMzGVdlWpXhETEcp39U8aA5+KlcoSBfnixStFBdRmtU27ZuxGadqgHRMBtWzesH2Ix2hFI6HAbzj6ornGQI/k9AU27rMrKU+2ok55yyAWC37a6RumD6J5+ep56IzshyyQp1T+3KWYVNiFrC4kPHUxsOcvmc4pOjUq1cuR2en3KvXVFntMCyjFqAuWwolh4486NREl7Vp2pZnELWu3btgoD8f48WtWceawejZ8jho3SJve0lNsbuMmDjsdEMjNBXlzFGeu7dbT1RKxUTo7jCHeuG5rcadK+XKW2LfXZ9L00QIljrwAACAASURBVApNeMAMKxrseVmxdj5u3T9rNs6eqWDpotVYNPxWwCCXbfvohJdXTFBC7l8KAx3a25KVczjByWrD8UrgmyDwggB1S+xhuCakPJY1xyfB6uOnjMSDXiR/hd9ylQwNvdK9l97Xx4KJDUSWGJDpRgggQDj7uWZlZzoYV5PQ22fNn0Qgi0I2ccoodic1rNs6a8b8Hdp0a922qTg6RSFYvHAl02qfAd1FCjFVcxZMRttDXOTLWZyx79KptSnsWLAWL59FjC3X5SC1CuUrO2PKPLY5GBVumlFJIaqRkAvcVdx5QcSlBqV4ZLUDG5XQ36PX6YCzSIBunfpZLVybQH/VNvd8RujGbStQOIgDAxA2yp4NPL987TxOkVJ444oiohQJhFKOtsMWSPwj71cR4NqsctAfGyVYmrKPlFqGDBo9YepI4bwWtXzD0Wc4PEv7NRg9dXIquH2f9X4TpjIjgJiVN++MEBXeZXhc4KjzhtPxEibAqG5phWdzXbwL7mF6++YtW6fU5/8jmuvUarLrwAaxvLAEF+ZHePvhhx+NDoowS09AKIowWQi8ggDfDQEfllpktgQlkfUTbNOhrZ4jZFoO8RmwQXCWpfB7m8EMExqCMVY57D7gXDnMxaashilFJ7wYGO7fvZ8ocSL0AKNuqdHwWtUacD4jp9aEiSVLxBztxetLnDghrw+2WdxoR/iKcl48Nxw7+A1vqahWvp5lQYRM03GlkiVEvk46o5s54OmTp5ybwmFNZqUQMgo9kvEr9ruqGcE4wRFGpqG4GKjoP2KLsgbjuJ8YaES2chCLDUFd1PL8+Qtkhf68Gh3YiE/6EsEBSFRxzqNGK3Q+0lm1bT1f8EAVYEIIlHaokFWGNVgloDXk0hXEMiHJRpI5gkffaf/grZt2T5w4keZ8LxqD1TcXmQlaNO5AXCQaQ2RmUvIWMQjgyilXsibqAhslIqbGyFlLlNMYIieMkiuJgFUE1BpDNN8rYRWLyEzAgUu4OXFqbt+6Z+kqw3HI8vM9I0Ccyt9v/+7nNpgtM9+5uvA9dwPZdonAN0RAagzfEHwrVXP6KUdHY8zs1aeznCGsgPUdPK5RuR4GhgwZ06/ZYHtU5neAk2yiREAi8LUQkBrD10I2/OVyBsjyNXOJyxPHNYa/QFlClEaAe425RojrJfXEGUTplkrmJQISgciJgNQYIud7MXDF9idumYu8/EnOIhYB7bjXiOVF1iYRkAh8jwiEWWNInvynerVafo9QyTZLBCQCkQaBJEmSSkEUad6GZCQ6I5AiRYqcOXOJFoZZY3j06KHlTU3RGTXZNomARCDyICD3SkSedyE5id4IiL0Soo3R/ASn6P0iZeskAhIBiYBEQCIQYQhIjSHCoJYVSQQkAhIBiYBEIAojIDWGKPzyJOsSAYmAREAiIBGIMASkxhBhUMuKJAISAYmAREAiEIURkBpDFH55knWJgERAIiARkAhEGAJSY4gwqGVFEgGJgERAIiARiMIIfC2NgbuD37x5G8mB4coGrpyPYCYvXgjp7NI7/JfBC7a5e6Jf78H79hyM4Fbor85eHO7f60NLuSdTT9X2BVlPjRFME7UayD2i9PndO/dHMEpUFyUEUYS9TftKvDANyQh79Xbhins+u3bsw389bIeze9tLQuphNfw09tcYxoyY+Gv2YpnT5s2c5teyxavz/sLPpW0lbNm4I1OaX83+Dew7lDIDz5xbs3K9bYXbnOve3Qerlq979OiJzSWoM969c3/+nCXeazbbpbSvUYi9OFzvvYWW3r1zTw+T9gVZT40RTBO1GohIpc8Hn78YkShFIUEUYW/TvhIvTEMywl69Xbg67ntixdK1Rw8f18N2OLu3vSSkHlbDTxPmE5ysVnnC75T7YLfcuXMwKY4fO7VZw/Y792/IlTu71Yx2J8iVJ4e7Z29R7OoV61EY3fp3FT9z5Mxm9+q+SYEZM6U/6r87VeqU36R2PZXai8ORYz279nDJlDmjnkoljU4EPnz40L1zvxIli9RvVEdnFj1k06fMvXf3/pARA/QQfyUaKYi+ErBKsZFzSNqFK+eGf+XJmztipi17SUgbXjem7oF9hzFfZ8+RVWd2+2sM6ov18uTNmevnwt6rN+Ya7KaTITuSZfk5E3+iwJMnTj969Lh1u2Z2LD+SFPXzL5kjCSeW2LALh46O8exSjiUmv8/0//znn5XLvHPnyWnf5m/esD1Fyp/sW2ZYS5OCKKyIhZU+cg5Ju3D1ww8/5M6TI6yA2Ez/rSTblcvXdu3Y13dAd/2c219jUNedLFnSuPHixoz5dWvR31pLlA8ePPI5cCRWrJiFixRMnSaVmozLpk/6nwbZFCmSFytROHbs2JYKMZuOYePsmXMfPn5AKGfN9rOa5u3bv3HZvHr56td8eXLm+pfNA+frmdNBd+/eT506pVPh/A4ODiIj67YH9x/m/S3P9Ws3z5w6W6J0URA+fepsmjSphIAODbny448/oicFn790OiAwZaqfipUoEjduHHW9FH70iN+zZ89hCSX6/LmLCRMmSJc+jVn+TROV6k4FBJ4PupA4caIy5UrETxBfUNKc0NCrtPQ/7/9z9MjxX7JmyZb9FzWHShNoiM/Bo7EdHIoULwS2RhWB25nTZ//550O2bD//mi83T5WMglKbDVO2SbkcepVccWLHLlaycNKkSczSWEq8f+/B+XMXnj59/ssvmcFfIVMA541gyfzhxx9Zr6dJm1oh0MOnRh/D4EkJN67fTJAgPrdWJkmS2BKHT58+8/c79fz5C5YsBZ1+oxtYolTSb964ffeuwctz5/Zdaokf35H3JZ7+888/ASfP0Ki4ceLQA/UbsWCDXG/evIETyqQ09QVatBRLLwRcx8poQi6rmXz8+MmxIyf+fveuQMG8XNlqlX/9BFFFEGnIBI1OYhaH//znP8eO+t+7d/+nn5IVLuoUL15cNZmGxKNLX7oY+vHDR8YdfUnJpXR1Bv7tm3eq/16ZISzEkaARXf2nFMnFK6YvFS5a0Ig3RrHfsZMfPn4sXqJwkqSJET6ZMmXgyj2zTSBR5/hKmizJIYRJ7NjFSxZRCwpFHDEcDML21ev8BfIayWFqodPCFT02bdrU8BwrViwlI/qHHjZM+Q9TZ1ZLSIrSfnfquvRgjsD3O37y4YNHyZInLVLUSZHVzBHMa5R28WLoPx8+pEqVQs8w/7pzOV2H+3nLli9pCmjkSSEaqGOHXkmTJsabGDtO7AVLp5ct95lh5omWTVz9T5xi1D1+/DR9hrQrvRfo1AeR9b27uy9bvJoh9PLlK3A4E3xEUUcuh1xp36orK7wXz18gJvp79MTkLjBZt3Zzn54e79+9T5Q4EQww467bsgwGeLpg7rLpU+bMmj+pbYsu9Kqlq+aUr1i6ctk/Bnr27tK9AwTdOvV1dHTMlSf7vFmLkyZLykyQI2dWsidPbsjOZ8+uA53a93ry5CkF4jZq79py6+ad5SuUHjtxmJ43wkRCdX0GdD8beG7f7oN0wdu37tLAFWvmiXn0pP+Zen80mzF3gkf/4fRR185t4E3NoWjCjDkTOrn0BnN8ePETOC5bNVcRLi9fvOzeuf+mDdtQdOLGjQurq9cvLFu+lMh480EwfFplw6gtYOXWw4N3gX7z9u3bmLFiTZs1rnrNynqaDM2gASPmzFzEhBojRgwEQa0/qs9dNEXkFYCXKl1sxFCv1GlS0hxk09gJQxs2qauTT40+xpBu3qjDrZu3UQcBEwYWLpvBRGvK9pKFK937DUOzpHYQmz5nfF3n2qZkRik4DcGExBlT5/HHK9iy0/CTDu/Spsf1azeSJ0/6/PlLenL7jq0GDeljNMGbLZ8O1rFdT/GI986XO48/hy+8ffO2Tq0mQYHBAsYKlcosXzNPKXPB3KWeA0dCH8sh1ssXr+jPAwb1MluFDYlRQhBpyASNTmIWDbQ9BNezp88SJkrIpN64mfP4ySMUSksSjxC8urWbHTt6ImWqFEyu7/5+5zmsXzuXFiKj6Oo5c2efPnkOKVdvB5oOyZ5unY75+p87Gyz6Ye0/a8xZOFmpl/42bpRh4CRKlPDVq1csbQd7jEaa/VmnptlWkKhnfPXu15X13nFf/3y/5dl9cKOaKyGOJk8fM2bkRJYfCNu//343bNTANu2bixrRw7zGTJ08fgaiGGnGKBMdT2TctmetU6H8VtkwZT5MnVlIM0WGa787dV0iozbmSIbBHqNevXxN6x49fJwgYfzRXkPq1KtFOcgWEYDv0sZgY+jeq2M/9x6mbTFKsb4QsVqEEQHR7ITub1i3ZeigMW1bdvEY3MesjAtrsV+Jno4yZeIsH9/tAUGHjgXsZbUtxBbV4eJtUr/t/fsP9h/Zei7ULyDIhznMrYe7Tk4w9vK2Vqydd/ai77U7ZzdtX8kyUck7fIjXpGmjAy8cDb7iX7pM8bEjJzOwxdPHj55MmDwy9OZpnu7av/7qletTJ85SMn78+F+E+9bdaxixWERMmUGdvHPr7sVrAafPH17pPf/ihVCcyoKMhXvrZh1z5MoGS7QIApw1TPmmhWinzJ25KH36tHB46tzhg77bHRxi9eg6gLGn5Jo4bvqwUe7X7ga5dmlrWhSYT5s85/DxnQJz1ALUC4WsVbNO+/f5IGiu3A68cNV/36HN6oWOujSrbCjEg91HrVm5Yd6iqZeuB4TcOF2pctnunfq9eP7SlDezKUyZm3euIm/wlRMjxnigzezcvlehxNgDw2cuHD151ud8qF+RYgX79fZU3iZkGnxq9zFGePOWDS5e9edNnblwhDHvrgJKYeDqlWu9ug1s59Ly4rWTIOZ3eh+i02xDjBJHjBkUFGKI7WJuDrl+apX3Ar5jeGhQpyUKpd/p/ecvn7h6J7CHWycmiZnT5usp84+/alAUdoWKlcvyhT/FxDhrxsKKlcvBJDAinvbuPrhty25R5rYtu/r0HNS6fbPLt86QZejIgZPGz2Dq0lOjJZqoJYhohSWZoN1JzDafYZ41WxZkCyP90rWABqogFQ2JxyOWQ3RjcoVcD6hZq8rQQaNx5ipVXLl8NfjcRXojBHH+bbkUNDOnL6hWoxIjhX7IEmjj+q17dx8QjwhIHDVsQqu2TXjFdID1W5dDbJZ5o0Sr44sYtaLFCtFtFq/4IifVhYwcNn7aLC/EKf25ZOmiwzzHolULAroZEbIdu7RF2gRdOka76LdmubLKhpIrnJ1Z492ZZUwDczjp2XUAKxze5rmQ4+cv+xUrXpgVI1Yiitp3aNP8xdP4wtwEet17dzRbvlGi/TWGp0+eIfQ7tO7OTFy8RBEs53r4+FY0TAaDhvbNkDEdDPC/UZO6DAmxhQ8HD66BMeOHCIcWpma3ft0OHfQNuXRZD7e3b99l/ZQv/6+CuGjxQoo5iJRmLRuWLF2ML2ghXXq4oN1j9BaUbTs0r1m7KpYxfpIdfQs2lBpZLnfo2BqJ7Bjf0aw1L2bMGKwnhCeifMUyLBwxuInsaL60d+bcCawhSMHgMXPeRFKUwnV+SZs+DUFtwleCP6Wfe8/A00H4bpTspcsWZ92AIdTU3QANNbJ2EX4QtAEwx7YGAjwC3oP7D3sO7cfqhJUoKXny5rJkoLbKhuAHkceyo51ri9//qEZKnDixR47zxCmzznuzzvYygWHnF8St2jaNHduB9ip5MVpgMhFGIN7IhCmjWMesXO6tEGjwqd3HSpUp1rFruwQJE1AUViLnhn+yemNhYcQ2hg3UNbQEsV4nONTU7mq2pXQSVORPmMRJlDghPYrvs2cswL6FEQXHAT95y737dkHOoqeaLcQokX5LUbw78YXvCsFv+fNgcxJMduvlCow4zsTTcaOngLC7pxvqBQSsa+lXbI3RU6MlmqgliGiFJZmg3UlMm4+Gcf/eQ2yTwhPBK1B7BzQkHhb4CVNGYkmlTF5Emw7N3717fzE4RKmCnjZlxhgkIQJEDE+j2gs65VNsEsxAdB6/YwGChkUCoegMJSGaWLsrYemmTVCnWB1fjvHjofLSTCOHslJI81YNxaoVQLp0d2Hb/9kz53mKOXOi1wwW3BhNBVcY84oUczLLj1U2lFzh6cza784sYxqYwwmYj5s4TMgQfHNoTth0Z3/S1ZiP4jkafFUYL0EPwWi2fKNE+3sl8IWwpEau3bh+izFfvWJdbKQadic9XH49GqxnBQt9ngyoBSmJ8H344DHzme8RP4YNY4YRKxh4+PARX/D96JHIVatVYKldp1bTXn26VK1ewWiAFSpcQGmUEM3qVSmrRqGa4PElDIJwBDUC2MA1AMmZK7sQ/YImc5aMvkc+r9Uw3OELVzurkA5Ce9Ao0PQRM5naQI1vzABL6FVhweO7UIZMM4oUMC/glE95CodIMeyBadOlObDvEE/rNfjTUl51ulU2BDHefdQsDKHKeySdYXP1kw9Pz4cugVbOkhd7D3aaDx8+PnnyTMnIvht1lB96Z5q0qYiZUAg0+LTax3CC+Bw4SrzIp8COIATKixcvjYIwUCt5j727D8Rp7dzgTyEd9LTLLI3v0RP5C+ZTh2JAVq586cM+x/AQ6/F0mi2WxEKFv5jEENB0vAcPDHY1jD1Bgef/qvu7+sAGWnHlynVLRelJj1qC6BM+5mWC1U5ihAaiplrNSgvnLcfH2qpNU6EBKDQaEg8alF3fI8cDTgZir750IZQUFC8lb7Ycv2gHtKqbwPScKnUKbLRkf/36DXIM+7labhT8ZPC3+rE+vjTlIeWrOx7ShhTB1Qm/AJzF9Rv9ZZUHCKyyIQoJZ2fWfndm+bSEOfoQw6pXn868cSVjwkQJCjrlFzYGs6VZTbS/xiCqZK4l/g7TNF5YTFuRVmMg2lGJK4Rzh0+BjWLZTTgMAtr1f05Z0a54jvGeP3tuFVYIiBvatGMlFrCWTVwYtIOG9K31Z3UlI3qx8p3F1qdKP1v1Pd1HzZgyF39h3ny58xfMi2kan59CDLe8dQ0GMPKrnxJa+PHjB5HCartAwS9TtUjEp6BRmtlHRvF3Qj1nJlOIk3+KurD0AXNhQfnMwCfMmYb5j06WLFkSndquVTZE+c+eGt7XhLHT/u/fcXYEl1jiUJ2OsMM5hZ0GzZI9SASOYJ9Uu2ASm0QjsmRXo6HBp3Yfw6jbtWPfJEkSORUqwGhyiO2AHFdXLfhkabht99ohg8Z49B+BZdulU+vuvVxtDjfG+Z3lk1RVfwhV4SdQ6EHMEo26z0NDTxYDDXsPP4mn2aHy9ZBCPK+lovSnRxVBRIssyQTtTmIWiumzvSZ5zZg3e8nMqfORvUNHDWR9KSg1JN6F4Et0dV4H7k4WRdjnmVrU/U0JhzJbKYnEuasf8YoRoaQ8efyUclJ8Mm0qH7UQsFQg6VbHl7a0oYS48b6Efn8WtkLaPDCsAI2UY0ucWGVDZAx/Z9Z4d2Z5s4T5s2cvoDfCnJSfUiQ7F2SIBrPt87U0BoUbNgLgrcTOH9ZdBra1x465EPTMppdvnjZrf9NTEYbW9VuWEQ88qP9wQjpYVFkyeSmlofbiMyZUp0HjOiKR+UmtMfx71tPDxRcalAm1V5IHYnEftlIM5+j9a+a4fv0mJaRO82WDgHolEabCsQQQYaqzt1hlQ1QtfDer1i20Cr5ZVufOWuTvF3Dg6FbFsEQAl5ry9evX6p+ISAJOy1UopSRq8KnRxwCBCNDaf1bHUCxWCbNnLLR04Bhdi1hO/GuTvKaPHTkJzxSBAmabYzURlnCoGZGxpYJ3anXCsFq4WQLCUUnHiN2jdyezBHZJ/K4EEcLWrX+3zt07rFruTWAWBrw1GxdbhRGNE8PAwaPbhJESF9jYUZPVuWwe12LOZvGjLg2TmFWWILA6vmzmirBQyr9z5x4eHKucWGVDlBD+zmzbuzPln5UGyBDTZvTo3p372oYi06LUKfaPYzCqD2mLnTbKqQu0AmsPLol9e3y0EbT6lB2MhLhDdvjQMavEF85fgob9ioKSVZ3/iS/xAVazaxP8VuBXTPTYlhUyIviwQ2rnMn1KqIF65bFqmTeLiWIlCplShjWlRKmiKDErl6/Tk1EnGzhi0Pm2b9ujp0xTGt4IqxBFXSCC4fkn5V35BJ0NZq+a8nPj+m04Ssv8b7sN6Rp8avQxIlLZ4lWqTHHFqMj+MVP21ClEjQwf7UGMy2EfX21K5WmMGAYJQOCCklKqbPFTJwPZX6ek8K43bdiOy0kdlKBdfoyYMRg72jTKU2xm7OjZtX2fqflEZwl6yL5DQYTxr0Xrxi3aNDly+LgebLExOBUuoPg02fysB1g9NOia2FkJxFOzwaEdevJaHV96CjFLQ3gHgmvFkjVmnxol6mTDXp05rO/OtAmEKbCVdL33ZvXJ+gj/48f82Rwn6GPEMJgM3n2KIdP5sbPGsGbVhhFDvDgmHScK/9leSEQ0jnzBDcFxFcvUJphfJ3PflqxqjYoIsm4d+3iv2USQAWEZtK5XV73H2LEiZLsEkedYxVevXM9QyfNrTqstEhviicd5+PAxALZp3knPULdarCBo16EFW4yaNmjHi8DYwH6WIR6jtX0cZksOCbnMrieCLfCysxFj6eLVxBWG9YQDsyVXrlqeYYxJht2Mt27euX3rDtGaWFnMEutkg3m0UdN6BPtMGDeNuBBmd6Il6tXWe5bXz1mzEEPAq8Q4fOTQse5d+uOZUvPDpNu8YXv2RKFJ7Ni2Z4DbEPQAdcS1Bp8afYwwLhZ8C+ctA2eMFri3qMIsDgQ6sEOM3oIPFQ6vXLmW59dcZilNE7EMp02XeueOvRy/LbZaEVfLRvnGzm0I+6CTsMOzQ+tuhL9xMJxpdkspGTNlOHXyzLmgC8Rz6OnAXXu60jp2eWGQA2e+M9CUiF1LtWikf8+CCNnbxdVNdEg0vyM+voS/6VmI/5I1885te4Cdcb16xTrihTUQDusjnGW41Tu7uNElGNcMRp33jFgdX2HlRKHHUwNXbOJgnw7Dh97O+EXamy1QPxvh6cw2vzuzPPf36MUExFimM7A9hICYRs5tkiRN0qFTK0EvtqGtX7uZtvNSzBZilGhnr0TGjOlHDRs/0Wu6qIaw7bkLpyj++9BLl1mihVy8bHZboB52baZB+Ko3N+opB2HK6QuMPbFdlSwI8TAdj8XOFmLuyMhsyuKvSrUKVuslppdOPGv6AmZK9F9CyrESB501RPaG/0Noxez5k9ggWq2CweWBWJ8+x6t1s06EFYSp8A6urYKDLxXJb2gOTBIdPcCjV5hKsETMenr56nkcR8F+ywF9hkDGfLZirfl9ffrZYEskZgb2go8cOp4y6QzsULfEg1G6S8dWxILRDUjnPU6ZOZatjGoaggyKFneqVbWB2O7BMQPQqKONNPjU6GMsMsZPGUk8o8CZA3OITujvZsDE6BMnbuyZ0+aNHj6BdF4HWyrCdJIBYoW9pvlyluD0mw1bl6Ngbdy2ghvacGmLitBil6+dx2Yf44ot/2a7GmpZuRI1wOH2o8+bgCyT/x/x6shKFhscRgIZ01u1GhVFRLBGLo1H37MgihEzJudPoOMKfNjnMmXGWA2slEfDRnm0aOxSs4phaLBXZdS4QQ3qfJ5a9GTXpuG8XbwSUyfNQReBEq5wt9Wu3jCWtfP9rI4v7Xq1n3IQDttEp06ajbyFknU5h6mYzaKfjfB0ZpvfnVme2bO2ZOVshEbV8oboToYVsLOjUglqYYhhhWJxyx9bojjZwmw56sQf9KwA1BmcnApu36dlxsGqjOmDzoGXyHTMs3DUf7ygVe4jhgADAyeoEPyFt1iPqq5whVX5xo3bxNpgkUOU6+eWZRb+J/YO4INH5+AdhSm7dkUUGHLpCiEa7L3me4aUuekohDFr5xJP2QKTJll2cdgIC18CmnjF6l2jegrRQ8N63XDQYcIEuLTUs2942OB1YC2AW3pgWAMDaazhwMesmfGvYeVD/xAlIF45MmvVugWCYXqI2keoHy5LfYzTvdigkThxQjwjREiwY95sWCjKCjaw9+//kyFDWhteB8YJYheAWpxwJ0CGJQYyAV9i77Get6amASXQ5gwJ/dEP9EYWoLzudOnTip2BGpVWK1/PsiAiiPiH71kQITFYXHJgUcrUKcW+Xw0k1Y/oY7w1oBPGTlxLCArTAaizNFMy9ELRK+jPB/cf4bQ3DgPQUEa1x5dp+bal0Fcvh14j+idDxvRmx5cNbISpM6vZtvndabQd8yFjPE261GYHI8Oc8y5545Yi9k77B2/dtHvixIlUYWcbAyXSvegNlgJQo5y6QIuYA2wLFUF223aXCXYFJcBeZ0SxRncxekSBCldbNu1EOhQxOcxVT2kab1lPdm0aXOa/Js6tTSOe6meD18HpDnrKNKVR12I2KMcqw9p8WupjWBqUl8V4tjSkUSiVA55NmbeagmfK1DlliSWrpQkCUNJ/vY3IQs+04xVx37MgYmFjm55HB1OfaWt2+tTZAcySsQYQh77zdPOGbeiFyk+z9Eqi1fGlnV37KX1Vp6DWz4bNndnmd6fRRu0L/NiHrH/XtJ3jGDSYlo++OQJENk2ZMEv4q4ipxIEnnO7EG35z3iQDEgGJQDRGgDhHgktE1DA+dQ4XWrZkDac1q81a0bj50aZp9rcxRBtoomVDOHltqOcYVq5skcD8RWjFhKkjw+RqiZawyEZJBCQCXxUBLicjAAg3B3YFNhPhqyX+ru9Aw40G8hOFEJAaQxR6WeFlFZPv2Uu+HCB4//5D3JP81G+MEnXjvN+8Y5XRKXLhZSvs+SMJGzA+ZvzQH3/81wWM6tZEHj7DjrHMIRGwJwL1G9WpVqMyZk42YnDsCsfT6Qm40R5f9uRPs6xIwoYmjxH0UGoMEQR0JKkG75py1YVtLNl2DpJtdWnkiiRsWHV/RhI+NZCUjyQCEYMAsTKm919rV211fGlnt9fTSMKGvZoTnnJkHEN40JN5JQISAYmAREAi8L0gIDWG7+VNy3ZKBCQCIuCy8QAAIABJREFUEgGJgEQgPAhIjSE86Mm8EgGJgERAIiAR+F4QkBrD9/KmZTslAhIBiYBEQCIQHgSkxhAe9GReiYBEQCIgEZAIfC8ISI3Bnm+aCzW4mcmeJX6jsriRpV/vwbZVzimwXTv24b9t2b9hrpnT5vNnAwOcm9m728D9e30s5YWgs0tvnVfvWCpEpksEIgABtRDjfib6rbiiLAKqtlcVUWW4cRc5d9Pbq9VKOSGXLiOOuHXP7iVToNQY7Inqnl0HOCzdniV+o7K473jpopW2VX7c98SKpWu5C8e27N8w19xZi2ZNt1FjWLRgxdlAixeGIcJWLV8XfP7iN2ydrFoioAcBtRC7d/cB/fbRoyd6MkYemqgy3A4fOsbBu3bH7c7te4ijhw8f2b1kCpTnMXwNVL/rMp0b/pUnb+6ouIN56641yvGXXMnTvXO/EiWLcPLMd/06ZeMlAhIBicD/EJA2BtkX7IwAk27uPDmi4snT6psnuSWS+4KfPXthZ3RkcRIBiYBEIMoi8F3YGLhA4aT/6SuXr6VIkbxYicLK3YPc8smVvnl/y8PlTEcOHYsTJ07FKuXENbvnz108c+ps8p+SFS9R2DG+o3i/oSFXuBAvy8+ZcBFhe//hxx9Zg1q6pVNkef3qtd/xkw8fPOLa3yJFncTBqFyCfPrU2VSpUhrd5AmTqVOnVArk5l/I4sSOXaxk4aRJkyh9jMQ0aVIlTZbk0MGjtKV4ySKm3Y96z5wOunv3PgU6Fc5vdFk2TQsNvcrtEk6FC4CJaXYlhQurDvv4vnz5Kt9vebJm+1lNaQlVLpWmcIjFHTOCW+4Kx08BblyxaHruGy/C79jJDx8/gnaSpIkBP1OmDNz0bYkxS8hAzyWzRw/7cVN26jSpypQrcffOfQ60Fzcict/rlSvX+K7cyMctt8HnLyl1Ke+Xm4Lv3r1HaVxyDf/x4zsqN0NCc+li6McPH7lzL2Om9KYcngu6gPchSZJExUsWBWFTAiVFoxUaueSjqIsAhiv6+c2bt9OlS8MVz7du3lE6p2gUt734Hjn+8OFjLpAs6PSb0lJFUiGvfBj1Dg5FihcyGrlW8zL6GPglShdNliwpJVvtyWqcnz59RnfNmvVnLm9U0rm6+uLF0OzZf+FGSru8FCE6smTJpNykypHSDEaEj7ICYXwxuBQhCcGxIyf+fveuQMG8mbNk0mCDwe53LIBxnThxoqLFCilVII0DTp4BnLhxkIf51Qfnh3WCELVrsEQHOHE84MaNW2nTpta441ujFWF6hHfm2NETt27dQcQVKlJAYAiAzGI5c2VTF0XACj/1XDYb/TWG+/cetGzi6n/iFPfEP378lDsRVnovEDe6Lpi7bPqUOV6TR/Tt5ZkoUYLbt+7ylPvaiV5cNH/FTymS4RDKmCnDxm3LmX4AtFunvo6OjqVKFxsx1Ct1mpTMRkA/dsLQhk3qmn2RSxauHOwx6tXL16gLjx4+TpAw/mivIXXq1eK6ga6ufZgat+xcrWQ87uv/e9X6q9cvZDAw7bn18Fi2eDWd++3btzFjxZo2a1z1mpUhpn9XLvtH735dfQ4cIQtjaffBjUa1r1u7uU9Pj/fv3idKnIjmZ8v+y7oty2g+ZNwa18S57amAQO4yhiVUluOn9pllnkTfI35Ah2aA3vD+/fu2HZoPH+0hiDVQPel/hmvvt+1Z61Qov+C2p1unY77+584GAxcM1P6zxpyFk5VKx4+dOm7UFH5y2vyrV6/6Dug+2GP0rPmT/qxT05QxDWQgvnrlWmPntohC3tfzZ89/zpqFO38vBocc9d/N02O+J5rUb3vQd7syWlAIAFOpS7zfVesWwBLgk2XG1Hn8oeLwpkCgbu1mjEBMEa9evX739zvPYf3aubRQmKSxHVp327Rhe+LECXH98h6Xr5ln1juj3QrTVsuUaIAAscDNGra7EByC9k//yV8wb8qUKc6fuyA6Jw1kOLdr1RWdgBmR/lOmXMlFy2eKBYyQVDPmTOjk0jtp0sRInvgJHJetmqso31bz0snbtuhCx1u6ak7Z8iW1e7Ip2n+//fv3KvW7dO/Qz72H8nTOrEWTvGYEXvA1pbct5d3791XL/+Xu2btj13aiBCTDvNmL9/psEpdio7hUKPX75BljnBv8CcGCuUs9B47kSyyHWC9fvIK9AYN6ma1625Zdvbu7s3Jj6fL0ybP8BfJu3b0GSuYFlzY9rl+7kTx50ufPXzLFtu/YatCQPmJyDesEoc3Sjeu36AAsh0QHyJc/T1iv9THbNEuJ9+8+qFC61tXL12LEjAE4LJWXrpyNbrdw7tLVK9efCzmu3Ovx9u3f1SrWbd22qSX01FVEc68EOh2TxP37D/Yf2Xou1C8gyIdln1sPdwUCjM+rV6w7FXTo1LnD3LHEUGQsEffHjU2GlJ2rbt64xX2PCj1K+v59PmcuHD151ud8qF+RYgX79fZkkJu+Nvpoz64Dav1RPeR6AK/n/GW/YsULd2rfi9ka4kZN66Fsoj4rGXmLTG+ICVIGu49as3LDvEVTL10PCLlxulLlst079WOJ/IV4xXrU5JDrpxavmGVa9eNHTyZMHhl683TghaO79q+/euX61Imfydz7Db9+/eaJMwfOBB+5dvfsaC+LGyL++edDP7fBi1fOunjt5JXbZ1q3azZn5iIR7W8VVSOWZk5fUK1GJdpy4ap/1x4uG9dv3bv7gKAh8GfUsAmt2ja5fOtM8JUT67cuh9i0RUqKBjJM2E0btGde513TupAbp4oULbht8y6N0iw9GjFmUFCIIXKTIQTIq7wNLNFVUDR572cv+vJOa9aqMnTQ6EePHiuFzJu9JGGihMB+/vKJXQc2IH26d+prtgqNVpill4lRHQE6J7MFtrrte70ZBXSSHDmybtm0Q2kX9oZGzq2zZfv5XCiy4gSy6IRfANqqQkD3QxAdPr4zIOjQsYC9cePG9eg/XDy1mvfjx/9SFHPk1duBhYsUtNqTTdFGBS9fsTRLEfUjZNTvf1RXWx1MM4YpBeMHq/wD+w4ruXZu38NCS0k5dOAojypUKsN/BGyfnoNat2+G6GCQDh05cNL4GSj0pjWS2LpZpwIF8wVdOoYovnI7sFsvV8gQvw3qtGQp5Xd6P5hfvRPYw63T9Mlz1BumwjRBaLAkOsDz5y927FsnOkCeX3Nt3bTTlFt7pQzoO7Rt++Y0NvTG6WmzvTBueY2dRuGNm9dHRYBVpSK+Y5Nu3MxZT9XRXGPYtWMfxvkx44fgWQcOln1u/bodOujL/hOBDmLd3dNNdHouDSpXoRTGN8wGSZIkhoDRhe0IBUKBkhU/mr5Yr2M2nzBlFMbAlcu9TbHmAvhceXKMmzhMmOwYDNNmebEymP1pRqzf6C8sDeu9P49ACtm0YRvvDN2WSQjdtp1ri9//qAYlJvSR4zyfPXu+7n/EJDrGj8dkBtvC+GFUO8aAmrWrcukU6dw7hXYJCIKGVTVatvCGQFC2fClTzkUKakHvPl1AgJ84NYaNGpgpc0YmRX5aRdWozIJO+ZS1ePfeHSkN86CgQQiCEqNdGPAxS7DCsMSSNjJwhb9g2Ch38a5pHcXiQrJUmkY6zCT8ZGjFUQXIwi2Fk2XClJHi3k7eXZsOzbm6FwOGUg5mm1HjPMWi8Lf8v/Z374l2iKfJqCLtVmhwJR9FXQT27j6IdWHYSHfha2BQj/IarPZqsUnnw4ePM+ZNEP5HZFHDxnXnzzEMN/FBUmHTEiOXjI2a1MVfhn7MU6t5MS106NiaPklPRmpZ7clmcUY6sRZnUS6e8gVR2axFA7PENidWqVoBWyBTGiUEBZ5/8vhpnXq1D+w/JAo8eOAIKoXwqiBgARPpzWBEbCJhsB2qEVN4wCScLn3auYumMEJJBPxKVcrxZfaMBRhiSc+UOQM/kUu9+3YpWbqoWlEL0wShwRI7ULAuYKNFcRE8jBjjkTlLRpuBspqxes1KrEsx6wJOvfp/1K1fG+sCzaEb5Mmby3vNF+Vv9Yr1pcsUFyBYLTaaeyWwq9OfkOxMJwILseeEmAbhlQfQ3L/mVGBKnyEdEl+dgpLhd8xfIcALLrqdSMEqkCZtKkaOEdB4+Ojuvfp0pnzlEZ6zgk75hY0hefJkVapXWLdmE5Y0CHZs2/361RtkBN/9/U4xwjHRKzyTiKqBfUkpCs+IUY1GP7HPC8UI/9zZM+dSpjIMFT6/166KC6ZFExfqFX3XUjn0M6yXytMYMWJgAsX4SYpVVI3KLFS4gJICvKlSp8DqQwrODnjDZ6EOkyxYKL8llrSRQYmGyYqVy6p5xmsTeOacpQLDmi5cxQEnA9mhfulCKNmxcCqFAJf6daOo8Yi+oXZIk6LdirCyJOmjBALHj/nTNypXK69wS1/FNq50zqNH/DJmTBfgf0YhYFWKFR3XvrAek72Ak2GyER8mG6Q/BGnTpbGalyxGEkO7J5uFtHLV8og+RBZqPQTsusTtbRqTZDav/kQgGuo5hmCO8hXL7Ni+lzFVtXqFZg3XvHnzFtGBK7bpJx0FgysC9q+6v6vPOGFtduXKdaO6EDJIhs7d2ivhawqB79ET+QvmMwpEK1e+9GGfY0QwCJeB/glCmyXcsrxxMFRq56d9pZNRwwFQnVK8RBFe2d079+gwjZvWw9hMuAxLX/zLoDpz3gSd7yiaawz4vVgru7brqYYjnmM8nNwiJVYsNIovIMSMGYNlpZrYwSEWI1NJSfzJ9qD+QP/ixRd/gXgkYuxTpEphRExsxLmgYJHYpJlzgzqtuDAeLQQtD7VX9NFnTw28TcCC9MMP6uyYNJWfhGQalaz+6ek+asaUuTlzZ+cSetylxCsQHyAIWrVtyrjyGj0FfyETucH6olKY1IXQcCXkU6THjRP7xXPD3gGrqBrxFjde3H+X7MBLIYUFBEESRigJ04hRCeKnNjJESBAvon6b5MLBabYoGxJ5U3i4MPZgd0HdRDVB+YN/pShhl1J+CquJQExdnXYrbGBMZon8CDAG6ZxGfVvdOZ89fYZLlDgGdVuQVIReCY0BSaXO7hA7NpSYJfhvNS+rZyXQD3qrPdksnoys+g3/wp6K6Y7xu2n9Nmz4ZinDk4gWgi1z/95DTHg7t+1p074ZEcQxYvxI3PQvWTOz/hGTLsOQWrZu3olWoa6OkHCj2hEyCPC06VKbcgVuWUxW+ZhgoUTPEPT6Jwhtlp48fvJVpZNp64wix+N8isImViNtuv+r6/wHjtHNG7YxHaxdtYG4GbzGpiWYTYnmGgNCnJnv8s3TKHRm2x/WxNevX6uzMHKw8+PLMCqHd8C6+c6tu0bp9+7cV0wUeASwMa5bs7mtSwscdUpEgnjTq9YtxDJpiT31otyIBvcnrrjJ08c0aFxHPCL2QtEYSDFYqJxrYybt7zakTq2m+PDU0kQpDQceNk/1Jovr128R7wmBvVCNG8/QiRGm6ibcu3ffUqu1kSEolRU/b0T9rjmCRilNLDKITldS1KEhlipV0j36j2CVc/DoNqFIEcg5dtSX+E3IsBKpCyFehJ+pUxuLMO1WWGVDEkRFBAg7QFPU6JwsRTAbrN34xQ2hv5lW8/576fF/VnuypaqbNHeeOmn2IR/fVy9eMY6cGxrCD+3+qVKtPPKQ1TBR/ZWqlseJUKJU0QP7DhHzj01X7HsiJJx6cXH26G1FaxHuRWLYTflEjt2+bSyi2UyBdMUGbEqvnaLNUrx48dBdNDqAduE2PDUSR2wfoxDsu/zH01qzVlXvNZvQGNas2lC/cR2jzXQa1UXzOAaW0bgk9u3x0YAgTI+CzgY/ePDlLK2N67dhLhPhiupyWBZgciRMgS09SjqWLoyT5SuUFinYu3BDQOO9eiNeAwKLRHoBp9+Y87Zv2xMmxhTiC+cv8Z2NhSIFZdn/hLErnSHBEnn4aHfW5URrm60IxdznU5yR+BBdxQZU0VJ7ocqwJCyAuBv1Sn3zhu1m+SFRGxlstnhz1K4cDG7oT0pp+I/4zhtUUtQNNKqUZQ0puDmVdFZmbEZV7C5scjPKcnD/YXVDVi3zZhwWLVHIiEy7FUbE8mf0QABpQOfcse3LghhpoO6cjCm8XWZjqK0iENa8VnuypRrZvoivDccE0wxTjpFRzVKusKZXrlqBzX6LF6xgySSiOgh1RIdgM7li1WeRkyNn1l3b96lHnNmKmB3ZZ4GYxRFjRFCqbHFi1Ah+UtIpjb1OuF1sCOfUZil/gV9xM+3Y+kWqG0kns8yHJ1EJ/qAQhDlmbM4RUHbpE5WCe3Tr5l1EVzRpVl9/RdFcY6haoyIdq1vHPuhTjEb2t9DXe3UdoB8gI0omkuYN27N/9/mzF1y+MMBtCMNV7TtX6Pt79CIWt7FzG4iZmPH9N3JukyRpkg6dWik0DZvUg4bApUZNnRUXONusiVghQHLCuGlY4VBQ0K/r1W6mk2dxcsBErxm4qRh4bZp3Ug8qbovYt+cgjxBYhGqzaM7yS2azJcMPRojtW3fjg8BK0aqpKyaB9q4tIbYjqi6dWuOP7Ozihr+fUzFossblC9rI1Pi9CkuQXt0GwjNbonFe4kRIkeJzAAdss9OBjaa4e7BwQkBPWLp4ldm2k4gFGEvmzh17WeuIc/UximImpVjysr+G6FSjvJcuXWZ/JhEkELBBd+ni1dhURZSWmlK7FURKVixTmzM8LDEm06MiAkQxY1Ds3W0AMprQV+KBGtdvy44+pS3tXVt8/PABEYFezohjUp88YSa7k/Q0Nqx5rfZkjUqZaZinkUginkCD0uZHxUoUYsJGY1BM5RUqlWXL9LEjfuo4gK49XRGtLm26M+eBGN8R7AxP03oHePRE8rMtAhUNUUzMJrsqICMalC3uiGiWGbwUjmZhdzSxzO6D3UwL0ZOiwVLN2tUImOjdfSD7I6gLTpBOIoJeT8k20CxfvIZNH+glTCJdXPsYLpvo20UpB7MNNq2BfYfwRZw1oLOKaO6VQO5z+kIXVzc6lkCEzQXs+NeJjimZU6ECRYs71araQEQpo/xOmTlWHe+mZCldtviSlbOZdIkYIJFlPVG48xdPU08hCBF8Eww/Ip/VdRFGi5mBvcgjh44nnXld59YXiFkEMA3Pmr6AzcqscdlHxFIg6Ox5UT6hUgRPiO90lCUr51g6wQkH3tCRA7q4uDEaocdzv3r9IhElZEdU2bSJV2LqpDnMwdQCROxHqF29IeElakCU7xrIgNKKtfPbtuzSvJEhmBQzj8dgNybgk/8zsfCaeFmoUH/UaAQBqiSlNazb2mxFJKLzsak1X84SnJG1YevyYaM8WjR2qVnFmUdEZY8aN0hBUpTQ3qUFwqtI/gr8BHl2rFgSPRqtCL10OfB0UMjFy2KXiiXeZHrUQoDtCRzOwYTUsokLnLMe9Rjch1WEYuFj+U7v7dGl/581G4umsSIcOXaQnmaGNa/VnqxR6e+1q7FMQg6YPThOI6P+RwRMYIhl33XV6hVFLsL4md7u3XugrpSDbQgwHzHES+z5RMBWq1HRbMA/IRHzl0x37ze0RqV6FIhobd2uKV8QfRu3rQBzJm9REcut5Wvn2Xy2kgZL/+sAXVs2NWzsZMuox5C+/n4BinTSj49OyqGjBk6ZMEtswWUKwE9dpZpBNCmfxk2dCTId6Bk29egHq1YdI/6cnApu32c4+yJqfTAwoG0R1cLxOxpBANqNYrbAWc4JPxgYcAupDxXWyMgKFX95mnSpzfrGalVrkCBB/GWrzdx4SZg0p74w86FYGAX0aVQnHjHNE0VBWCxec8yhvGXFU4WB4f7d+xzuRLFWocCUdznkCps5CUcyrdQuqFIsI5+WEhmEJOIqLw6A4hwtjXGrjQyr/Ddv/mZfJbGH3LzHmFQOyaEuDHS8O6I0kA5Wm8+Lw9OJ6UKcX4kbEj4pQRhycHgRJWOkL2IpIZyC/W9WD8Kz1AocQGITnSngMkVBoFr5epYFEeGo/4oajjy4sUuLrYMo67jnkSexYzt4b1qqZg9xgQcacWGDzV9/Xj092SxoDNW8OUuwC6xjl8+zrFmyCEtEuGGeZAyyf1JsbLZUNTKQk2nevnnLhjijyC3kGDZXwkEY6Zay60/XZkl0ACGd9JdpGyVNxjbDyTpYlUwjykcPnzB/ztLAi4aDg7XLP+0fvHXT7okTJ0JmfiWnnT8qPiXeUL0rMpxNMPjGEufWWYjZuVbkJXqO00XMqgsQoCuwcVZnLUZkiBtF4hj1FUxh+q1hyDVLmymo0V6oMrmKM90okwheRr7y02zztZHRPiwW4aLxRoyqQ7KohQurE7UFTzltWp0LLY0/s2wbJVpqhVQX9KAXRWmUA0LEmc3s+jNqiP7OaYqA/rx6erJp+aSsWOaN94TjZMw+jfhEhJuIhbRaNcsDS6ez2EuOCR60WbLEg1X+bSCgyUZH+yuFEGC3ZNGqhk3rWVUXjOqN5nEMNqAcMVlYuxM7zaGKhESJ40Qipt7IVgtxjsQTYLOBMVyMHIGybMmaNu2bizV9ZONW8iMRsBkB937DcFqxuGcNihubM1HYQNG8lcFBFvk/rFbxwxIXNclresu2Tc2aSyN/KySHIMDUQwzmMM+xBMW7drLok7WE1fdiY7DU/m+VXqNyPQwMGTKmX7NBV3DTt+Lza9fLHi1iFTHvY1dg1wlGWiJD+w60PdDkazMsy5cI2IYA+5mJLmIByuyLyCYUZvWGRXg2bSstgnPhnsuRxQl1h8itfnJ4RjD6dq1umOcYju7ljJzZ8yfZYHf/XuIY7II5SwTO3NRpBNOukRNe37x+w0Y7s5Zt7bzR7CnCiMhw9hdwzCVHTonzauzVRryGhAsQRGavAmU5kQQBjTgGjLFhDc+KmEbhRP+0x++/sePE0Xa6Rww/+msBTwyBHHBn3+GpnwFJaS8EuFSMTkhommlkww8//vDfj1+OpFNq/B7jGOwCt9l7CG0rmcO9bcsY/XIRKGD3s2YVlCLSaxj9Xk0UbdF//8tJiJEx8pGFndH5p1EFYZQwjdvno0orJJ8gwOGP4vxHUzTMqgtGZDKOwRQ3mSIRkAhIBCQCEgGJgDECUmMwRkT+lghIBCQCEgGJgETAFAGpMZhiIlMkAhIBiYBEQCIgETBGQGoMxojI3xIBiYBEQCIgEZAImCIgNQZTTGSKREAiIBGIwghM9JrOzSZRuAGS9ciKgNQYIuubkXxJBCQCEgGbENiz6wCnrduUVWaSCGghIDUGLXTkM4mAREAiIBGQCEgEBAJSY5A9QSIgEZAISAQkAhIB6wjIU6KtYyQpJAISAYlA+BHg5ESuX+ccUu5Z5lZ65RIgjiUNDb3KpUH//fhx/95Db9++LVm6mLhZnht3D/n4cvV8kaJOqVKnFDxw0SLXLXKSKecwHtx/+OXLV/l+y6N9a93rV6/9jp/ksntuiKUo5ejGc0EXuJuNI6vVreP+CH5mz5FVJHIe67EjJ/5+965AwbxG17xZahEZuT7j2FH/e/fuc+9d4aJOUeuMy/C/6+hagtQYouuble2SCEgEIhECzP0tm7j6nzjFDPr48dP0GdKu9F4grkI96X+GG97HTBjqNXoKysG9uw84j3nxillPnz7v6uqW/Kdk9+89dIjtsHDpjDLlStCkBXOXTZ8yZ9nqea2bd+Q6qxcvXnLkfNMWDbwmDTfb4CULVw72GPXq5WvUhUcPHydIGH+015A69WpBvHDu0tUr158LOa7oEFzGXa1i3dZtmw4Y1OtTXUs9B47kSyyHWC9fvOrSvYNIJ0WjRQEnz9DYZ0+fJUyUEOWmcTPn8ZNHmOVNJkYtBKRXImq9L8mtREAiEPUQ4A6nJvXb3r//YP+RredC/QKCfOLGjePWw13dkqkTZ3EvXUDQoZNnD6ZKnap7535cGrR9jzcp0CdPntTT3TBzi88//3wYNHCE98YlgReOXr552rVzG9SCHdv2mEKzbcuunl0H1Pqjesj1ADSD85f9ihUv3Kl9r1MBgRA3bl4fFQEaJSPfMUgwx5PC9z49B7Vu3+zyrTMh108NHTlw0vgZx46e4JF2i1o365g1W5bgK/5nL/peuhbQoFEdU8ZkSlREQGoMUfGtSZ4lAhKBqITArh37zpwOGjN+SO48OeAbj4Nbv26HDvqGXLqsNKNV26bilrvUaVI1b9Xw9q277V1b5f41JwRccenc8K/zQRfeveMiK8OHCbtP/27iirUYMWK4D3bjChVsD6agcIN8rjw5xk0cliBhAp4mS5Z02iyv+AkcZ09fwE8uuMGd4b1ms5Jx9Yr1pcsUz5Q5AynkLej0m7unW8yYMblaop1LC/wX8+cs4ZFGi+ANo0i27L8IT0SixAm/3sUxpu2VKV8VAemV+KrwysIlAhIBicD/+R7xY9LlVncmWgHHw4eP+EJMA+ELIoWLWxWkMmRIx3enwvmVlLRpUxM08PDB43Tp05DI/F2qTHHlKUqDU+ECx30Nq3/15+WLl0GB53v16UywgpLO3W8FnfILGwOJjZvWc+83/OHDx7hLcDT4HDgyc94E0rlUlrx/1f199879Sl7UjitXrvNTu0XValZaOG957DixW7Vpiv/l30zJX1EYAakxROGXJ1mXCEgEogQCT58+Y+Xt2q6nmtt4jvGeP3uupKhvFIwRMwbpxCgoTwkj4PvHj1zLafg4OMRydIynPDUQx4nNHK9O4fuzZy/4nyJVCqP0n1IkOxcULBLrOv8x2H3U5g3bMHKsXbUhSZJE1WpU+pTXwNvWzTt3bN+rzp4mTSp+ardo+myvSV4z5s1eMnPq/D/r1Bw6aiC2DSMe5M+oiIDUGKLiW5M8SwQkAlEJgSRJEjPHE3CAMcAufP/nP//goVB2W1Dm9eu3Uqc1zOXqD9M/1og7t+4apd+7cz9Fyp9EIl6DmrWqeq/ZhMawZtWG+o3rODg48Chx4kT87967Y4/enYyy81O7RTDm1r9b5+4dVi33JnCSPRprNi42LUSmRDkEZBxERFpEAAADx0lEQVRDlHtlkmGJgEQgiiFQqHABXBL79vjYi2+MDT4Hjiql3bp557CPb9lyJY3KZwdE/gJ513tvVgIgIGBz5vFj/uUrlFaIiXP09zu1dfOu8+cuNmlWX6TjvMiRM+uu7fvwhpiyradFRHe2aN24RZsmRw4fN1uIabEyJZIjIDWGSP6CJHsSAYlAlEegao2KzL7dOvZhKc9uwxvXb7Ga79V1gM0NIy5hYN+h27fuxjtw5tTZVk1d48d37NCxlWmB/T163bxxu7FzG3Y8PnnylPiDRs5tkiRN0qHTF+ISpYpmzpJxYN8hfBEbPkU5XXu6ksulTXc0CSriOzz7HTvJU40WETzRxdUNYo6LuHQx9IiPL6GXmDrI1a1T384uvU2ZlClRBQHplYgqb0ryKRGQCERVBGLFisXpC8yjzL6iDWyI6Dvg83cbWsWxDSPGeHRq35vjlcjOxoTVGxYpRzypCyxdtviSlbP7uw2pWv4v0pm5S5YuOn/xNKPAgsZNnYd6jhno6abOy5kNTP8jhnitW2vYTEHeajUqim0UGi2KETPm0cPHVy7zFkVR3ZQZY8V3DCHsC7WhvTJLJEHgh7Aai5ycCm7ftyaScC/ZkAhIBL5PBKqVr2dZEGFFN6xoI+EHAwP7EX5KkZwNk2LZbQOTI4eO5wSnmw+C8TWEhlx1dIybKXNGq+Vcu3qd0Mg06VInT57MlHj08Anz5ywNvHhUHRshyDi98XLoVawa6dKnNT260WyLmFYwbLx4/iJl6pRswVCqE7GZ+DtMGZApkRaB0/7BWzftnjhxIhxKG0OkfU2SMYmARCC6IUC8oRJyGP62MbuLAx70FKWhVaB5LFm0qmHTeqbqAiVjThAHRZitxWyLUIYyZDRsEDX6SF3BGJGo9ltqDFHtjUl+JQISAYmAnRD4++93nEg9zHPs69dvXDu1tlOpsphoi4DUGKLtq5UNkwhIBCQC2ghwEDWnJsSNF3f2/El2NH5oVyqfRl0EpMYQdd+d5FwiIBH4HhHg0qkKlcvYpeVt2jevWKXcr3lzyROW7IJntC9EagzR/hXLBkoEJALRCgEOihZnRYe/VWx8EHsfwl+ULOF7QCDMeyXSp0//889ZvgdoZBslAhKBSIuAg0Ps9+8/X8sUaZmUjEkEogECxMP++GOM7du305Yw2xg8PT1//vnz1SnRAAvZBImARCAqIsBJxu/fv4+KnEueJQJRC4G3b9+Kg8NhO8w2hqjVVMmtREAiIBGQCEgEJAJ2QUCeEm0XGGUhEgGJgERAIiARiOYI/D9rlA5VUZNv4wAAAABJRU5ErkJggg==;" vertex="1" parent="YOfady0k240_CXZ-rdd_-1">
          <mxGeometry x="1" y="280" width="519" height="253.93" as="geometry" />
        </mxCell>
        <mxCell id="YOfady0k240_CXZ-rdd_-4" value="" style="shape=image;verticalLabelPosition=bottom;labelBackgroundColor=#ffffff;verticalAlign=top;aspect=fixed;imageAspect=0;image=data:image/png,iVBORw0KGgoAAAANSUhEUgAAAkUAAAFMCAIAAABK+1/DAAAAA3NCSVQICAjb4U/gAAAgAElEQVR4Xu2de/AU1ZXHA4IPnoqQoEZAMdFVQIhZcVdU3F2JBaJQWuWDVPmAUMawK2y5BUYoNTGg0QhmYyoxELVKRFe2VESNZKMguEtMVgQfwQqGh4kBjU9AFOK6Hz3r3Zvu6Z6eme6Z7p7v/PGrntvnnnvu5/avz9zTp+/t8NFHH31GHxEQAREQAREoOIGOBbdf5ouACIiACIjAxwTkz3QdiIAIiIAIlIGA/FkZRlF9EAEREAERKKo/69Chw8iRIzV+IiACIiACImAEiurPNH4iIAIiIAIi4BOQP9P1IAIiIAIiUAYC8mdlGEX1QQREQAREQP5M14AIiIAIiEAZCMiflWEU1QcREAEREAH5M10DIiACIiACZSAgf1aGUVQfREAEREAE5M90DYiACIiACJSBgPxZGUZRfRABERABEZA/0zUgAiIgAiJQBgLyZ2UYRfVBBERABERA/kzXgAiIgAiIQBkIyJ+VYRTVBxEQAREQAfkzXQMiIAIiIAJlICB/VoZRVB9EQAREQATkz3QNiIAIiIAIlIGA/FkZRlF9EAEREAERkD/TNSACIiACIlAGAvJnZRhF9UEEREAERED+TNeACIiACIhAGQjIn5VhFNUHERABERAB+TNdAyIgAiIgAmUgIH9WhlFUH0RABERABOTPdA2IgAiIgAiUgYD8WRlGUX0QAREQARGQP9M1IAIiIAIiUAYC8mdlGEX1QQREQAREQP5M14AIiIAIiEAZCMiflWEU1QcREAEREAH5M10DIiACIiACZSAgf1aGUVQfREAEREAE5M90DYiACIiACJSBgPxZGUZRfRABERABEZA/0zUgAiIgAiJQBgLyZ2UYRfVBBERABERA/kzXgAiIgAiIQBkIyJ+VYRTVBxEQAREQAfkzXQMiIAIiIAJlICB/VoZRVB9EQAREQATkz3QNiIAIiIAIlIGA/FkZRlF9EAEREAERkD/TNSACIiACIlAGAvJnZRhF9UEEREAERED+TNeACIiACIhAGQjIn5VhFNUHERABERAB+TNdAyIgAiIgAmUgIH9WhlFUH0RABERABOTPdA2IgAiIgAiUgYD8WRlGUX0QAREQARGQP9M1IAIiIAIiUAYC8mdlGEX1QQREQAREQP5M14AIiIAIiEAZCMiflWEU1QcREAEREAH5M10DIiACIiACZSAgf1aGUVQfREAEREAE5M90DYiACIiACJSBgPxZGUZRfRABERABEZA/0zUgAiIgAiJQBgLyZ2UYRfVBBERABERA/kzXgAiIgAiIQBkIyJ+VYRTVBxEQAREQAfkzXQMiIAIiIAJlICB/VoZRVB9EQAREQATkz3QNiIAIiIAIlIGA/FkZRlF9EAEREAERkD/TNSACIiACIlAGAvJnZRhF9UEEREAERED+TNeACIiACIhAGQjIn5VhFNUHERABERAB+TNdAyIgAiIgAmUgIH9WhlFUH0RABERABOTPdA2IgAiIgAiUgUCnMnRCfRABERCBzAhs2rTJ173/Jx9XwtkBAwZk1njLFL/22mt7772331MzJc/91fysZZeLGhYBESgEgcP+8jN06NCRI0c6yzmZh15s2LAhXTMmT548b94800l/nf6c9LdiZzU/q4hFhSIgAiLw/wR69+49YcIE9/2WW27Bqz377LOUXH755Xkg9YUvfOGjjz5K0ZKxY8cecsghKKSbK1as2LFjR4rKM1Ilf5YRWKkVAREoDwHu7G6yQq+Yr4wfP966N3XqVL+fFpwMxCQRsHIieAcffLCTf++99wjr8ZVCToV5vf3227t370bMl3HxT1fLSvjrSuI1B2KJr776KgZ36dKFVmiOr0RQ8WdmEl8p5+8Xv/hFk3Hd4SBfsVZcehE/cDzllFOKaLlsFgERKBYB7jbHHnusb/P9999PoZW4g9/+9rfclPjKp3///ldddZWrwrGVd+3a1d24br/99mOOOcbKjzvuuJUrV4axXH311QceeKDJrFmzBgHXBIWulgnw12Sqaj7rrLOw0DWHVVhiX9GAHo6RoXWscsrpNeV8paeukLbCZreqRM/P3LjoQAREQASqE1i9ejWTMzxcQJSIH0HI3//+99zNx40b953vfGfhwoXI8JfjRx99lPJJkyYRu7NA5cUXX/wP//APdusfMWLESSedhOZw82+88cZ3v/tdxPr06YNaqs+fP5+vxDk3b96MO6GKxTz5iwxfq2p+4IEHqOva2rlz5wsvvGBfhw0b5kdQMeyCCy7gFH8HDhxoMn/zN39jZh9++OG0Fba5ZSWtcqQNtgsvzc8aZKjqItCeBOxum7zv4btzp06dXHXOcmwztre8z1133WWzOv7azMaq9OzZkwNmP1T05UePHs18KGAVJUhWNJW6gwYNstYRcAcJNe+zzz6mmYrdunXj765duwg2+nrMHpux2czPb8iscvIVjWxyoZ6fMRz6iIAIiEAcAaYmzIqcBOkhFaUPOOAAv9zmcIHMQx6JOZmA/F//9V9XVOsX3vHJhxImajHCVTXPmDHDpokoIag4ZcqU66+/nvmlm4TFKM/tKfmz3A6NDBMBEcgLAWYwfo5+lFk2fQmcJZpXk3yUMOXEGx988EGLB+J7li9fvnbt2oryFS3xJU844YRrr73WuTTz0A899JDN1SrqzH+h/Fn+x0gWioAI5J1A586dMZG5l3sBmeO99tqre/fuzNJ8l9ahQwd8xplnnok85eRiWN+Q3/eTT0xXcWbEAK+55hqTGTx4cFjYFFbVfPrpp1N3+/bt/MU18hf3xt+qjjDcYn5KlA+Sn7GQJSIgAkUlMGbMGEwnymfRRSZzHL/00ksUEqj86le/atM7+0t8z1JFSDK0Dpv81q1b4/t/4oknWrCRVqjy/PPP+/KmPLnmb3/72yeffLJpuO666+KbLsRZ+bNCDJOMFAERaCUB/2XqKDvIbCQSSJYjM7D3338fN/blL38ZYf5yzOMuykkjRMbmQ2Q8kihIIR/eb1u3bl3Vd7lIJuzbty/ylktJ3qMzhvxDa4ISXzOFUZotc8Sil6SWDB8+3EoCHcRaZMh7JCsyqu85Ke9Q0NklI0p+I+HjnHCUGSIgAkUhwN0DUwt66ysK5JbYqflZS7CrUREQAREQgZQJyJ+lDFTqREAEREAEWkJA/qwl2NWoCIiACIhAygTkz1IGKnUiIAIiIAItISB/1hLsalQERKCpBGbPnu0vkG9ts14ihZZt2FRr1Fg2BOTPsuEqrSIgAnkiQKL8tGnTLDne7OKYdHkK3RoZjdiLtqp+0fIqG2mlHHVtgeNU+sKr5ffee69TJX+WClUpEQERyDUBe8s4OxOfeOIJf4HHig0hU7G83QoXLVqUUZflzzICK7UiIAL5IsD7wmGDLrzwwnBhVAnByZdfftnOchzY4dPennZ1kQxEOMMrQCLgHC1rJ/KVv1Gth8t9e15//XW+8jcsZiVhe6IkXbnFYyv+FAi09TGLiNbtlNMZpQ2xsD2Buk4gqvz/tqRr8qr+jTdHx7RfTOMYpUEE2ofAnDlzwnfMqt1nvURqPfnkk/zt2PHjCQAbtfDXrdtrGihxu8NwPH36dPaUseao62TsAEl2k+Gs2+7ZdLKHC4XvvvtuQD7wFRnbKcZsoC20mW2cYs+XcKeQ8W3mOL4Jzprx7G5jB/5+MZRYOWKm2YlhidNsndpvv/2QZzccV24K7asvQ/k777xj5bbiJQxZAJNyx9B2tKHE+kvr99xzj+uv/JlDoQMREIGSE7A7qfvL5Kxqh82fsYsK0cJf/epXVpdjVvK1+KHtK02578/Q/Nxzz7kAo7WCjB3YPjKcZTr1k5/8xOncuHGj04Okkw9U921gRUe+8hfbUIid/l5rVtF2x/Ztdpqjmpg4cSKnqIIG6wV7YTszaMXKzUgnZnvNODHT8Mc//tE0WLkdWxVO+TKsJ+l2zf7c5z5nDNmVzarYhqjso80pSujvV77yFarLnxlY/RUBEWgvArabs/kD/totMh6B+TMnwwqHxC3dV5SY/+DA92e+Tk7ZV3eA5BlnnGGFgd0y0WZ6OOvkA9VdW4FyvlI37M+w2d8p1FZ9DNcNtMiqjyZj5eFe2FmfoU06nWZWffQ1OF/lq/L7aEs5U8XXYxroF2Nnljid9tX3Z3p+Bk99REAE2oLARRdd5PpJrM/2TKm15/XVCrRiE6Bam05F/l/+5V+S6Dn00EMtHTQ+LZN91JwY2wj4mis+Egs37aofccQRdvbGG2/kwJVzELXNm/3acDq1/1kYr0pEQARKS4D43te+9jW6VzExobTdrrFjkyZNWrBgARE/+wVw6qmnRilgWxyinW67mRjJKA0WTgyfDZQfddRRYZlAieZnVRFJQAREoDwERo0aZZ1hr+cC9cq2PavbYP8du8B7ck6zL4MzI27JKXIyhwwZEtUuDIkErlq1CjE+ZLJESVYsP/vssylHv1U//PDDN23aRIlZws6oVm6ad+zYYUoWL17stNkepO6r5mcVOatQBESgnAT69etHMl4q71BnDYjsvhmffEgtmTp1at3NsW8Z214TtSOZkOmUr4cMSfZUI4+Dra6JHLpTeKnx48db8uGBBx4Y1TR7YRMJZGdtBNBs+Zbs/Ra/yzbCtpH3zTff/O///u/ot4Z4wIaRNiNkv292XLNys5n5NAHJpUuX8ujRyi+77LKAYZqfRY2UykVABMpJgJspu2Im7Jv/yC1cxTL6KCc3z85Wfas6oMQ9NAorJ1Xkhhtu4G6OyzGf4WRqbWX9+vVYaI7Bj+NZhiG7VHMKmYB+CvkgHxUSxMcQkzQx6qKN2OP1118f7gslJG5YOXmJVJk5cya/LdAMQ9NA3f/8z/80GbJRfM2I2aoi7APO69gmT/XA64Paz7MieRWKgAiIQEkIPP7447169XJhxiVLlpDxaMmBJenhp93Q/KxkA6ruiIAIiMBfEOBhGLE7Znj2wZnxbKyUjPT8rJTDqk6JgAiIwP8RICrI4yhidPadDM8RI0aUko7ijaUcVnVKBESgCoFAFK6KtE4XgYDijUUYJdkoAiKQHgHCbqQS/P3f/73LUEhPtzS1koD8WSvpq20REIEmE+BlJiJvr7zyCu2mstJHk+1XczEE5M9i4OiUCIhAeQjwdjCvN61YsYIu2UrE+LbydE89+cxnlA+iq0AERKDkBAgwWjYEaRGsJsyK+CXvcLt2T/Ozdh159VsE2oAAS7ZbgJG+MifjLV05sxIPu+ZnJR5cdU0E2pcAK1r94Ac/4NUrELBO4De/+c0vfelL7YujPXouf9Ye46xeikDbEGBV3PPPP/+RRx6hxyzVGFgpqm0wtGNHFW9sx1FXn0WgrASILn72s5/FmRFdZNE/ObOyDnTFfml+VhGLCkVABApGgPRF1u01o//7v/+7vugiSlgguKzLZxRsRGs3V/6sdmaqIQIikCcCLn2x7uiiTeMsB5KJnfxZnoa3BlsUb6wBlkRFQARyRcD2ezQ/VHd00RIgnTNjv7Fc9VHGJCeg+VlyVpIUARHICwE/usiMqr7tm1NRkhciskPvU+saEAERKBYBF13s2LFj9+7dG8n44HkbIUq2ZtZLacW6BqKsVbwxiozKRUAEckdg3LhxFhg89dRT/+M//qMRZ0bf2AYMDXJmuRvmeg2SP6uXnOqJgAg0hQBvRk+aNImlF/l06tSJ3EX2Vma3F1xawvZt5UaqX3TRRX4VvGNCDRIrBAE9PyvEMMlIEWhHAg2+Gc3c67nnnjv55JNh16VLl1mzZinXo9yXkfxZucdXvROBohJg8rRs2bJdu3bRAQKDtc6lkH/wwQet8z/+8Y/Hjh170EEHFZWF7E5GQPHGZJwkJQIi0CwCFh7EG+HMbGOXWp3Z97//faoPHDiQORnBycmTJxfUmRFrJbIaAJ8kmTOJTN3jiXL/U4d5dTcdX7EDgx0vkc+zhMJPOeWU5cuX59M8WSUCIlAHgRRzF+tovQlVtm/fTk5m8oa40Z111lkPPPCAX4XCY489FlcXoweZ7O7tKA83/dZbb+2///6UZ9p0uF2/RPOzeD46KwIi0CQCdecuzpkzp9YJXJO65DVzzz33YOSvf/3r5jedUYsEgd2HJizvNKO2EqrV87OEoCQmAiKQCQG2KLv77ruvvvpqtBNd5Kaf0Dm9+eabS5YsueKKK9544w3qzp8/nzTITExsTCmhOeKfa9asOfTQQ5PnZCZvk4mazdUC2Zu+Bgs/BgS2bNliwcwzzzyzV69eyVs0SX+Y6N2wYcMwY+jQoQE9LvIZNs9O1dd6ZWuZkxbxQ2eINxbRctksAiJgBIhQTZ8+nf9l3ozmvebkWKh466232h2N8N3SpUuT122aJEYG7rlEDmttHQ3hWhQSbzRVo0eP5iv0unXrxsGTTz5p5RzbATmiHO+zzz5keHKAVVZuiTZGnvK77rqLcki6inw1mbDNyPhiCODPKOEvx+6UEdhvv/0wz6/Crxa+0iKRSTvFaIZbqaPk//pcR83WVgGH/Flrh0Cti0AjBLhN2z2OKQuzhOSqZs+ebRX5S7xr586dyes2RxILXe+cqRyEPVNVe6jVt29fKvofCp0/Mwjoca+Wm07K7QBJ3lL4zW9+8+qrr958882u/Mgjj4SekeeA8kWLFlHFCXDMpPn4448PG4mML4YAa2BSgg2+BhPbvHkzhdaEETB/hubHHnuMUwMGDAhoC7eYsETPz4y5/oqACDSDANHFb33rW/wwJ/8QT2a31JqicF27duUe/ZOf/IR7HCEvm3Y0w/RP2iBERqPYXzEngrP9+vVjL2z3qoBvGIVWMervNddcE+5I586dybPwP76MQaCEic7tt98erk4JLn/16tVkeE6bNs38DW7spZdewv3gbLCZA6KF69evR5gXG1zXiB/G5IX6vVi7di2a3TzMzDAnBBC+2vY9PpZf/vKXo0aN4tTGjRsrml1PYUK/lzcxuqr5Wd4GRfaIQAyBHTt2WHSRf15ufPazPUbeTlHLhciqCmckgAGB4CH2s6dMxeY4xSImFe/FlHM25kNiS0AnesKzOgrd/Cwc1TQNyDhVvpsxmBWnj8zGqLJu3TrqEjmEvK/EN8x6V7H7FLpatDVo0KAACgRsfhZQGKWtpvLK3AMW6KsIiIAINEKAN8AeeuihrVu3ooQ5WcKMD1fL7pKNGFBfXRwM0wh/VkHsbvjw4TH2M9ehyty5c++9995Ao2PGjAlk3tdnlavFfGvevHnnnnvueeedZ4Xjx48P68Qk2sWq66+/nizE3/3udyZjMUAnf9RRR3HM6sxWMmHCBDSHtSUvsYxH10pF25JrSyRZk/fLjzB90/wsP8MhS0QgioAfBLOXo6MkXflvf/vbOmpVVZtQwFr3DSAvMaHlgSaoZXMRuxeHZ1pVTaJiuBaFNj/jL8dOidlsX105zthNhTmgnLnXLbfcwsEvfvELv65lc1BiNhOBtBlb2EjrTrjcb9qiiE6nNW1WmX6/ut+LKLVJypUPkoSSZERABGom4IfCCHklqR+ISSaslURzVZl33nknHFRMywD0kGFYx12bKjH+zPbRJoprlltccffu3XTWtWUyHwdMP823JKKIgNlj5RYV9KOdVT1WTF/cKVPiN22n5M+CVyNcND8LQtF3EcgNAfeEhuw1Ik4J7XK1kldJqDlGjEb5kFZu91/+0nrqBpBhSKxy6tSpMZaETxHxi/FnyJMlaGbDma+Otu9vfBnXL7PH77LfenzOoSEKW2slrmkXaTR5VtG0U+yQ4JtHrcDXKM1VyzNcE8WRyuKA1Bqtd5UFWOkUgUYI2DvO7JOJEqJhU6ZMqekdZ947Jh0u5ulUI7YF6pLXx1Ml92zs7LPP5hUu9/Jvig0VURWjwFg0ZyBS5CN/liJMqRKB9iXw/vvv//SnP/3GN74BAt5x5mUm0h/icdhqjfbzPF4yrbO06HaQQScxt3333Vf7U/t47T02UjmaOS5pja/yG9MiKT0i0L4EePRy55138koTCIgy8V5R/Gth9sO/4ktaGUEMZypiJxl9ltSXUaNFVGtJifbmdeHslz8r3JDJYBHIEQECdLaCItFFnvPHx+tspUGLRtKHqvIN9pN3t1etWuWasxb5G29kg40WvXoRp2WOufxZ0S8/2S8CLSPgFpJgrlP1WQsC/oQs6/tmYP2OJBa2jKMaTomA1rtKCaTUiEA7EbA1n+gxfoLllKo6M8fG5ddlQQszzDBzZraelrWY3MIsDJPO5hDQ/Kw5nNWKCJSBgEXqLIJXNVoY2D0k3aUxHM3Fixfz1poyFctweTXcB/mzhhFKgQi0BwE/glc1WmjCVcUaIYe/ZA0LX0OmzTViquo2h4Dijc3hrFZEoMAEXHSRPlj4LqozLuKHQIOr/1VtwjkzTOLtYDmzKGLtU675WfuMtXoqAjUTIMBo0cWBAwdecMEFbPUSpcJJIkAo8p/+6Z9si5Ao+ZrK/TinVaQJ3vmNsacm/RIuBwH5s3KMo3ohAikT8KN5rEtbcWsu16QLRZK1T8UUTWHCF3hNTZmKKeItmSrFG0s2oOqOCDRK4J577mFqZdE81txjX+N4Z0Z7rDFocchUnBm7Tbq4pTkzy1QkoshHmYqNDnB562t+Vt6xVc9EoEYC5ArOnj2bPT6oF5O+iL/p1avX0KFDnfpUchctUzHw+nO6ccsaeUi8YATkzwo2YDJXBDIikDB90YmlmH8RePeZDqaoPCNcUptDAoo35nBQZJIINJVAkvRFZAj6meNh3xPyCRs3EZ0sn+icGbFNZSo2TrWdNWh+1s6jr763OwGXlMgqtGeeeWbFhQ19GYKQN910U+/evesGh7YtW7aQYOI0KFOxbpiqGCAgf6ZLQgTalICbGMU8KgNNwtVAqkIMZyoqqFgVmgRqIqB4Y024JCwChSdANoeLHFp8r+K0zPVz9erVRBfjZaKgWKYijpOPZSrSomVCyplFQVN53QQ0P6sbnSqKQMEI4JNsnUOiixXnZJbfSODRT9AfPnx4rf2s+PqzMhVrxSj5Wglof+paiUleBApJID66GFgLse7Jk2vFGFX0moXEJ6OLQEDxxiKMkmwUgXoJ+NFFy0sMRA4Db09bMLCm1iZPnlwxUxGnWF+UsqbWJSwCjoDijboYRKCcBPBk3//+9+2pVVReYvykLZ5LIFMxyf7U8Qp1VgQaJCB/1iBAVReBPBIYMGDA5s2bzbL44GHVtRnD3QsEFRGIbyKsQSUikAUBPT/LgmrKOt2CdamsKpSycVKXMwJ+WjzBw5jVDsOnli1btmvXrpo6xMqNvvxhhx02d+7cmjRIWATSIlBOfzZy5MgVK1acccYZDz30kE/Kflf27Nnz7bffppyv8b8r0cP//NSpU9PCXZOeVatW3XDDDUuXLj3wwANHjBhh95pLLrlkwYIFNelJUfi5557bs2dPWvuAVORPIetE8EjGzHZ5Cv5IIXPaaacBJMWulUAVP3fGjx9PRzp16jRmzBj36+edd9554oknQPr666/HdxOqXbp08WUCa9sHvFfgbFg5DtUVht1nWF4lItAQAW4TRfzQ51NOOSXKck4ZFF/g8ssvt0L8WVTFXJVbL3yTrIRnIa2yE4Ypts5whDsSGDhbG5dC99KSlWzcuDFct51L3F2A51iOQ/ytIR5XoG7CcXfjFdN0fLs6KwJ1Eyh5fuPMmTP9/ytmbDH/ZpziJ2TV2Y//M3PChAk1/ep8/vnnkX/ttdfMDI4DFjrz+DXNFHPDhg2+wcuXL6/aBSdvbVU0zy/cuXMnXyuKGZCAhWQZ+CaBK6oXUWopD8ybfYV33XWX/5VdS5ih9u/f3y9kDvHZz37WSuyNXQbCFzDLaeiXv/xloNydCpcXsQS/zlTMPdA69NBDeXLGV/u4HtlbzO43gd0vwv21TEW/rlVEPmGmIovu+zcjnuG5pl1zzjy7QkhaCVuS8xKz3P0lRzQnBvuGTZs2zbeK/4VASU5sTtOMqp6QxrirOjEmN5QQIvcrUrJkyZKqqlIUoMWq8zOM9GWoYlM0Nz+jxP1j+7fRY445xsqpbj0lXIOwyRx++OEcWyBl9OjRHPt63DEaOPbb+sd//EcihyZv1W2LqYrzRbuDxxB76623UIVhToavNmtZt26dteLMsxFEGE/Qp08fzg4aNIiK3/72tzkmymSG2W9w02ynzEJq4fbcrNf1EVAccw/lr8mYMfSUEqJe++23Hwfu+nGQYcgSFU6P302/X5bRwFmfxs0332zEWLcCDXwIC9sBO3Uh7PIg6Bfl/AJwc4vHHnvMJK1feMoYwjk/xSgbZ+uR/5eooAsMchDfEdb+4GqEqtNw5JFHVq0VrzP+rJkXCF3Sur8ecbyG1p71F5/0sfPTqrWG0Xr4YmBkzSpG2Z+7t9zULAyoEPAJNAMg33uZP6PQiVlJFsbF6MSAJP7Mt9OO+VvRnzlJe5ptTQf8mZPhIKAZT0mVcLnflrur+ndn85Th6Bkyvq8Ko4jxZ4GoIFb5Xtm1dfvtt/u9MGdPQ6bZnfIt9DUHPK7fd1+tYTH7fZlA634HXd99GaeTA6PKDdFdmWazzT8CmpH3/bSboxQ6bhl2Bj7b8NUSVWK13N/wdRhVMcVyG6+AJXm+85o/CxDA/jzY7P5NnHmU2DXfDv6serzRfoPb1UYaBc+W458q24SXYFfgAiVsFRVloko4XhSoXsdXP4/D/YSP0uOmDjHZH+5GbzO/KFVR5X7ExmY/UZJwdpMMk3FRQcMbVdHKJ06cyNpCTsZNCinxI3UXXXTRypUro1SZG+MsM7mqMggYHMYdgDZj82vRFsFSm8NZ+d/93d9FqaXcBTm5RzixefPm2bGl81x55ZVjx461ks6dO9tckK+sn+vXcs9NTRKAdmDbUbrEkxhjcnUK+8HoJ2Jwn+KDkcRIkpiKBlu/0UUpqW5zC2KVSTSkK8O1YTdfZs9Ycu6556J/7dq1FpbE2qZQc84AACAASURBVFSieXPmzGFvmnQt97VhOTb7JS70V2ujrmI4Wk4vOMvf5DqjxhSqMTeTmFPJm26+ZHV/xt4QLur68MMPY6LtFmH3fbLd+Ni9j9solyD/aXwGDx7MV+vPwoULKf/Od77DunDcgNx/EWftK/J333035X/605/SRXDiiSfuv//+6ESzTbyi9PMQIupUFuXkK8aoxWbmKOQ3hmXIMKyaVEYtfKd7SvHGG284Pdz3/QQ2sDixW265JdwcJRU3BzGP626LKGFJQFf9lVdecWr94fZb79evX8XmKNy0adNTTz3FAZ7JwpIc24wk8BSHi9Aa6tatm59oTlZklPKAYT//+c+jJPNWTr4ixjP61lOAMGTcRslptLTGl19+OcZmqrMSo2ngt4UF/cyRmIeLqducU6NGjTLvhVW/+93vsJDfKPT3/PPPx2zeBKAL7733Xk3G8PvbuH3zm98877zzaqpbkzC+p0ePHlaFY+PMV+zn+I9//CP+w/9fsOvQ5M1CjtevX0+53U75e8IJJ9hCmlzPJo8kMvTF3xy8JjtNmCsBqhzDB83u3mjHZieWZ0qsDrOrV0kSN0CLiZk6jvnNaxE2P+rFWRcDtGctgVp8DUTznGZO1RS39NsKd8G1zjVhsSnkLTbFQcV4Ix1xepxVgXijk7H5mS9vNBwf1/FwW5zyY4l+NM/vSCCa504FooIuJhmICvpg/V44e1BocR5XEqUZSbRZJAoZP2rqWvct92X8cjcWrtA30pe0Ft1fO2X+DJtdVMdKXEWIcXO3Wn7kx9lj12qgoaJ8tUvL/rqooF8Y1ZFwNC9hpmKUwuaXh59XJbTB58MxehJWjBcL22MNRV2ZnA1fmVbFGnLHgUimu8Jd1qjJ23S8opGo8stNs7XOX2ehLxawxP/fCWir2GKuCqvPz6y3LuvPxdz8n/MWzYMXv/tM3s0/rMTVCkTz/DmTBZGselp/iZXxA8TmXjGBxLSaS1EPcxS0Mc2tQydDwz3LVQzHfu0UeWW4Ooc9KhocY4Cf+mgRURO+8847/Vr86KYtGwvrF2cDeZKBVohyB/pOdBEZPxeO34/u+qF1lzVKlgR3fKcw0C8/hoNhrlZMN1t4ysI+9nuZqapFBWfPnn3QQQdZIdEky2oJGOkyFW33Ms7y72n5MgkzFVvY60DTzFG4aWK/3cc5a32PstD1PawnqkqD5cRIyU5yUQGuTN/n4SFsAs36mdYQsys7JnJo16p5LOupMyYQb0zyLoTBscmcUSIfhKso0EF4upLAs9j4OFaDoDKvnsS7fjwXu/xymwG4OQqWOSimhKst8FiI8phf5RX7ljBPkrpV80HMKmuFwKP7Gp4zIZPK/MzyCYHg/vHCbWFGkvkZYldddZXLpfT/mbn+rC82h/NP2S93yx60crIZeX7GW9jhsbBf7ibmnpIi5s+5HTQ3P4MVVVw5mp0B5BNaOdmDKHSaLZeSU2E+Jh/+azPswEzChtIJ9+3b17VuuZTcIzj7i1/8AknCqm4UnJ6vfe1rZj+n+D+n1rZt28Kt56HEGY/BbsSdYRULyXj0a5lMuG4eetegDRU7Ze8G2EWSyt8oIwOzKH5e0Bz+zB+dQF0EKGF0+P3BAR6OY/TQEfNSxFetivN5rguUmwx/TcZGuaJ5AUt8GWq5uVfgOjHzEHYHVjHwtWKLuSr8i8lplGXOn/nRKrpqNx3fw/n9t+OAF/SRIWAxwKh2Y8qt9SgBF2FDIHB3pmLYx1CYij+jOZSjzfpesS1kfH9mQGLyygLxokCXrS3XXDgSZSUmUPG3hWmwyKGJxVto8s4MZ4B/bVinfNucvPlgZ3CgO/5XZAL+jOvQWWiSgSb8s3aK/1sXb7Qq/q/RmNZbeyqKapRVjqqrGHNFRSkpQXnCGYyjFH8QBSSc3xgoQW0gtumuTDvgb8CfWVvx8caE/izKbOfP8GoBCwPmOQ2uPEpn3soT+TN7n4kpjn/P4qexJc6ZJwjca5hbGAtLhuSHufXcUrDsGK/jfrlbScWfXRWRoTxmflaxigrbhABXEbFl19mAP8szhB07djh3a9FFV1IxboGwn7hrs9U8vAXVWsjcuI8//nhuEYFPWlaF/Rnv8NGWm/3Quu/PKLfIAQYgZkPMsemhBIPNNjvr7CQCQQlfa5qfRXXT92euRTPJWrFjv7orj9KZt/JE/izQZ+uDhVmdh5s/f74NDKT4cMwHR4iwizK5tS0cBWQotCoEiFxUsComKsqfVaXUngJ+HNUuRR4o5hwFsTL3RjN3Q7yX+yfiUrcS64L//8Upcuq4Pyb/IZhzDimat2jRIvfjwG5HgTlT3W2F/RmqbLz4y7FFIBk1N4guGulmkNa6GeYsMc02xC7PnrPp+jPLJHAXkvOvNIQ9PpbA17qJNa1iUn/m5yU64+itP2PzHyQiY1FKX9johJHZoNbEDmH5s6ZdJYVryI871R3TblqvLbZh/wUuPmxf/f+vcKZi0ywsdEPu9pKWP4NGxZuVNRS444UlKXGRQ479fELTbHpMxqrb9eyPQlitnY0q5ywOzLXlPL2V8Nc8caB6jLZ8XhJJ/Vnd1vO+FOwIm/jDXLc2X4n8WeMYpaG1BMhPsZgSNw67obgnYX680cmYGJKWqdha44vVuk2VimWzrK2VQJUNU+yXQoN/LW3UrieSp0lmbfy9aXTiz9zrAQ1aqOoi0GQCbm8X2uUHn9vbha9kV7NkBgeW5G2GIcOKKv6yL002WM2JQP4JNMOf8YaTv3gELrdxLvJnjTOUhlYRCLw+5f9H+PtKm3lEIKOWLGqV/WpXBPJJIOn71I1Yz+pN/rSxEVWqKwKFJsDcK/wusL00bYuH2bqdlqlo/zVyZoUecRnfTAKdmtmY2hKB9iTAIjWs4vHVr361YvdtQU7LVLztttvc1m4VhVUoAiIQRUD+LIqMykUgHQKsL+UWnYrSmEoQPkq5ykWgTQg0I97YJijVTREIECCt4+ijjzZnduuttwbOkn/Px4KKQicCItA4Ac3PGmcoDSLwFwQqRhe/8Y1vIMQ7tiwlrExFXTEikAUB+bMsqEpn+xKIii7yZnQWO0i0L2j1XARCBOTPQkhUIAJ1EWAvmx/96Ee2lJ9TYIt62PtkdWlVJREQgaQEmvH+WVJbapHz39GupZ5kRSATAuy5ZUtvm3Zef1amYiagpVQEogk0yZ/xClq6wZbwSzzRfdQZEWgqASUrNhW3GhOBTwk0I9743icf1qby97ZofAiOPPLI8N53CdVedtllu3btQji8xmtCDRITAQj4ifjsi33ppZeS0CgyIiACLSHQDH/Gyo179uxh+YN0f7eySGsdjyVYOvKxxx7DmbE3zfTp08eOHdsS7mq00ASWLVs2ePBgMhV5ZtavXz8u70ceeYSsRTmzQg+rjC86gWb4M7cswrx582zrnRZS69Onj7W+atWqFpqhpgtHgEvX9lFzsW5+nz3zzDN0JLBCaeG6JoNFoBwEMn+f2l8C/+67724hNVq3XWuJMX7wwQcttERNF4gAMQA++DCcGWY7Z6ZIdYEGUaa2CYHM52f+NOhXv/oV26ERqGk+XPbjmDBhAu1eddVVdUQpm2+wWmwtAS7UIUOGhG0gcbFr164LFy4Mn1KJCIhAawlk7s9mzZrl93DBggVEHZvcZ7IrWbKBRtN9gNfkXqi5ZhLgQrXm3nrrLbfbka6fZg6B2hKBWglkG28Muy4epNdqYiPy69evv+CCC3BmpH688MILjahS3RITYMo+f/58v4NcNitXrsSB8WPovvvuYxsXObMSXwDqWkkI2HKoGf2tyMhuEw22iGb2p/aVzJ07N6DTdsRGcvTo0Q02p+rlI0ASB1eIyw+68MIL6SMlfHgPpKb+7tixgzjk6tWra6olYREQgXQJZPg+teWDhV0afshPEgkLJCkJ708dKHGtwyuJQsm0D4HwlWkXif+Svi6b9rke1NPSEMgw3uhCi26njNNOOw1wK1asSB2fvQZAdNE0Ez6ybLRHH3009baksNAEHn/8cbs2Dj30UHIUt2/fzlfLYKRf++23n+3hUug+yngRaFMC6U73fG1EYOwrT9SB+8QTT9hXMsd4ONFguyj0441u8AgWdenSha+DBg1qsAlVLwEBYoBcEoGOuCtz9+7dLt5IIb+KStBldUEE2pZAhvmNpMhX/I2Ap0k33dlfRmv8+PHmO9NdW6tiR1SYZwL+O878e/umuiuzc+fO9usnIJDnfsk2ERCBKAIZ+rOoJlMvDwcwWQor9VaksBAEiBxu2LDhqaeeMmtZU/FLX/pSjOWbNm2KOatTIiACBSJQeH9GOnUY91/91V9xUxs4cGD4lEpKTMAldITfenZ7RpO7OGfOnHQh2FyQwOa4cePS1SxtIiACyQkU259xk7IXpcMdJqrJ45DU71zhhlSSHwK8mDFixIivf/3rgV85fP3www/JqsdULoz8GCxLREAEUiRQYH9GNiN3Lp9FYAcZrWuV4oWSE1X+mN555528dOivcP3www87O9miiF2B+IoYeylMmjSJ43POOadbt2456YvMEAERSJdAgf3Ztm3bFi1axE9ynupPnDhRO7+ke2XkShvvfrBw2tNPP21WEU7kID6Jg7P/9m//NmrUqHixXHVTxoiACDRCoMD+jB/dS5cu7dmzp/aqbuQKKETdyZMns+IUpp5//vk//OEPKz40DXSEVYO3bt3ao0ePQnRQRoqACDROIMP3qRs3Ll5Dp06duK/JmcVTKuLZK664wr0ab/aThWivObPpT9iZbdmyhTgkgcTAKyJyZkUcfdksAnUTKPD8rO4+q2IOCfCW/csvv/z888/bhgzf+973AnHCik9DcWCs9/Gv//qv9IjVZ9gwOoddk0kiIALNISB/1hzOaiWOAFOuXbt2sVqHCa1du7Zfv35xFT45Ry2X3coaNMzGOnYscLyhan8lIAIiEE9A/iyej85mS8BfxYOIIi/Cn3766VWbdLV4nEYSIzn6VatkKoBnVdZJpoSlXASSEJA/S0JJMukQ2LNnDyn1/kvH5KaSrHjdddfV9FqY1bryyiuHDx+ejmXSIgIiUHwC8mfFH8OC9MAmMe+++y4b4LkZFVmIUet8+t0aMmTIunXrXEnCWgUBIzNFQATSIaDnDelwlJaKBMhUtK1YSEPlWRfzM4KKRxxxREXhcOGqVausOtkiSdxeWINKREAE2oeA5mftM9bN7ql7lYJYImtp1uSQEF6wYAHvF2K0vT2d56URLY5K8FMJls2+yNSeCHgE5M90OWRIwDIV2SRzn332SdgM07j+/fv7iYvhF84Sqmqa2M6dO9moSOsRNw24GhKBigQUb6yIRYU1EHBRwcDeK6T88dwLb5TcmdEqe+PhzKZPn/7CCy+gIf/OrAZSEhUBEciSgOZnWdItr26LsM2cOROvY720/Z1rCipWxEP+va0jXPGsCkVABEQgioD8WRQZlUcScJmKJpF8TcWwRpt+8T5Z+JRKREAERKAmAoo31oRLwh8TuPTSSy1TMWZNxXhSLMNoiYufbGD3DgsHx8vrrAiIgAhUJaD5WVVEbS1A/JA1FW+66SZ/CnX9J5/6uLDzyz//8z9blDK8i3R9OlVLBERABCAgf6bLoDIBiwRaniGb8lQWqrEUnbxPbUtDseKicj1q5CdxERCBOALyZ3F02u0cmYrz589nQ2fX8eRrKiZhNXv2bLaN7t27d8XF8pNokIwIiIAIRBGQP4si047lO3bswJmdcsopdH7evHlDhw5thMKf//xnHOTIkSOdkrImLlqCTCOsVFcERKBxAvJnjTMssIYzzjjD1uCwPrC2fVphQJcDqYXnC3x9yHQRKBQB+bNCDVcaxrKm4p/+9Kenn376N7/5TVhf48+0iCVaxJJlQQhXhptQiQiIgAhkQUD+LAuqedS5fPnyZ599dtq0aWYcCyoSV6QwLVtRdd55523btg2FaCZWScQyLeXSIwIiIAJVCcifVUVUEoFTTz3V9YSgYk1rKiZB4PSnFbFM0qhkREAERMAR0PvU5bwYSMQIdIzQ36OPPsrTLFsUsaY1FZMwQr+9Xt14xDJJc7mSIWmTKOszzzyTK6tkjAi0G4EOBX1cz14k6YbLSjDwlk9IR2yqlB0f3q3GX44dO7agF0/qYw2QAw44QOvrpw5WCkWgJgKKN9aEK7/CLp/QTGRNxdtuuy0Lc2kIx8kOKVkol04REAERqJuA4o11o8tLxalTp9ruzyy9ceONN7o1Fbt165auiW7Fxc9//vO0sn379nT1S5sIiIAINEJA87NG6LWm7vr164866ijX9hFHHJFdaNFacTtNkxU5adKkGTNmtKbnalUEREAEognIn0Wzyd8ZXn/mwdW4cePuuOMOZ92UTz5NMDaLrMgmmK0mREAE2oSA/FneBzq8pqK/glRzrFfeR3M4qxUREIFGCMifNUIv87ou0LfXXnuNGDGi8TUV4y1mH7J77rnH3rmWD4tnpbMiIAJ5IyB/lrcRCdpjuz/j2NLatCXYwKffr7zyyltuuWXXrl0UrF27NkpM5SIgAiKQTwLyZ3kZF7IHWVPxxRdf9A1qwiSJd4FZ9t5WXDzxxBNJ99BmLrVeE1pfv1ZikheBLAgoXz8Lqkl1suYhIUTmXnzwKLt376573+ekTf6lHCs6du3alaaPPfbY++67j2d1cmb1kVQtERCBlhPQ/Kw1Q2CZirb7s1nQkuxBVg3u0aPH5s2beVmtUyddDK25GNSqCIhAKgQ0P0sFY81KNmzYgDNzax5mtKZi2CymX2wW45djBuEyObMwK5WIgAgUi4DWb8x8vFavXv3+++/z1jPLamTeWEQDuM/58+ffcMMNdr4Jj+UiDClnsa2cOWjQoN69e5ezh+qVCBSBgOZnGY4S8x4+f/u3f8sCwYsXL86wpVjVxDaPOeYYc2ZENfnEiutkzQR27NjBEIf3NKhZkSqIgAg0QED+rAF4EVVZUHHYsGG2piLRvJkzZ86dO5fCCPGsipmTff3rX8eMhx9+mEwTbLCoJi42qyalVwREQARaR0ApACmzx1vgw2z359bu0cyk4Uc/+tHw4cP5iyUp91PqREAERCBnBOTPUh4QcgWZBqW++3MdVuLDCC2Svtixo2bhdfBTFREQgYIR0J2ungFbsWIF8UOL5rklqUwRq3gwRUt99+eqVtquMZs2bfIlsUTOrCo6CYiACJSDgOZnNYwjD/zJZLPdn6nGmops1MIL0TWoSFuUF6LZHNlMwh7S8XlHO+1GpE8EREAECkBA/izpIPFU7KSTTnLShPKasKZivHFDhgxhfawPP/wQMZaqIu8j6zUe4+3RWREQARFoIQHFG5PC33fffUkRtCxBSxRsofNgEoY3fe6553BmZhJzxxbakxSi5ERABEQgMwKanwXR4ioI4tmeKU888YTbbIxHYs3PuQ8a9+l3HowR6mRvl759+0bJqLxpBBgOvaLeNNpqSASiCGh9kP8nE15Tcc+ePVoIKurSUbkIiIAI5IqA4o0fD8cnC9x//N4xD8lOPvlkF1TMgzOzxEXMC+Qu5uoykjEiIAIi0HIC8mcfDwGxOz5r1qwhamS5+C0fGFZ9tIdk7LHJg7ExY8YMGDCg5VbJgJYQsCuB3zSsAsoxy4FmYQaa+TSiucHqftO//vWvG7EksOh2I6pUt0gEuIMX8QNiPFAdluMb+JDjXkfdplXBQm5edhmxP/X27dub1rQayhuBwYMHcyXMnj3bLbzZvXt3M3LhwoUjRoxIy2C73hrRhoZGqru69IsN+epWBbH777+/7uqqWFwC7TI/C6yp+MMf/jC3Pzr4kUvYk0vKwp533303m5Pl1loZBgF+HvH744EHHkidBprJYmUpziuvvNKyTnBs/L6xtliWk+PUG225QvrViA3vvvtuI9VVt7gESu7PXKCGqB1Zi0zpLr/8clwFd4fcjhkZlfb7KD/plLll1SaG+W9icOmee+65bEyDk1u/fv3atWtdBJKSGTNm4Fn5AUShi7lZGND+F3jjnlqOG4WUnH766YH43tatW9lg6JPHyh2Qcc9uOebDpND2MWeNUFN73XXXxTzftVqoCrfujyBi2Iyeiy++2DRz9vnnn6fEWjFjrAoWUuiqmwxfKSQeSy3/bJtcJ+pmOvGB5s9PGbkk8caHHnrIxtj2SWm+nVVbXLlyJXcrW/WxqrAE8knAIoFZxLhMc5cuXYgoBPrOLzN3/9q4cSNn9957b/+O5uyh0PeInTt3NlUWybQqbl00O8UCpL6qq6++2sr9Qkr8yIGt8RYwkq/r1q3za7nWOUW5L89XbKYtJ8/Zs846K7B63NKlSylnL1y/utUynVZ9+vTpYWNUUm4C5ZmfWR5HYOLFmrw2fsRq+Pj/Vy0/Zvo1atQo1hwhuvg///M/LbdHBuSQABftggULDj/88Msuu4zZSZ8+fbhs3nzzTUxloTXu6faciVwhfrqNHj3a3a369+8/fvx416NrrrnGTv3Xf/0Xb6FYOXOaSy65xMqZ7jhhcpHYm9SpwqNce+217uysWbPs1B133MEsyom5NzUDGK+//npKLISO8DnnnBO/2wOmun6Zqg8++MC1csABB7BfRKAJ/yuS9B2/aO3GSOpU+QgU/n3qwJqK/A6dM2eOG6cWbgkdda1YGMRWXPzc5z7HLFOBkShWKocALocPBz/72c+4RxM55/P6668H9sIe+8nHXUuBHEgXuz7hhBMcVZ69Edmzr3hKV47M008/7VQFcgXNGBPGm7pamIfHDQ8ZD4DxMa6c33CLFi0Ki8WU+DM2qt97770xwjrVzgQK7M/wZPx65XefGz9bUzHPw+kbzIN9QkaEkvJssGzLDwGecvEhNM1sjIt/3LhxAdsC/w5JLOdJWEWxOlRV1JN6IWviyJ+lTrU0Cgscb2TpQpwZXoE8wGeeeYbfgPwT+s8JcjhIpKXZOpBYS2hUziyHY5QrkywjwzeJYBqfsJG4Nyb9jz32mIXmKsqEa1XMySTi98UvfvGuu+4yVcQbwxXDJczPwoVWkmJm07e+9a2oVlQuAgX2Z5YPglewXPwcjiXJ1vyO9g3jGcOuXbtS/PfOYa9lUooELB+E7EGnk2wIpmgu2MgTLHfqkEMOIRzHV8vxq2oGPs+yB5Ekm9HJ82CsV69eEyZMoIRnaQ8++GBFVawdatmVdpaZU0Wx4447jgCpxT95Ykd2pR+l9PMkK1ankKd3LieTvBiejTlJFxSNya6MUqvyEhJwD1qLdcBIJMlvbGGneIzP4zF+X7/yyistNENNN4FAdvmNBCHwUlztNi2zWRc5sdYpy/GjkGvMZlEm5u5TJsZXH4L7Si2OCWn4kzkk7XmVqWJTPdPmVFkupX1liThnmy/mN0c2B6foBQotfPKHP/zBBE477TSrftBBB1l1y8mkX6RBIo+Y9atr166uazt37qTcvXjnd9nUUsLjQKvuW6Lj0hMo8PMz+wfI4V+mXyRb8robthEL7dGjRw6NlEkpEiDQzZ0iRYVOFWn0v//978ldfPnll62Q5HX30IvJDTEAyrnGiBy6rWUtAOC+chH6trmvZEstWbLENOMAyDGxXA/ijS4ZmBKU+6qYujltZFQ6bTRacW9b3iIATsA207Bs2TIrp3WmgxzbQ8Hjjz/+u9/9LjL2ZjT+1bfHovS8KvDaa6+xkghiJMJgPFNJU8tcraIlPgQdl5KA1tdPbVgtusi/FhoHDhzIzUKJi6nBlaJ2JYCHI78fF9uuANTvGghoflYDrHjRo446atu2bciQjszvVk3L4nHprAiIgAikS6DA+SDpgmhcGysG2SIO5513npxZ4zzbUwP5eyzY2J59r9jriRMn8pZCxVMqFIEAAcUb67wkiCUSCbGnF3WqULWyEPjzn/9MIitragTeca61f+QuWrw6o6dxtdojeREoFgHNz2oeL35B80Ir7/rwsForedeMr4wVSJrnegi8m1FrR1988UVzZiQQ1lpX8iIgAhDQ87OklwHvjfGu2+LFi8k2pg5pXWSaKa6YFJ/kYgnw3tjPf/5z3rXnEawuqlhUOikCkQTkzyLR+CdI/502bRolvApqewQnqiYhEahGgDeaSd7DmWklz2qodF4EqhCQP6sCyE6bM2M1BNYB4kd0ojoSEoEEBHjXiqn/2WefzdQ/gbhEREAEIgno+VkkGv+ErfExZMgQObNEvCSUgAAvIBNaxJkRu5YzSwBMIiJQhYD8WRAQiYssUuXWI7DTOdx3Jmi3vueYQHjHL9ZLZFVDFm1i8Sqt55njoZNpRSKgeOP/jxbvjbFkDou9FmkAZWvuCTD3InfRN5P8WC6z7t27s3czx7nvgQwUgWIQ0Pzs43HiBzLJiuyrxF2G4M99992nF8uKcf0WwcrbbruNLaHdzunDhg3jMjv44IN52UPOrAgDKBsLQ0DvU3/GbaqrBLPCXLbFMXTDhg1f+MIXsJcV4nldeubMmU899RRbqM+YMaM4nZClIlAMAoo3fjxO9garfiwX45otlJU/+MEPzF52OeGda45nzZolZ1aoMZSxhSHQdvMzfi/zAllhxkeGFpkAe+BNmjQp0AOtZVXkIZXtuSbQRs/PLHGR4E8gdzHX4yPjikzA9tsM9GDKlClut+Uid062i0DuCLSFP+O9MVtxEfzDhw8nqSx34yCDykiAR2Xhbt16661f/vKX2VEofEolIiACjRAouT8jcZF0DzbgsMRFpmhk5Pfr168RZKorAgECZMNymbFDtF8e9TiWBNrrrrvukUceEUYREIF0CZQ5H4S92HlllR3rBw8e/Oyzz6YLTtpEIIYAHs5/kZFlPxHGh5GmH1NLp0RABBohUCp/xtzrhBNOcDgmTJhw4okn4s80IWvkElHdWgnw9jRbULLwh1tWJmquVqtmyYuACMQQKIk/I664Zs2aJ598smfPnv6r0LqPxIy9TmVE4Oijj96yZUtG5dZ7qwAABf9JREFUyqVWBEQgikCx/dmHH37IszEWXKB7bA1MVEdxxaiRVrkIiIAIlJtAgfNBiC4edthh5sx4R/Wll16SMyv3xareiYAIiEAMgQLPzz744IPXX3+dbLFzzjlH69/HjLFOiYAIiEA7ECiwP9Nyi+1wgRaij3vttRexbp7dFsJaGSkCZSVQ4PWuWBG/b9++ZR0Y9UsEREAEGiSwadOmBjUUq3qB/VmxQMtaERABEWgygXZbLLSo/qzJl4WaEwEREAERyDmBAuc35pyszBMBERABEWgmAfmzZtJWWyIgAiIgAlkRkD/Liqz0ioAIiIAINJOA/FkzaastERABERCBrAjIn2VFVnpFQAREQASaSUD+rJm01ZYIiIAIiEBWBOTPsiIrvSIgAiIgAs0kIH/WTNpqSwREQAREICsC8mdZkZVeERABERCBZhKQP2smbbUlAiIgAiKQFQH5s6zISq8IiIAIiEAzCcifNZO22hIBERABEciKgPxZVmSlVwREQAREoJkE5M+aSVttiYAIiIAIZEVA/iwrstIrAiIgAiLQTALyZ82krbZEQAREQASyItApK8XSKwKtIPCzn/1s9erVffv2vfTSS1vRvtoUARFoGQHtT90y9Go4XQIvvvjiMccc4+t8+OGHR48eXbWVZ5999pBDDunTp09VyYoCVB86dGjFUyoUARFoJgHFG5tJW21lReDdd98dMmTIj3/8442fftauXTtmzJhly5ZVbXLYsGELFy6sKlZRYPHixVSveEqFIiACTSYgf9Zk4GoufQJbt27t2bPnlClTJk+ePODTD+5t7ty5X/nKVwg/1tHkNddck6TWjh07koilIpPQpFTakhIRKCIB+bMijpps/gsC+DO+T506NcDFSsyfdejQYf/993cCd9xxB0HCt99+m3IKp02bdtFFFxE55OsjjzzC32uvvZa/L730klUZN27cvHnzXHWc5gMPPMDXiy++mL9Ibtq0KdB66l9plIa6d++Onakrl0IRKAEB+bMSDKK68Bnu8p///OfDIE477bRwoSvp0aMH4Um+zpo166abbrJyopQWs7zxxhsHDx4cU51TyPAX+Yqtx9et7ywzQiKc+Laf/vSn9WlQLREoKwH5s7KObBv1i/t7x44dO3WqkKzbpUuXGBDUwjEg0KtXr969e5skzslilldcccWePXtiqnPKaiFfsfX4urWeZQbpqmzevHnixIlMMRWErBWj5EtMoMItoMS9VddKSWDNmjUnnXTS7t27995770AH33nnnQa7TJSSsGRyJW+++eaWLVuSyzciSc4LH0KjZHIefPDBSrNsBKbqloCA/FkJBlFd+AxRuFdffdUmWz6O5cuXn3XWWc0EtGTJEnuo1sxGiZHS3IIFCy655JJmtqu2RCBXBOTPcjUcMqYeAjYvOeywwz766CNX//333+etar6G80QoxOUce+yx8Y1Z2kV4cobmcKFThTFXX311vOa6zzIVC9fdZ599ZsyYocBjmIxK2o2A/Fm7jXg5+8v7ZwceeCDpf8QerYf2Wtjjjz9uXymnhNxF4nKWxOGD+MMf/uCChPhFU4K87/PIgRw5ciS1jjvuuL322suq8+CNAzzf0UcfbdFO/FlGcT8imQF/hnnKdSznBa1e1UeAn7T6iEAJCLzyyit+NiMZj2R2uH598MEH7h+EbEZcGs7AzlqtCy+80NzYypUrTfLss8/Gz5nMtm3bXBSRXIz+/fvff//9dsqE/bYygnn77be7Ltib4xk1JLUiUFACWu+qvp8BqlVCAsx1mJNZfmMOu8c7cLxLx7qURFD9d+lyaKpMEoGWEFC8sSXY1agI1EzA3uCuuZoqiEDbEND8rG2GWh2tRoBEDyZnRxxxROfOnavJ6rwIiEDuCMif5W5IZJAIiIAIiEAdBLQ+SB3QVEUEREAERCB3BOTPcjckMkgEREAERKAOAvJndUBTFREQAREQgdwRkD/L3ZDIIBEQAREQgToIyJ/VAU1VREAEREAEckdA/ix3QyKDREAEREAE6iAgf1YHNFURAREQARHIHYH/BZjKwjsvBpU4AAAAAElFTkSuQmCC;" vertex="1" parent="YOfady0k240_CXZ-rdd_-1">
          <mxGeometry x="519" y="170" width="385" height="220" as="geometry" />
        </mxCell>
      </root>
    </mxGraphModel>
  </diagram>
</mxfile>
